<svg xmlns="http://www.w3.org/2000/svg" preserveAspectRatio="xMinYMin" version="2" viewBox="0 0 4352 3232"><g fill="none" stroke-linecap="round" stroke-linejoin="round"><path fill="#505456" d="m2926 243 10 17-35 20-29 5h-31l-31-2-30-2-20 1-19 5h-3l-3 1-1 1-10-17 35-20 4-1h3l19-5 20-1 30 2 31 2h31l29-5zm-85-143 8 1 8 5 20 34 6 40 3 6 5 5 10 17-35 20-1-1-8-9-10-17-8-19-6-40-8-5h-2l-2 10-1 28-2 21-8 20-16 21-17 19-6 5-5 6-35 20-10-17 1-1h1l4-4 6-5 17-19 16-21 8-20 2-21 1-28 3-16 11-11 35-20 16-5z"/><path fill="#C8102E" d="m2890 192 17 18 7 11 10 17 4 11v2l-35 20-10-17v-2l-2-6-17-18-10-17 35-20z"/><path fill="#505456" d="m2827 116 7 4 10 17 4 10 1 11-1 9-8 13-2 2-35 20-10-17 2-2 8-13 1-9-1-7-1-1-10-17 35-20z"/><path fill="#C8102E" d="m2780 253 1 1 10 17-16 9-1 2-2 9 3 18 6 19 2 18-6 23-11 20-16 16-34 20-35 20-10-17 1-1 34-20 15-15 11-20 6-23-2-18-6-19-3-18 2-9 6-8 35-20 3-2 5-2 4-1z"/><path fill="#505456" d="m2924 238 2 3 10 17 1 8v13l-4 15-7 14-6 14-3 16 5 24 8 11 23 18 24 17 10 9 6 10 10 17 2 25-1 10v1l-35 20-10-17v-1l1-10-2-22-7-6-24-17-23-18-17-22-10-17-7-30 3-16 6-14 7-14 4-15v-13l-1-7-2-4 35-20z"/><path fill="#C8102E" d="m2964 425 10 17 2 3-3 8-5 8-4 5-7 7-9 6-35 20-2 1-10-17 11-7 7-7 4-5 5-8 3-8-2-3 35-20z"/><path fill="#505456" d="m2934 414 1 1 10 17-5 3-8 10-11 14-10 10-35 20-9 4-2-1-10-17 1-5 1-3 29-17 1-1 9-11 3-2 35-20z"/><path fill="#C8102E" d="m2916 417 10 17-1 3-3 5-14 14-4 3-35 20-10-17 4-3 14-14 3-5 1-3 35-20z"/><path fill="#505456" d="m2860 443 10 17v4l-35 20-10-17v-4l35-20z"/><path fill="#C8102E" d="m2849 410 5 9 15-9 10 17-1 2-2 5-6 10-7 9-9 10-7 7-35 20-10-17-25 14-10-17 2-2 11-9 13-10 12-10 8-10 35-20z"/><path fill="#505456" d="m2797 400 10 17-43 48-2 2-35 20-10-17 2-2 43-48 35-20z"/><path fill="#C8102E" d="m2792 395 10 17-14 13-17 12-35 20-20 9-21 2-3-3-10-17 1-5 1-3 35-20 6 10 15-2 2-1 1-1 14-13 35-20z"/><path fill="#505456" d="m2738 395 10 17 1 5-3 8-4 8-3 5-13 15-15 13-2 2-35 20-10-17 2-2 15-13 13-15 3-5 4-8 3-8-1-5 35-20z"/><path fill="#C8102E" d="m2724 378 10 17-1 3-4 6-4 7-3 4-17 24-21 22-13 11-15 9-35 20-3 1-10-17 20-12 11-9 21-22 17-24 3-4 4-7 4-6 1-3 35-20z"/><path fill="#505456" d="m2636 458 10 17-13 13-12 11-35 20-9 5-1 2-35 20-10-17v-1l4-4 35-20 12-6 19-19 35-20z"/><path fill="#C8102E" d="m2595 503 4 5 10 5 11 3 9 1h6l6-1 11-7 3 4 14 6 5 1 35 5 35 3 41 6 3 1 10 17-35 20-3-1-41-6-35-3-35-5-5-1-14-6-2-2-4 2-7 2-8 1h-6l-9-1-11-3-10-5-4-5-10-17 35-20z"/><path fill="#505456" d="m3000 463 8 7 12 9 14 8 14 5 15 1 15-2 14 1 12 9 18 17 21 9 24 3h25l41 4 19 6 19 10 8 5 10 17-35 20-8-5-19-10-19-6-41-4h-25l-24-3-21-9-18-17-12-9-14-1-15 2-15-1-14-5-14-8-12-9-8-7-10-17 35-20z"/><path fill="#C8102E" d="m3280 557 8 9 10 17 2 12v3l-35 20-10-17v-3l-1-6-9-15 35-20z"/><path fill="#505456" d="m3284 587 10 17 5 10 3 10v1l-35 20-10-17v-1l-3-10-5-10 35-20z"/><path fill="#C8102E" d="m3228 591 22 2 21 7 21 9 10 17-35 20-21-9-21-7-22-2-23 4-4 1-10-17 35-20 4-1 23-4z"/><path fill="#505456" d="m3277 596 9 3 10 6 16 14 16 16 13 17 23 38 21 30 26 26 10 17v2l-4 2-35 20-5 2h-3l-83-11-8-1-10-17 35-20 8 1 36 5-14-20-23-38-13-17-16-16-16-14-10-6-9-3-10-17 35-20z"/><path fill="#C8102E" d="m3277 740 30 1 10 17-35 20-30-1-30 1-3 1-10-17 35-20 3-1 30-1z"/><path fill="#505456" d="m3387 765 3 2 4 6 4 7 3 5 17 26 10 17 7 13 4 15 10 32 13 19 1 1 10 17v1l-35 20-1-2-21-31-10-17-11-37-4-15-1-1-14-20-3-5-8-12-3-2-10-17 35-20z"/><path fill="#C8102E" d="m3408 901 16 1 16 3 12 7 10 17-35 20-12-7-16-3-16-1-14 1-16 1-15 3-2 1-10-17 35-20 2-1 15-3 16-1 14-1z"/><path fill="#505456" d="m3305 900 3 1 7 2 7 1 10 17-35 20-7-1-7-2-3-1-10-17 35-20z"/><path fill="#C8102E" d="m2716 675 2 1 5 2 10 17-35 20-5-2-2-1-10-17 35-20z"/><path fill="#505456" d="m2716 668 1 1 10 17-35 20-1-1h-4l-9 1h-4l-10-17 35-20h4l9-1h4z"/><path fill="#C8102E" d="M2669 663h3l10 17-35 20h-3l-10-17 35-20z"/><path fill="#505456" d="m2639 661 10 17-4 5-5 3-35 20h-1l-10-17 7-4 3-4 35-20z"/><path fill="#C8102E" d="m2527 643 9 1 4 3 6 10 14 4 15-1 10-5 9-5 13-1 11 4 10 17 5 9-35 20-5-9-10-4-13 1-9 5-10 5-15 1-14-4-6-10-4-3-9-1h-3l-17 10-10-17 1-2 3-4 35-20 6-2 9-1z"/><path fill="#505456" d="M2474 819h2l10 17-22 13-4 5-6 7-35 20-10-17 6-7 8-8 9-7 35-20 8-2z"/><path fill="#C8102E" d="m2521 825 7 3 12 6h3l10 17-35 20h-3l-12-6-5-2-27 16-5 2-4-2-10-17-4-8 35-20 5 8 27-16 7-2z"/><path fill="#505456" d="m2568 822 4 2 10 17 3 7 2 2h7l11-4 9-5 9-2 12 4 8 3h2l10 17-35 20h-2l-8-3-12-4-9 2-9 5-11 4h-7l-5-3-10-17-3-6-1-1-5 2-10-17 35-20 5-2z"/><path fill="#C8102E" d="m2673 845 6 5 2 1 10 17-35 20-2-1-6-5-10-17 35-20z"/><path fill="#505456" d="m2710 845 10 3 19 7 24 8 2 1 10 17-35 20-2-1-24-8-19-7-10-3h-8l-10-17 35-20h8z"/><path fill="#C8102E" d="m2150 1051 10 17-12 18-8 21-11 43-2 9-1 4-35 20-10-17 1-4 2-9 11-43 8-21 12-18 35-20z"/><path fill="#505456" d="m2114 1181 10 17v16l3 16 1 2-35 20-10-17-1-2-3-16v-16l35-20z"/><path fill="#C8102E" d="m2177 1108 10 17v1l-35 20-10-17v-1l35-20z"/><path fill="#505456" d="m2171 1120 10 17-17 56-5 28v33l-35 20-10-17v-32l5-28 17-56 35-20z"/><path fill="#C8102E" d="m2214 1131 10 17 3 7-2 11-4 11-3 8-4 16-2 16v2l-35 20-10-17v-2l2-16 4-16 2-4-14 8-10-17 5-7 7-10 8-7 35-20h8z"/><path fill="#505456" d="m2264 1190 10 17-35 20-7 3-10-17 35-20 7-3z"/><path fill="#C8102E" d="M2300 1181h5l8 5 5 2 2-1 10 17-35 20-2 1-5-2-6-4-17 10-10-17 6-7 4-4 35-20z"/><path fill="#505456" d="m2341 1173 10 17 2 15 1 1-35 20-10-17-1-1-2-15 35-20z"/><path fill="#C8102E" d="m2476 1199 10 17v3l-4 5-6 4-35 20h-5l-10-17-1-1 15-9v-3l35-20z"/><path fill="#505456" d="m2451 1193 10 17v1l-1 2-35 20-10-17 1-2v-1l35-20zm-335-72 10 17-2 8-5 15-6 17-5 15-16 53-20 51-52 104-3 8-4 11-35 20-10-17 4-11 3-8 52-104 20-51 16-53 5-15 6-17 5-15 2-8 35-20z"/><path fill="#C8102E" d="m2004 1403 10 17-24 56-1 3-35 20-10-17 1-3 24-56 35-20z"/><path fill="#505456" d="m1984 1445 10 17-1 7v6l2-1 1 1 10 17v14l-35 20-10-17v-1l-1-1-10-17-2-9 1-9 1-7 35-20z"/><path fill="#C8102E" d="m2044 1372 10 17-1 1-7 23-5 24-35 20-10-17 5-24 7-23 1-1 35-20z"/><path fill="#505456" d="m2064 1356 10 17-1 7-1 8-35 20-10-17 1-8 1-7 35-20z"/><path fill="#C8102E" d="m2084 1311 10 17-3 9-26 89 1 2-3 9-35 20h-1l-10-17 1-6 28-94 3-9 35-20z"/><path fill="#505456" d="m2104 1222 10 17-1 9-4 32-5 34-5 32-2 24-35 20-10-17 2-24 5-32 5-34 4-32 1-9 35-20z"/><path fill="#C8102E" d="m2137 1209 10 17-1 1-1 2-4 20-3 20-4 20-9 18-35 20-10-17 9-18 4-20 3-20 4-20 1-2 35-20h1z"/><path fill="#505456" d="m2157 1217 10 17-2 6-1 4-4 10-2 2-35 20-10-17 2-2 4-10 1-4 2-6 35-20z"/><path fill="#C8102E" d="m2007 1490 10 17v9l-35 20-10-17v-8l-1-1 35-20z"/><path fill="#505456" d="m2000 1482 10 17 1 1 3 7-2 1 9 33 7 39v4l-35 20-10-17v-4l-7-39-10-38-1-4 35-20z"/><path fill="#C8102E" d="m2017 1555 10 17-35 20h-1l-5 2-10-17 35-20 5-2h1z"/><path fill="#505456" d="m2059 1563 29 2 30 4 29 8 24 15 4 4 3 5 10 17-35 20-3-5-4-4-24-15-29-8-30-4-29-2h-17l-16 4-10-17 35-20 16-4h17z"/><path fill="#C8102E" d="m2167 1595 5 7 10 17 4 12 2 9 3 25v27l-6 25-14 21-4 4-35 20-10-17 4-4 14-21 6-25v-27l-3-25-1-6-4 2-10-17 2-6 35-20 2-1z"/><path fill="#505456" d="m2166 1718 10 17-3 6-4 7-24 32-31 26-4 3-2 2-35 20-10-17 2-2 4-3 31-26 24-32 4-7 3-6 34-20z"/><path fill="#C8102E" d="m2104 1796 2 3 10 17v2l1 1h2l10 17-35 20h-2l-7-3-10-17-3-9-1-8-2-4 35-20z"/><path fill="#505456" d="m2509 1277 4 2 7 4 3 2 10 6 2 2 10 17-35 20-2-2-10-6-3-2-7-4-4-2-10-17 35-20z"/><path fill="#C8102E" d="m2497 1279 10 17-35 20-6 1-4-1-10-17 35-20 4 1 6-1z"/><path fill="#505456" d="M2397 1255h14l15 3 28 10 10 17-35 20-28-10-15-3h-13l-5 3-10-17v-1l35-20 3-2z"/><path fill="#C8102E" d="m2448 1293 10 4 9 6 4 3 10 17-35 20-4-3-9-6-10-4-10-17 35-20z"/><path fill="#505456" d="m2448 1347 7 2 3 1 10 17-35 20-3-1-7-2-10-17 35-20z"/><path fill="#C8102E" d="m2327 1271 7 3 53 29 51 32 8 5 10 7 9 6 7 2 10 17-35 20-7-2-9-6-10-7-8-5-51-32-53-29-7-3-10-17 35-20z"/><path fill="#505456" d="m2304 1271 63 38 61 41 6 5 3 3 10 17 1 2h-1l-35 20-3-5-7-5-61-41-63-38-10-17 35-20z"/><path fill="#C8102E" d="m2290 1295 8 5 51 25 53 22 10 17-35 20-53-22-51-25-8-5-10-17 35-20z"/><path fill="#505456" d="m2243 1251 5 2 4 8 19 10 23 15 2 2 10 17 1 2-35 20-1-2-2-2-23-15-24-13-5-3-2-2-10-17 35-20 3-1z"/><path fill="#C8102E" d="m2236 1272 22 7 10 17-35 20-21-7-10-17 35-20z"/><path fill="#505456" d="m2227 1292 7 3 9 15 13 7 28 11 28 12 26 16 3 3 2 3 10 17-35 20-2-3-3-3-26-16-28-12-28-11-26-15-6-6-10-17-1-4 35-20 4-1z"/><path fill="#C8102E" d="M2192 1310h2l10 17-35 20h-2l-10-17 35-20z"/><path fill="#505456" d="m2191 1310 6 2 8 4 9 5 7 4 16 7 18 8 17 10 12 12 10 17 1 2-35 20-2-3-11-11-17-10-18-8-16-7-7-4-9-5-8-4-6-2-10-17 35-20z"/><path fill="#C8102E" d="m2176 1331 6 2 5 9 4 3 54 32 9 5 10 17-35 20-9-5-54-32-7-5-8-6-3-3-10-17 35-20h2z"/><path fill="#505456" d="M2145 1356h2l12 4 2 3 27 12 36 19 7 4 10 17-35 20-7-4-36-19-37-16-6-3-10-17 35-20z"/><path fill="#C8102E" d="m2138 1392 12 3v1l48 18 50 22 2 1 1 1 10 17-35 20-1-1-2-1-50-22-51-19-8-2h-1l-10-17 35-20z"/><path fill="#505456" d="M2132 1420h1l21 3 10 17-35 20-21-3h-1l-10-17 35-20z"/><path fill="#C8102E" d="m2186 1445 12 2h3l10 17-35 20h-3l-12-2-10-17 35-20z"/><path fill="#505456" d="M2099 1430h8l14 2 8 14 23 8 46 13 3 1 2 1 10 17-35 20-2-1-3-1-46-13-45-15-4-2-5-2-4-2-1-2-10-17 35-20 6-2z"/><path fill="#C8102E" d="m2121 1453 8 1 8 2 5 1 10 17-35 20-5-1-7-2-11 7-10-17-2-6 35-20 4-2z"/><path fill="#505456" d="m2084 1482 18 2 19 5 19 7 10-6 15 8 7 5 5 5 10 17-6 3 5 9v2l-35 20-1 1-3-6-13-7-17-6-35-9-14-7-7-4-10-17-1-2 35-20z"/><path fill="#C8102E" d="m2064 1505 2 1 5 3 9 5 30 9 28 12 10 17v2l-35 20-6-1-3 1-3-1-19-4-19-3-14-4-13-3-10-17 10-6-8-13 35-20z"/><path fill="#505456" d="M2244 1547h3l6 4 6 6 10 17-13 7 2 8 6 22 1 4 1 6v5l-34 19 1 9-35 20-10-17-4-18-8-20-5-10-5-9 12-7-1-11 2-3 35-20 2 2 27-15z"/><path fill="#C8102E" d="m2259 1557 4 3 6 5 4 2 4-3 10 17v2l-35 20-3 1-6-3-6-5-4-3-10-17 35-20z"/><path fill="#505456" d="m2271 1523 16 9 18 9 10 17-35 20-18-9-16-9-10-17 35-20z"/><path fill="#C8102E" d="m2304 1480 5 4 11 11 4 3 7-4 10 17v3l-2 4-22 13 1 4 2 7v3l-35 20-11-12-10-13-10-17 13-7-1-3-1-11 35-20h3z"/><path fill="#505456" d="m2331 1450 7 5 2 1 10 17-35 20-2-1-7-5-10-17 35-20z"/><path fill="#C8102E" d="m2363 1413 4 6 7 12 15-8 10 17-5 5-12 10-4 2 1 8-3 2-35 20-6-4-1-1h-7l-3-3-10-17-1-4v-2l10-6-4-7 8-5-1-3v-3l35-20z"/><path fill="#505456" d="m2426 1399 4 8 8 6 11 4 11 3 28-16 10 17 3 7-3 8-35 20-11 4-14-1-14-4-11-4-4-3-9-9-10-17 1-2 35-20z"/><path fill="#C8102E" d="m2674 1631 5 1 4 4 8 11 18-10 3 4 10 17-4 6-5 6-35 20-4 1-8-7-8-11-4-4-4-1-23 13-3 1h-3l-10-17 35-20h5l24-14z"/><path fill="#505456" d="m2627 1642 10 17-42 24h-1l-10-17 35-20h1l4-2 3-2z"/><path fill="#C8102E" d="m2608 1642 8 3 10 17-35 20-8-3-6 2-6 3-8 3h-4l-10-17 35-20h4l8-3 6-3 6-2z"/><path fill="#505456" d="m2575 1637 1 1 10 17-4 2-4 5-3 2-35 20-10-17 3-2 4-6 2-2 35-20z"/><path fill="#C8102E" d="m2535 1640 5 6 10 17-35 20-4-4-16 9-8 3-6-4-6-5h-8l-10 2-11-1-19-6-7 4-8 5-18-3-3-1-10-17 35-20 3 1 17 3 15-9 20 7 11 1 10-2h8l6 5 3 2 21-12h4z"/><path fill="#505456" d="m2408 1637 10 17-35 20-5 3-2 1-10-17 3-2 2-1 35-20 2-1z"/><path fill="#C8102E" d="m2359 1640 2 1 13 2 10 17-35 20-13-2-2-1-10-17 35-20z"/><path fill="#505456" d="m2349 1627 10 17-6 3-3 4-5 6-35 20-7 3-15 1-4-1-10-17 35-20 4 1h6l25-15 5-2z"/><path fill="#C8102E" d="m2289 1628 10 17v4l-2 9-3 9-4 6-18 10-2 5-6 8-5 6-6 9-1 3-35 20-10-17 1-3 6-9 5-6 6-8 4-8-2-7 25-15v-1l2-9v-4l35-20z"/><path fill="#505456" d="m2284 1692 9 12 10 17 2 16-3 16-5 13-35 20-5-9-3 2-19 10-21 6-18 2h-4l-4-1-10-17 35-20 4 1h4l18-2 13-4 5-5 2-1 1-8-1-11-10-17 35-20z"/><path fill="#C8102E" d="m2212 1729 4 4 10 17 1 6-3 12-3 5-35 20-10-17 3-5 3-12v-1l-5-9 35-20z"/><path fill="#505456" d="m2185 1777 10 17-27 20-3 2-35 20-10-17 3-2 27-20 35-20z"/><path fill="#C8102E" d="m2152 1785 10 17 7 19 30-18 14-5 13 4 10 17 2 7-5 8-8 7-6 5-8 10-35 20-10-17 4-5 1-1-32 19-10-17-3-26-9-24 35-20z"/><path fill="#505456" d="m2325 1761 9 1 18 3h5l10 17-35 20h-5l-18-3-9-1-8 1-10-17 35-20 8-1z"/><path fill="#C8102E" d="m2392 1754 10 17v1l-6 8-3 5-35 20-3-5-1 1-10-17 8-6 5-4 35-20z"/><path fill="#505456" d="m2300 1782 12 3 11 5 13 4 10 17-35 20-13-4-11-5-12-3-14 4-11 6-10-17 4-3 42-24 14-4z"/><path fill="#C8102E" d="m3449 925 3 2 8 10 9 13 6 10 10 17 15 42 12 43 6 20 5 12 6 8 18 10 4 1 10 17-35 20-4-1-18-10-13-17-10-17-8-21-6-20-12-43-15-40-6-9-8-10-3-2-2 1-10-17 35-20 2-1z"/><path fill="#505456" d="m3523 1100 2 1 5 4 14 8 68 24 44 14 44 13 47 14 49 13 17 5 10 17-35 20-17-5-49-13-47-14-44-13-44-14-68-24-14-8-5-4-2-1-10-17 35-20z"/><path fill="#C8102E" d="m3814 1196 139 37 5 1 10 17-35 20-5-1-139-37-10-17 35-20z"/><path fill="#505456" d="m3956 1243 10 17-2 1-8 6-2 2-18 20-15 22-5 14-4 15v2l-35 20-10-17v-2l4-15 5-14 15-22 18-20 2-2 8-6 2-1 35-20z"/><path fill="#C8102E" d="m3898 1320 10 17 1 2 2 11 1 14v11l-6 11-11 10-13 9-35 20-12 6-33 18-8 4-10-17 35-20 8-4 17-10 6-4 11-10 6-11v-11l-1-14-2-10-1-1v-1l35-20z"/><path fill="#505456" d="m3831 1411 10 17-1 3-35 20-2-3-4 1-14 8-60 32-43 20-10 12-8 15-4 16 1 35 11 34 3 5-35 20-10-17-3-5-11-34-1-35 4-16 8-15 11-13 15-10 35-20 61-29 59-31 7-4 8-4 6-2z"/><path fill="#C8102E" d="m3666 1610 10 17 6 20 1 3-35 20-10-17-1-3-6-20 35-20z"/><path fill="#505456" d="m3660 1622 3 1 7 4 7 5 5 3 10 2 10 1 9 2 9 7 4 7 10 17 1 6-7 10-13 7-35 20-13 4-14 4-24 14-10-17 3-2 16-10 35-20 14-4 2-2-4-3-9-2-10-1-10-2-5-3-7-5-7-4-3-1-10-17 35-20z"/><path fill="#C8102E" d="m3646 1698 22 10 8 11 10 17 2 17-1 19-1 15 1 30 5 29 1 3-35 20-10-17-1-3-5-29-1-30 1-15 1-19-1-11-8-4-8 5-10-17-2-5-3-5 35-20z"/><path fill="#505456" d="m3850 1383 10 17-4 4-24 16-35 20-30 11-31 7-29 2-6 2-7 4-14 2-16-1-5-1-35 20-10-17 5-8 3-9-9-15v-1l35-20 8 5v1l4 2 13 4 15 3 16 1 13-2 6-4 7-2 29-2 31-7 18-7 5-5 35-20z"/><path fill="#C8102E" d="m3264 1217 10 17-1 3-1 7v12l-2 25v5l-35 20-10-17v-5l2-25v-12l1-7 1-3 35-20z"/><path fill="#505456" d="m3304 1253 10 17-2 1-4 4-4 5-2 3-2 4-35 20-10-17 2-4 2-3 4-5 4-4 2-1 35-20z"/><path fill="#C8102E" d="m3328 1258 10 17-1 1-3 4-4 10v5l-35 20-10-17v-5l4-10 3-4 1-1 35-20z"/><path fill="#505456" d="m3361 1254 10 17-6 8-4 11v4l10 17-35 20-3-1-6-8-10-17-1-11 4-11 6-8 35-20z"/><path fill="#C8102E" d="m3393 1257 1 1 10 17-1 5-2 6-6 3-2 8v4l-35 20-10-17v-4l2-9 5-9 4-5 35-20z"/><path fill="#505456" d="m3421 1261 10 17-2 1-2 3-2 6-1 4v10l1 4-35 20-10-17-1-4v-10l1-4 2-6 3-4 35-20h2z"/><path fill="#C8102E" d="m3462 1259 10 17 1 3-6 3-3 7v7l2 3-35 20-2-2-10-17v-8l3-9 4-5 35-20z"/><path fill="#505456" d="m3522 1240 10 17-5 3-15 15-6 7-9 14-1 3-35 20-10-17 1-3 9-14 6-7 9-9 8-7 35-20 3-1z"/><path fill="#C8102E" d="m3547 1258 10 17v1l-2 4-7 13-2 8h1l10 17-35 20-4-1-6-4-10-17-2-6 3-15 7-13 2-4v-1l35-20z"/><path fill="#505456" d="m3609 1268 10 17-1 4-17 10-4 6-2 7 5 8-35 20-3-1-10-17-2-6 3-8 5-7 4-5 4-3 6-3 35-20 4-1z"/><path fill="#C8102E" d="m3634 1256 10 17 2 4-2 7-4 7-3 4-6 3 8 13-35 20-3 1-5-2-10-17-1-6 1-7 4-10 3-7 4-6 3-2 35-20z"/><path fill="#505456" d="m3660 1256 10 17v1l-2 9-4 11 9 15-35 20-4 2-5 2-4-2-10-17 3-14 4-9-1-1 3-8 2-5 35-20z"/><path fill="#C8102E" d="m3726 1243 10 17-2 7-5 8-6 8-4 7-2 4-1 4-35 20-10-17 1-4 2-4 4-7 6-8 5-8 2-7 35-20z"/><path fill="#505456" d="m3759 1236 10 17-6 9-9 15-6 11v5l1 2-35 20-1-2-10-17v-6l6-11 9-15 3-4 3-5 35-20z"/><path fill="#C8102E" d="m3791 1247 10 17-2 4-3 7-2 9 1 8 2 4-35 20-2-3-10-17-1-9 2-9 3-7 2-4 35-20z"/><path fill="#505456" d="m3835 1244 5 9 14-8 10 17-5 15 2-2 35-20 1 1 10 17-2 7-5 11-1 3-35 20-2-4-24 14h-10l-6-9-3-5-5 3-9 5-3-4-10-17 1-6-2-3 4-5 1-4 1-3 4-10 1-2 35-20z"/><path fill="#C8102E" d="m3488 1098 10 17-2 3-1 4-1 2-35 20-10-17 1-2 1-4 2-3 35-20z"/><path fill="#505456" d="m3470 1078 10 17-35 20-8 3h-2l-7 4-10-17 3-3 2-1 35-20h1l3-1 8-3zM2378 921l10 17-3 7-8 21-6 21-5 15-4 14-3 12-7 7-35 20-20 8-29 6-30 1-49 3-40 5-16 9-4 1-10-17 2-3 5-4 35-20 6-2 48-6 49-3 30-1 23-5 2-9 4-14 5-15 6-21 8-21 3-7 35-20z"/><path fill="#C8102E" d="m2501 637 10 17-2 3-28 45-43 93-14 35-36 108-35 20-10-17 36-108 14-35 43-93 28-45 2-3 35-20z"/><path fill="#505456" d="m2587 497 10 17-1 1-8 6-7 7-21 32-17 35-31 59-35 20-10-17 31-59 17-35 21-32 7-7 8-6 1-1 35-20zm-66 76 10 17-1 1-8 10-7 13-11 26-16 30-20 27-14 18-12 19-35 67-9 29-7 31-1 4-35 20-10-17 1-4 7-31 9-29 35-67 12-19 14-18 20-27 16-30 11-26 7-13 8-10 35-20z"/><path fill="#C8102E" d="m2382 845 10 17-26 63-19 40-18 40-8 28v2l-35 20-10-17v-2l8-28 18-40 19-40 26-63 35-20z"/><path fill="#505456" d="m3637 1497 10 17-4 5-4 8-4 9-3 6-13 18-3 3-35 20-10-17 3-3 13-18 3-6 4-9 4-8 4-5 35-20z"/><path fill="#C8102E" d="m3594 1503 7 3 10 17-23 13-1 1-35 20-10-17 1-2 4-6 5-6 42-24z"/><path fill="#505456" d="m3585 1490 10 17-8 7-10 8-35 20-12 7-12 2-4-1-10-17 35-20 4 1h3l4-4 35-20z"/><path fill="#C8102E" d="m3526 1496 4 2 10 17 2 6 4 6-35 20-4-6-5-8-1-1-8 1-9 2-6 1-15 3h-18l-10-17 35-20h18l15-3 6-1 9-2 8-1z"/><path fill="#505456" d="m3326 1487 6 3 7 4 6 1h15l5 8 27 3 10 17-35 20-9-1-23-2-22-6-6-4-4-4-10-17v-2l35-20z"/><path fill="#C8102E" d="m3452 1494 9 3 2 3 10 17 2 4-35 20-4-7-9-3-12 1-2 1-11 6-10-17 2-3 35-20 10-3 12-1z"/><path fill="#505456" d="m3610 1673 14 1 12 3 4 6 10 17-35 20-4-6-9-3-1 1-35 20-7-1-7-2-2-1-17 10h-9l-8-3-3-2-10-17 35-20 3 2 8 3h3l3-2v-1l3-5 35-20 9-2h10z"/><path fill="#C8102E" d="m3521 1688 10 17v8l-5 6-35 20-4 2-10-17 4-2 5-6v-8l35-20z"/><path fill="#505456" d="m3445 1685 10 17-4 5-35 20-6 3-3 1-10-17 12-7 2-2 35-20z"/><path fill="#C8102E" d="m3421 1687 3 1 3 3 10 17-1 3-35 20-2 1-10-17 1-1-4-7 35-20z"/><path fill="#505456" d="m3338 1685 1 1 10 17-35 20-4 2-12 7-10-17 2-2 35-20 4-2 9-5z"/><path fill="#C8102E" d="M3317 1680h9l6 2 10 17 1 4-6 6-35 20-7-12h-3l-9 3-8 4-3 1-3 2-10-17 35-20 3-2 2-1 9-4 9-3z"/><path fill="#505456" d="m3448 1813 4 3 3 5 10 17 3 8 1 8-3 4-35 20-8-4-3-4-18 10-10-17 1-2 8-18-1-2-1-3 10-6 35-20h4z"/><path fill="#C8102E" d="m3380 1819 2 2 17 8 10 17-35 20-17-8-2-2-10-17 35-20z"/><path fill="#505456" d="m3345 1811 15 5 6 5 11-6 1 1 10 17 2 5 2 7-2 3-35 20-5-2-15-12-15-5-15 3h-5l-10-17 35-20h5l15-3z"/><path fill="#C8102E" d="m3521 1802 10 17-9 9-35 20-10-17 9-9 35-20z"/><path fill="#505456" d="m3211 1810 6 4 4 6 4 5h1l19-11 3-1 10 17-7 4-1 1-6 5-4 3-35 20-5-1-4-5-4-6-6-4h-18l-17 5-7 1-8 2-11 6-2 1-10-17 1-1 35-20 12-6 8-2 7-1 17-5h18z"/><path fill="#C8102E" d="m3102 1815 10 17v6l3 5v3l-1 1-35 20-10-17-2-5v-2l-3-6 35-20 3-2z"/><path fill="#505456" d="m2966 1800 10 17-3 8-35 20-4-7-8 4-9 5-8 4-10-17 35-20 8-4 9-5 10-5 6-1z"/><path fill="#C8102E" d="m2910 1801 10 17-35 20-5 3-6 2-4 1-10-17 35-20 4-1 6-2 5-3z"/><path fill="#505456" d="M2845 1800h2l2 4 7 6 2 1 14-8 10 17-4 10-35 20-12-3-7-6-2-3-8 5-13 5-13-5-2-2-10-17 35-20 2 2 13 5 6-2 14-8z"/><path fill="#C8102E" d="m2794 1799 13 1 10 17-35 20-13-1-12 6-5 2h-1l-10-17 35-20h1l5-2 12-6z"/><path fill="#505456" d="m2758 1798 6 1 7 5 10 17-35 20-7-5-5-1-20 12h-6l-1-1-10-17 35-20 1 1h5l20-12z"/><path fill="#C8102E" d="m2616 1786 15 8 16 5 11-2 10-3 9 3 16 12 11 1 4-2 10-6 5-1 6 5 10 17-35 20-6-5-4 1-7 4-8 4-11-1-16-12-9-3-10 3-11 2-14-4-15 8h-8l-10-17 13-7-4-7-2-4 35-20z"/><path fill="#505456" d="m2567 1790 10 17-3 2-2 5-1 6-1 4v4l-1 7-1 6v4l-35 20-10-17v-3l1-6 1-7v-4l1-4 1-6 2-5 35-20 2-1z"/><path fill="#C8102E" d="m2564 1798 10 17v6l2 12 2 13v11l-2 15v1l-35 20-10-17v-1l2-15v-11l-2-13-2-12v-6l35-20z"/><path fill="#505456" d="m2332 1940 4 2 10 17-2 6-4 5v9l-1 9-2 10-5 6-35 20-9-2-3-2-10-17 18-11v-2l1-9v-8l-2-3 2-1 1-7 2-3 35-20z"/><path fill="#C8102E" d="m2305 1950 10 17v4l-1 9 17-10 13-8 14-3 16 3 4 2 10 17-35 20-4-2-16-3-5 1-8 6-35 20-5-1-10-17-2-6-1-10v-13l-1-1 1-5v-2l35-20z"/><path fill="#505456" d="m2393 1945 6 1 7 4 7 5 7 3 3 1h3l10 17-35 20h-3l-3-1-7-3-7-5-7-4-6-1-10-17 35-20z"/><path fill="#C8102E" d="m2449 1951 2 1 10 17 1 3 2 4-35 20-2-2-10-17v-1l-3-5 35-20z"/><path fill="#505456" d="m2551 1943 10 17v1h-1l-1 6-3 5-35 20-5 1-4-5-16 9-8-1-10-3-8-4-10-17-2-3 35-20 2 4 8 4 10 3h5l16-9 1-1 1 1 14-8z"/><path fill="#C8102E" d="m2560 1934 10 17v1l-3 6-35 20-1-1h-1l-10-17 4-6 35-20z"/><path fill="#505456" d="m2905 1907 10 17-35 20-3 1-4 1-3 1-10-17 35-20 3-1 4-1 3-1z"/><path fill="#C8102E" d="m2866 1912 8 1 10 17-35 20-8-1h-3l-10-17 35-20h3z"/><path fill="#505456" d="m2827 1908 3 1 2 2 10 17-35 20-2-2-3-1-10-17 35-20z"/><path fill="#C8102E" d="M3228 1933h22l10 17-35 20h-22l-10-17 35-20z"/><path fill="#505456" d="M3169 1932h2l27 1h12l10 17-35 20h-12l-27-1h-2l-10-17 35-20z"/><path fill="#C8102E" d="m3508 2219 12 2 13 3 10 3 4 1 2 1 10 17-35 20-2-1-4-1-10-3-13-3-12-2-10 1-10-17 35-20 10-1z"/><path fill="#505456" d="m3603 2229 18 3h2l10 17-35 20h-2l-18-3-17 3-10-17 35-20 17-3z"/><path fill="#C8102E" d="m3679 1812 10 18 1 6 2 29v29l-3 48-3 24-6 24-5 21 1 21v2l-35 20-10-17v-2l-1-21 5-21 6-24 3-24 3-48v-29l-1-23-2-3v-9l35-20z"/><path fill="#505456" d="m3669 2002 10 17-2 10 1 13 2 13 2 10 8 70v23l-2 25-6 24-11 21-9 19 2 22 1 3-35 20-10-17-1-3-2-22 9-19 11-21 6-24 2-25v-23l-8-70-2-10-2-13-1-9-1-2 1-5 2-6 35-20z"/><path fill="#C8102E" d="m3660 2247 10 18 3 6 1 6-2 1 3 18 3 15 1 16 1 17 2 18v17l-4 16-3 16-1 17-4 33v17l5 13 2 3-35 20-1-1-10-17-5-15v-17l4-33 1-17 3-16 4-16v-17l-2-18-1-17-1-16-3-15-5-31v-1l35-20z"/><path fill="#505456" d="m3662 2473 10 17-2 2 1 10 2 11 2 8 6 40 3 40-2 35-7 35-8 35-5 32 4 8-35 20h-1l-4-5-10-17 5-35 8-35 7-35 2-35-3-40-6-40-2-8-2-11-1-10 2-2 35-20z"/><path fill="#C8102E" d="m3652 2720 10 17 3 9 2 7 1 4 8 29 2 15-1 15-3 20-3 23-2 21-2 16-2 6-3 4-5 6-2 14 1 14 2 14v14l-35 20-10-17v-14l-2-14-1-14 2-14 5-6 3-4 2-6 2-16 2-21 3-23 3-20 1-15-2-15-8-29-1-4-2-7-3-9 35-20z"/><path fill="#505456" d="m3931 3027 17 2 58 6 57 8 44 7 45 5 44 5 43 10 10 17-35 20-43-10-44-5-45-5-44-7-57-8-58-6-17-2-10-17 35-20z"/><path fill="#C8102E" d="m3663 2940 10 17-2 8v10l9 7 13 7 46 16 48 7 72 6 72 8 10 17-35 20-72-8-72-6-48-7-46-16-13-7-12-9-8-11-10-17v-14l2-8 35-20z"/><path fill="#505456" d="m2130 1825 10 17 1 13 1 14-4 46-7 45-1 15 1 16 3 31 3 19 5 19 1 3-35 20-10-17-1-3-5-19-3-19-3-31-1-16 1-15 7-45 4-46-1-14-1-13 35-20z"/><path fill="#C8102E" d="m2133 2048 10 17v2l1 9v12l-2 11-8 27v2l-35 20-10-17v-2l8-27 2-11v-12l-1-9v-2l35-20z"/><path fill="#505456" d="m2127 2109 10 17-1 2-7 28-2 14 6 41 15 38 1 5v2l-35 20-10-17v-2l-1-5-15-38-6-41 2-14 7-28 1-2 35-20z"/><path fill="#C8102E" d="m2141 2247 10 17 1 14-1 18-3 19-2 17-2 47 1 23 4 24 1 9 7 11-35 20h-1l-4-3-10-17-2-6-6-36-1-23 2-47 2-17 3-19 1-18-1-14 35-20z"/><path fill="#505456" d="m2174 2437 10 17-8 8-8 12-4 14 1 16 5 18 1 2-35 20-1-2-10-17-5-18-1-16 4-14 8-12 8-8 35-20z"/><path fill="#C8102E" d="m2243 1837 10 17v9l-1 14v11l2 72 1 72v14l-35 20-10-17v-14l-1-72-2-72v-11l1-14v-3l-1-2 1-4 35-20z"/><path fill="#505456" d="m2209 1925 10 17v9l-1 49-2 49v12l1 5 2 4-35 20-2-3-10-17-1-7v-12l2-49 1-49v-9l35-20z"/><path fill="#C8102E" d="m2191 1861 10 17v3l-1 10 3-2 10 17 1 20-2 22-5 21-8 18-3 4-35 20h-2l-10-17-2-7v-10l1-7 10-88v-3l35-20z"/><path fill="#505456" d="m2167 1892 10 17-4 21-6 20-1 5-35 20-10-17 1-5 6-20 4-21 35-20z"/><path fill="#C8102E" d="m2154 1969 10 17 1 12 2 15 3 10 8 13 2 5v22l4 48v4l-35 20-10-17v-4l-4-48v-22l-9-15-4-14-2-15-1-12 35-20z"/><path fill="#505456" d="m2172 2103 10 17-4 17-4 18 2 33 5 32v5l-35 20-10-17v-5l-5-32-2-33 4-18 4-17 35-20z"/><path fill="#C8102E" d="m2176 2187 10 17v7l-1 6v3l-2 19 1 19 1 4-35 20-10-17-1-4-1-19 2-19v-3l1-6v-7l35-20z"/><path fill="#505456" d="m2220 2073 10 17 7 49 2 50v37l-2 37v9l-35 20-10-17v-9l2-37v-37l-2-50-7-49 35-20zm-20 212 8 14 12-7 10 17-3 18-1 19-2 18-2 9v3l4 24 7 22 1 7-2 8-4 5-35 20-6-3-10-17-7-13-3-15v-39l8-5-6-40-2-10-3-14 35-20z"/><path fill="#C8102E" d="m2174 2257 9 16 14-8h1l10 17 1 6 1 8 1 7-8 5-1 12-2 19-4 18-35 20h-2l-10-17-2-4-2-6-1-4-5-29v-30l1-8 35-20z"/><path fill="#505456" d="m2273 2195 5 4 5 9 2 3 9-5 10 17-1 4-3 4-31 18-2 2-35 20-5-2-10-17-4-8-2-10 21-12v-1l4-4 35-20z"/><path fill="#C8102E" d="m2306 2177 4 2 3 4 10 17 2 4-35 20-2-4-3-3-4-2-10-17 35-20z"/><path fill="#505456" d="m2338 2120 2 3 10 17v16l-1 5-3 28-5 28-2 6-35 20-10-17 2-6 5-28 3-28 1-5v-14l-2-4 35-20z"/><path fill="#C8102E" d="m2546 2154 4 1 10 17 4 7v6l-7 8-35 20-1-2-25 14-4 1-1-1-10-17 11-7 4-6 3-5 3-4 5-6 5-5 35-20z"/><path fill="#505456" d="m2494 2180 10 17-5 10-4 4-35 20-5 1-2-1-10-17 13-8 4-7 35-20z"/><path fill="#C8102E" d="m2456 2187 10 17-4 8-3 5-35 20h-4l-5-7-2-1-14 8-8-3-9-7-6-1-17 10-7 3h-2l-10-17 35-20h1l17-10 7-3 7 1 9 7 6 2 14-8 4 1 2 3 13-8z"/><path fill="#505456" d="m2324 2221 7 3 10 17 1 3-3 4-1 1-35 20-10-17 1-1-5-10 35-20z"/><path fill="#C8102E" d="m2332 2274 1 1 10 17 2 11v11l-1 14-1 12-1 3-35 20h-1l-10-17 1-1 1-2 1-12 1-14v-11l-2-10-1-1 35-20z"/><path fill="#505456" d="m2536 2419 10 17 1 6v10l2 4v8l-1 1-35 20-10-17-1-4v-5l-5-9 1-1 2-5v-5l35-20z"/><path fill="#C8102E" d="M2449 2444h3l15 4 15 3 10 17-35 20-15-3-15-4h-3l-10-17 35-20z"/><path fill="#505456" d="m2414 2437 12 2 11 4 10 1 10 17-35 20-10-1-11-4-12-2-13 3-6 2h-3l-10-17 35-20h3l6-2 13-3z"/><path fill="#C8102E" d="m2351 2442 10 5 10 17-35 20-10-5-8 2-11 6-9 4h-2l-1-1-10-17 35-20 1 1h2l5-2 13-7 9-3z"/><path fill="#505456" d="m2315 2447 6 2 10 17-10 6v2h2l10 17-35 20h-2l-7-4-10-17-3-8 1-9 4-6 35-20z"/><path fill="#C8102E" d="m2306 2422 10 17-1 1-2 3 2 9 5 7 10 17 5 11-35 20-10-17-2-4-7-11-10-17-3-11 2-3 35-20 1-1z"/><path fill="#505456" d="m2306 2426 10 17-17 17-19 15-35 20-2 1h-2l-10-17 5-3 17-14 17-17 35-20z"/><path fill="#C8102E" d="M2224 2426h8l8 1 4 6 10 17 1 10 10-1 10 17-35 20-12 1-4-3-10-17-3-7-1-6h-11l-10-17 35-20z"/><path fill="#505456" d="m2713 1894 2 1 10 17 1 4-35 20-3-5-7 2-3 1-10-17 35-20 3-1 7-2z"/><path fill="#C8102E" d="M2648 1914h17l10 17-35 20h-6l-22 13-10-17v-2l2-6 4-5 35-20 5-1z"/><path fill="#505456" d="m2633 1931 10 17-11 32-5 34 1 36v36l-2 63-6 62-1 5-35 20-10-17 1-5 6-62 2-63v-36l-1-36 5-34 11-32 35-20z"/><path fill="#C8102E" d="m2597 2180 10 17 1 3 9 15-6 4 3 17 7 40v21l-10 18-8 7-1 4 12 24 4 18-2 39v8l-35 20-10-17v-8l2-39-4-18-12-24 1-4 8-7 10-18v-21l-7-40-7-38 35-20z"/><path fill="#505456" d="m2609 2417 10 17 4 10 2 14v14l-2 11-8 18-5 19 1 18-1 18-1 2-35 20-10-17 1-2 1-18-1-18 5-19 8-18 2-11v-14l-2-14-4-10 35-20z"/><path fill="#C8102E" d="m2341 1863 10 17v16l-1 2-35 20-4-1-10-17 6-3v-14l35-20z"/><path fill="#505456" d="M2492 1773h2l10 17-35 20h-2l-10-17 35-20z"/><path fill="#C8102E" d="m3232 2067 10 17-1 3v16l4 79v111l-1 16-4 14-35 20-10-17 4-14 1-16v-111l-4-79v-16l1-3 35-20z"/><path fill="#505456" d="m2801 2047 10 17 1 1 2 7-5 3v16l2 53 6 106-1 53-2 26-2 28-1 17-35 20-10-17 1-17 2-28 2-26 1-53-6-106-2-53v-14l1-8 2-5 35-20z"/><path fill="#C8102E" d="m2801 2357 10 17-2 75 2 75v8l-35 20-10-17v-8l-2-75 2-75 35-20z"/><path fill="#505456" d="m2828 2049 15 1 15 2 14 1 40-1 40 1 81 3 43 1h51l10 17-35 20h-51l-43-1-81-3-40-1-40 1-14-1-15-2-15-1-13 3-10-17 35-20 13-3z"/><path fill="#C8102E" d="m3127 2058 46 2 46-1 9 1h9l10 17-35 20h-8l-9-1-46 1-46-2-10-17 35-20z"/><path fill="#505456" d="m2873 2076 10 17-6 69 1 70 3 70 1 69v15l1 24-35 20-10-17-1-24v-15l-1-69-3-70-1-70 6-69 35-20z"/><path fill="#C8102E" d="m2872 2393 10 17-1 50-6 100-1 50 1 50-1 52-2 21-35 20-10-17 2-21 1-52-1-50 1-50 6-100 1-50 35-20z"/><path fill="#505456" d="m2863 2715 10 17-7 74-2 37 1 36 1 8-35 20-10-17-1-8-1-36 2-37 7-74 35-20z"/><path fill="#C8102E" d="m2866 2846 10 17-1 1-1 4-2 15-2 18-1 14-1 23 1 3-35 20-10-17-1-3 1-23 1-14 2-18 2-15 1-4 1-1 35-20z"/><path fill="#505456" d="m2919 2690 10 17-2 19-6 52-9 49-4 32v32l3 64 4 34 1 17-2 16-35 20-10-17 2-16-1-17-4-34-3-64v-32l4-32 9-49 6-52 2-19 35-20z"/><path fill="#C8102E" d="m2917 2379 10 17 1 14 1 9 5 75v75l-2 70-3 70-35 20-10-17 3-70 2-70v-75l-5-75-1-9-1-14 35-20z"/><path fill="#505456" d="m2921 2077 10 17v4l-6 31-4 31-3 47-1 47 6 71 4 71-35 20-10-17-4-71-6-71 1-47 3-47 4-31 6-31v-4l35-20zm21-27 6 8 10 17 2 12v25l14 114 5 58 1 60-1 15-1 17-35 20-10-17 1-17 1-15-1-60-5-58-14-114v-25l-2-9-6-10 35-20z"/><path fill="#C8102E" d="m2969 2358 10 17-7 75-1 12-35 20-10-17 1-12 7-75 35-20z"/><path fill="#505456" d="m2969 2400 10 17 1 37-2 37-10 73-3 20-2 9-35 20-10-17 2-9 3-20 10-73 2-37-1-37 35-20z"/><path fill="#C8102E" d="m2953 2597 10 17-1 6-1 35 6 72-1 36v6l-35 20-10-17v-6l1-36-6-72 1-27-3-5 3-9 35-20h1z"/><path fill="#505456" d="m2956 2753 10 17-1 39 3 38v2l-35 20-10-17v-2l-3-38 1-39 35-20z"/><path fill="#C8102E" d="m2965 2877 10 17 1 6v2l-35 20-10-17v-2l-1-6 35-20z"/><path fill="#505456" d="m2987 2628 10 17-2 19-8 87v43l4 42 5 43-3 44-2 8-3 11-3 10-3 4-35 20-10-17 3-4 3-10 3-11 2-8 3-44-5-43-4-42v-43l8-87 2-19 35-20z"/><path fill="#C8102E" d="m3007 2313 10 17 1 24v83l-7 80-7 64-6 64-35 20-10-17 6-64 7-64 7-80v-83l-1-24 35-20z"/><path fill="#505456" d="m3009 2197 10 17v11l-1 105-35 20-10-17 1-105v-11l35-20z"/><path fill="#C8102E" d="m3001 2068 10 17 1 5 4 14v4l-4 2 1 17 1 52 1 55 2 53v5l-35 20-10-17v-5l-2-53-1-55-1-52-1-22-1-19 35-20z"/><path fill="#505456" d="m3184 2085 10 17 2 68 4 69 10 138 1 8-35 20-10-17-1-8-10-138-4-69-2-68 35-20z"/><path fill="#C8102E" d="m3186 2145 10 17 2 20 3 22 6 78v40l-3 39-1 9-35 20-10-17 1-9 3-39v-40l-6-78-2-10-1-2-3-30 35-20z"/><path fill="#505456" d="m3202 2071 4 4 10 17 1 10 2 67 2 65-35 20-10-17-4-55-3-40-5-8 1-4 1-5 1-2 4-2v-12l-11 1h-5l-6 1-2 1-10-17 35-20 2-1 6-1h5l15-1z"/><path fill="#C8102E" d="m3174 2073 10 17-35 20-5 1-10-18 35-20 6-1z"/><path fill="#505456" d="m3169 2073 10 17-1 29 1 30 4 102-2 51-7 50-3 14-35 20-10-17 3-14 7-50 2-51-4-102-1-30 1-29 35-20z"/><path fill="#C8102E" d="m3167 2245 6 3 10 17 1 9-1 11-1 9-1 42 3 43 11 85 1 8-35 20-10-17-1-8-11-85-3-43 1-42 1-9 1-10-7-13 35-20z"/><path fill="#505456" d="m3191 2385 7 3 6 7 10 17 3 9v8l-1 2-35 20-10-17 1-2v-6l-6-2-10-17 35-20zm14-23 4 1 3 4 10 17 1 6-5 61-3 61-4 69-2 34 1 34v8l-2 18-35 20-10-17 2-18v-8l-1-34 2-34 4-69 3-61 4-49-10-17 3-5 35-20z"/><path fill="#C8102E" d="m3198 2660 10 17-2 20v3l-35 20-10-17v-3l2-20 35-20z"/><path fill="#505456" d="m3197 2668 10 17 2 15v2l-35 20-10-17v-2l-2-15 35-20z"/><path fill="#C8102E" d="m3198 2690 10 17v4l-35 20-10-17v-4l35-20z"/><path fill="#505456" d="m3202 2750 10 17 2 7v1l-35 20-10-18-2-7 35-20z"/><path fill="#C8102E" d="m3186 2704 10 17 1 3 4 16 5 17 8 24-35 20-10-17-8-24-5-17-4-16-1-3 35-20z"/><path fill="#505456" d="m3189 2697 10 17-1 1-1 3-35 20-10-17 1-3 1-1 35-20z"/><path fill="#C8102E" d="m3168 2647 2 1 1 1 10 17-35 20-1-1-2-1-10-17 35-20z"/><path fill="#505456" d="m3165 2509 10 17 1 3 5 28v28l-35 20-10-17v-28l-5-28-1-3 35-20z"/><path fill="#C8102E" d="m3163 2491 1 1 10 17v11l-3 2-5 46-3 54-2 54-2 28v14l-1 8-1 9-1 3-35 20-10-17v-2l1-6 2-26v-17l1-1 1-10 2-54 3-54 6-54 1-6 35-20z"/><path fill="#505456" d="m3144 2597 10 17v22l-35 20-10-17v-22l35-20z"/><path fill="#C8102E" d="m3143 2497 10 17v6l1 14-2 14-35 20-10-17 2-14-1-14v-6l35-20z"/><path fill="#505456" d="m3134 2409 10 17v4l3 18v18l-35 20-10-17v-18l-3-18v-4l35-20z"/><path fill="#C8102E" d="m3131 2268 10 17v4l2 19v37l3 19 2 18-1 18-35 20-10-17 1-18-2-18-3-19v-37l-2-19v-4l35-20z"/><path fill="#505456" d="m3132 2120 10 17v3l-1 5-35 20-10-17 1-5v-3l35-20zm-76-37 10 17-1 7-2 1-1 5 1 38 4 38 5 38 3 38v58l-2 61-1 24-35 20-10-17 1-24 2-61v-58l-3-38-5-38-4-38-1-38 1-8 2-5 35-20h1z"/><path fill="#C8102E" d="m3062 2393 10 17-9 88-10 88-3 59-2 61-1 14-35 20-10-17 1-14 2-61 3-59 10-88 9-88 35-20z"/><path fill="#505456" d="m3039 2703 10 17-5 56v76l-1 19v6l-35 20-10-17v-6l1-19v-76l5-56 35-20z"/><path fill="#C8102E" d="m3015 2675 10 17-1 7-3 59 5 59 3 33 3 17 3-1 10 17v14l-1 8-3 6-35 20-10-17 1-5-2-8-3-8-2-6-6-33-3-33-5-59 3-59 1-7 35-20z"/><path fill="#505456" d="m3024 2609 10 17-2 14-35 20-10-17 2-14 35-20z"/><path fill="#C8102E" d="m3075 2693 10 17-1 15-4 41-6 41-2 10-35 20-10-17v-16l3-2 5-33 4-41 1-15 35-20z"/><path fill="#505456" d="m3096 2460 10 17v8l-1 8-6 85-4 85-1 15-2 19-2 15-1 3-35 20-1-1-10-17 1-1 1-2 2-15 2-19 1-15 4-85 6-85 1-8v-8l35-20zm-5-363 10 17-1 1-4 7 7 50v132l6 81 1 8 1 10v10l-2 8-35 20-10-17 2-8v-10l-1-10-1-8-6-81v-132l-7-50 4-7 1-1 35-20z"/><path fill="#C8102E" d="m3099 2087 10 17 1 4 3 61 5 62 1 11-35 20-10-17-1-11-5-62-2-39-10-17 2-3 3-4 2-2 35-20z"/><path fill="#505456" d="m3127 2119 10 17-1 7v40l4 45 1 6-35 20-10-17-1-6-4-45v-40l1-7 35-20z"/><path fill="#C8102E" d="m3140 2216 10 17v8l-3 2v3l-1 9 1 32 1 3-35 20-10-17-1-3-1-32 1-9 1-10 1-4 35-20z"/><path fill="#505456" d="m3129 2086 10 17h-1l-1 2-35 20-10-17 2-2 35-20z"/><path fill="#C8102E" d="m3123 2732 10 17 4 47 3 47 1 6v4l-35 20-10-17v-4l-1-6-3-47-4-47 35-20z"/><path fill="#505456" d="m3131 2827 10 17-1 6-2 13-3 15-2 12-4 16-35 20-10-17 4-16 2-12 3-15 2-13 1-6 35-20z"/><path fill="#C8102E" d="m3124 2924 10 17v18l-2 15-1 3-35 20-10-17 1-3 2-15v-18l35-20z"/><path fill="#505456" d="m3100 2822 10 17-6 32 2 36v18l-4 16-1 2-35 20-10-17 1-2 4-16v-18l-2-36 6-32 35-20z"/><path fill="#C8102E" d="m3085 2812 10 17 1 4-1 8-5 3-5 28-8 34-1 4-35 20-10-17 1-4 8-34 7-35 2-7 35-20 2-1z"/><path fill="#505456" d="m3056 2881 10 17-2 17-10 32-2 17v1l-35 20-10-17v-1l2-17 10-32 2-17 35-20z"/><path fill="#C8102E" d="m3043 2942 10 17v3l-35 20v-1l-8 5-5 3h-2l-10-17 12-7 1-1 4-2 35-20z"/><path fill="#505456" d="m2976 2951 4 4 10 17 1 2-35 20-2-3-1-2-2-2-10-17 35-20z"/><path fill="#C8102E" d="m2919 2140 10 17 3 12 10 50 7 50 7 101 3 24 3 22-35 20-10-17-3-22-3-24-7-101-7-50-10-50-3-12 35-20z"/><path fill="#505456" d="m2976 2083 10 17-4 8-1 23 2 23 1 13-35 20-10-17-1-13-2-23 1-23 2-5 2-4 35-20h1z"/><path fill="#C8102E" d="m2979 2147 10 17v4l-2 14-2 15-2 11-35 20-10-17 2-11 2-15 2-14v-4l35-20z"/><path fill="#505456" d="m2931 2812 10 17v1l1 5-1 15-1 3-35 20-10-17 1-3 1-15-1-5v-1l35-20z"/><path fill="#C8102E" d="m3142 2459 10 17-9 28-11 28-4 10-35 20-10-17 4-10 11-28 9-28 35-20z"/><path fill="#505456" d="m3452 2010 10 17-5 7-2 12-1 13-1 10-19 80-3 26 3 26 14 51 1 15-2 17-7 31-4 11-1 3-35 20-10-17 1-3 4-11 7-31 2-17-1-15-14-51-3-26 3-26 19-80 1-10 1-13 2-12 5-7 35-20z"/><path fill="#C8102E" d="m3425 2312 10 17-5 15-2 17-2 33-1 22 1 22 3 44-2 38v20l3 18 5 10 1 12-12 50-1 4-35 20-10-17 1-4 12-50-1-12-5-10-3-18v-20l2-38-3-44-1-22 1-22 2-33 2-17 5-15 35-20z"/><path fill="#505456" d="m3415 2617 10 17-3 15v14l5 28v55l-2 37-3 36 4 34 5 34v5l-35 20-10-17v-5l-5-34-4-34 3-36 2-37v-55l-5-28v-14l3-15 35-20z"/><path fill="#C8102E" d="m3502 2692 7 1 2 3 10 17-6 8-35 20-7-12-5 1-1 1-10-17 35-20 1-1 8-2z"/><path fill="#505456" d="m3461 2712 10 17-35 20-14 5-13 7h-1l-10-17 35-20h1l13-7 14-5z"/><path fill="#C8102E" d="m3514 2450 7 2 3 3 10 17-35 20-6 1-4-6h-8l-19 6-19 2-10-3h-2l-10-17 35-20h2l10 3 19-2 19-6h8z"/><path fill="#505456" d="M3495 2218h3l10 17-35 20h-50l-10-17 35-20h47z"/><path fill="#C8102E" d="m3447 1926 10 17-35 20-10-17 35-20z"/><path fill="#505456" d="m3336 1930 8 3 7 3 6 2 10 17-35 20-6-2-7-3-8-3-10-17 35-20zm-374-488 26 3 46 4 46 2 35 2 70 8 35 2 4 1 6 2 5 2 1 2 10 17-35 20-1-2-5-2-6-2-4-1-35-2-70-8-35-2-46-2-46-4-26-3h-27l-4 1-10-17 35-20 4-1h27z"/><path fill="#C8102E" d="m2854 1435 17 2h18l21 1 21 4 10 17-35 20-21-4-21-1h-18l-17-2h-4l-5 1h-2l-10-17 35-20h2l5-1h4z"/><path fill="#505456" d="m2829 1441 10 17-2 5-3 9-3 7-18 33-10 37v39l-2 38v20l2 20v7l1 7v1l-35 20-10-17v-1l-1-7v-7l-2-20v-20l2-38v-39l10-37 18-33 3-7 3-9v-1l1-4 35-20z"/><path fill="#C8102E" d="m2800 1666 4 3 3 3 21 15 18 16 11 6 11 7 10 18-35 20-12-7-11-6-18-16-21-15-3-3-4-3-10-17 35-20z"/><path fill="#505456" d="m2861 1708 12 7 16 4 17 3 15 3 39 8 40 5 38 3 38 2 41 3 42 3h5l10 17-35 20h-5l-42-3-41-3-38-2-38-3-40-5-39-8-15-3-17-3-16-4-12-7-10-17 35-20z"/><path fill="#C8102E" d="m3185 1749 21 2h1l10 17-35 20h-2l-21-2-21 1-10-17 35-20 21-1z"/><path fill="#505456" d="m3237 1467 4 5 6 10 19 26 2 2 10 17-35 20-2-2-22-30-5-8-3-3-10-17 35-20z"/><path fill="#C8102E" d="m3272 1513 10 17v2l-1 4-1 3v1l-12 47-10 47-4 23-4 46-5 23-3 17-2 17-2 2-1 3v1l-35 20-10-18 1-3 2-2 2-17 3-17 5-23 4-46 4-23 10-47 12-47v-1l1-3 1-4v-2l35-20z"/><path fill="#505456" d="m3065 1508 11 1 37 2 35 1 19 4 16 9 12 14 10 17 7 19 2 31 2 32 2 34-8 33-1 2-1 5v2l3 5-35 20-3-2-10-17v-5l1-5 1-2 8-33-2-34-2-32-2-31-3-10-5-6-16-9-19-4-35-1-37-2-11-1-10-17 35-20z"/><path fill="#C8102E" d="m2881 1479 11 2 12 2 160 26 10 17-35 20-160-26-12-2-11-2-10-17 35-20z"/><path fill="#505456" d="M2847 1475h4l19 5 9 1 9-2 10 17-35 20-9 2-9-1-19-5h-4l-10-17 35-20z"/><path fill="#C8102E" d="m2707 1416 10 17-3 39-12 80-3 40v16l-35 20-10-17v-16l3-40 12-80 3-39 35-20z"/><path fill="#505456" d="m2732 1432 6 3 10 17 3 11 1 13v9l-9 82v3l-35 20-10-17v-3l9-82v-9l-1-12-9-16 35-20z"/><path fill="#C8102E" d="m2773 1447 10 17-3 33-9 33-24 66-2 6-35 20-10-17 2-6 24-66 9-33 3-33 35-20z"/><path fill="#505456" d="m2765 1301 5 4 18 17 16 16 9 8 6 3 10 17-35 20-6-3-9-8-16-16-18-17-5-4-10-17 35-20z"/><path fill="#C8102E" d="m2817 1303 8 7 35 34 32 37 5 6 4 5 10 17-35 20-4-5-5-6-32-37-35-34-8-7-10-17 35-20z"/><path fill="#505456" d="m2855 1295 7 8 93 96 3 3 10 17-35 20h-1l-7-5-6-10-82-84-7-8-10-17 35-20z"/><path fill="#C8102E" d="m2927 1317 2 3 32 38 33 38 10 17-35 20-33-38-32-38-2-3-10-17 35-20z"/><path fill="#505456" d="M2974 1325h2l6 4 5 4 10 17h-1l9 11 28 36 10 17-35 20-28-36-15-19-15-16-2-3-10-17 35-20z"/><path fill="#C8102E" d="m3029 1326 2 3 28 32 13 18 10 17 8 19-35 20-10-17-5-12-5-8-28-32-2-3-10-17 35-20z"/><path fill="#505456" d="m3077 1337 3 5 4 6 9 10 18 19 10 13 5 7 10 17 2 7-35 20-10-17v-1l-7-8-18-19-9-10-7-10-10-17v-1l35-20z"/><path fill="#C8102E" d="m3129 1342 2 2 30 35 10 17 23 41-35 20-10-17-13-24-29-35-2-2-10-17 35-20z"/><path fill="#505456" d="m3192 1343 4 4 44 58 10 17-35 20-44-58-4-4-10-17 35-20z"/><path fill="#C8102E" d="m3252 1360 39 39 10 17-35 20-39-39-10-17 35-20z"/><path fill="#505456" d="m3309 1375 16 16 14 16 6 10 10 17 3 9-3 5-35 20-11-3-10-17 12-7-11-13-16-16-10-17 35-20z"/><path fill="#C8102E" d="m3352 1352 3 5 19 29 6 10 10 17 8 14 3 12-2 3-35 20h-5l-10-17 7-4-3-11-3-6v-1l-21-32-10-17v-1l35-20z"/><path fill="#505456" d="m3419 1355 2 2 40 53 4 7 10 17 5 10 3 9-4 4-35 20-10-17 4-4-3-9-1-2-39-51-2-2-10-17 35-20z"/><path fill="#C8102E" d="m3475 1367 11 13 8 11 9 15 10 17 5 12-1 3-35 20-4-1-10-17 5-3-3-7-1-2-8-11-11-13-10-17 35-20z"/><path fill="#505456" d="m3543 1366 10 17v1l3 6 4 6 10 17 7 14 3 7 1 3-17 10 1 4-1 2-35 20-19-13-18-15-10-17 16-9-1-2-3-4-10-17 35-20 3 3 20-12z"/><path fill="#C8102E" d="m3566 1358 5 8 12 20 10 17 1 3 4 10v2l-35 20-8-5-8-6-10-17 10-6-1-2-5-8-10-17 35-20z"/><path fill="#505456" d="m2663 1430 10 17-1 3v3l-1 1-35 20-10-17 1-1v-5l35-20z"/><path fill="#C8102E" d="m2637 1420 10 17-1 5-4 4-35 20-2 1-10-17 2-1 4-4 1-5 35-20z"/><path fill="#505456" d="m2610 1414 4 1 4 4 10 17-35 20-4-4-4-1-10 1h-3l-10-17 35-20h3l10-1z"/><path fill="#C8102E" d="m2579 1405 10 17-3 10-1 3-35 20-10-17 1-3 3-10 35-20z"/><path fill="#505456" d="m2652 1559 10 17v3l-6 3-1 2-3 2-35 20-10-17 3-2 6-7 2-1 35-20z"/><path fill="#C8102E" d="m2597 1567 3 3 16 10 18-2 10 17-35 20-18 2-16-10-3-3-10-17 35-20z"/><path fill="#505456" d="m2684 1376 10 17h-1l-1 1v2l-35 20-10-17v-2l1-1 35-20z"/><path fill="#C8102E" d="m2757 1380 10 17v1l-4 3-35 20-5 1-10-17 35-20h2l7-4z"/><path fill="#505456" d="m2846 1380 10 17 2 4 2 3-35 20-10-17-4-7 35-20z"/><path fill="#C8102E" d="m2546 1333 3 1 10 5 7 6 5 6 10 17v4l-35 20h-8l-10-17-5-3-3-1-10-17 35-20z"/><path fill="#505456" d="m2516 1332 3 1 8 3h13l5-3 10 17-2 2-35 20-6 1h-10l-8-3-3-1-10-17 35-20z"/><path fill="#C8102E" d="m2500 1328 8 2 10 17-35 20-8-2-8 1-2 1-10-17 35-20 2-1 8-1z"/><path fill="#505456" d="m3724 1375 10 17-2 4-4 3-35 20-16 6-7 2-9 2-10-17 35-20 9-2 7-2h1l22-13z"/><path fill="#C8102E" d="M3687 1375h2l10 17-6 6-11 8-8 6-6 3-35 20-6 3-10-17 12-7 8-5 11-8-1-3 35-20 6-3z"/><path fill="#505456" d="m3788 1355 10 17-3 9-7 9-9 8-7 6-5 4-35 20-10-17 5-4 7-6 9-8 7-9 3-9 35-20z"/><path fill="#C8102E" d="m3813 1363 10 17 1 2-3 3-5 3-9 6-35 20-10-17 9-6 5-3 3-3-1-2 35-20z"/><path fill="#505456" d="m1024 2858 10 17-1 9-7 27-7 26-14 84-1 18 1 22 6 2 6-2 6-4 16-15 12-16 35-20 10 17-12 16-16 15-18 13-35 20-18 10-11 3-8-3-5-7-10-17-3-9-1-22 1-18 14-84 7-26 7-27 1-9 35-20z"/><path fill="#C8102E" d="m1015 2782 14 2 6 10 10 17-4 32-7 32-35 20-10-17 7-32 3-25-9-1-16 2-13 1-24 4-20 8-12 7-24 23-20 26-4 6-4 7-4 8-35 20-10-17 4-8 4-7 4-6 20-26 24-23 43-26 35-20 24-9 24-4 13-1 16-2z"/><path fill="#505456" d="m838 2895 10 17-13 34-6 37v37l5 36 1 2 10 7 16 1 17-7 18-8 8-3 7-7 7-10 35-20 10 17-7 10-15 15-35 20-17 9-18 6-18 8-17 7-16-1-13-9-10-17-8-18-5-36v-37l6-37 13-34 35-20z"/><path fill="#C8102E" d="m1001 2927 10 17-2 4-6 13-5 13-16 28-18 26-35 20-10-17 18-26 16-28 5-13 6-13 2-4 35-20z"/><path fill="#505456" d="m1289 2779 7 1 9 3 4 4 10 17-1 2-35 20-4 2-5-10-2-1-7-1-21 3-17 5-6 6-7 15 1 13 7 8 14 18 13 20 10 17 23 41 14 28 3 8-35 20-10-17-3-8-14-28-15-26-11-17-14-18-10-13-10-17-6-13-1-13 7-15 15-15 35-20 21-10 22-6 21-3z"/><path fill="#C8102E" d="m1287 2981 10 17 6 29-4 27-15 22-35 20-26 14-34 10-36 5-30 3-8 2-10-17 35-20 8-2 30-3 36-5 28-8 12-18 4-27-6-29 35-20z"/><path fill="#505456" d="m1459 2703 10 17 3 41 1 20-2 21-17 82-16 83-4 24-1 25v11l-35 20-10-17v-11l1-25 4-24 16-83 17-82 2-21-1-20-3-41 35-20z"/><path fill="#C8102E" d="m1536 2983 10 17-6 11-30 46-9 12-13 13-35 20-15 8h-8l-8-3-11-12-10-17-7-16-5-33 35-20 10 17 5 33 1 3 7 8 8 3 2-2 9-12 30-46 6-11 35-20z"/><path fill="#505456" d="m1376 2786 15 1 91 4 92 5h8l4-2 6 1 2 1 10 17-35 20-4 1h-15l-92-5-91-4-15-1-10-17 35-20zm354-1 17 1 16 4 13 8 10 17 8 14 2 13 1 15-1 15-5 12-22 28-27 23-35 20-31 16-17 6-16 2-4 2-8-2-9-4-10-17 35-20 11 3 11 1 16-2 17-6 2-1 21-17 22-28 5-12 1-15-1-15-2-11-11-7-16-4-17-1h-6l-10-17 35-20h6z"/><path fill="#C8102E" d="m1724 2785 10 17-33 19-20 21-16 21-14 22-9 19-7 20-6 29 2 29 6 32 9 21 3 5 4 5 10 17-35 20-4-5-12-21-10-17-9-22-6-32-2-29 6-29 7-20 9-19 14-22 16-21 23-24 35-20 30-16z"/><path fill="#505456" d="m1817 2956 10 17-5 7-41 56-11 12-14 12-35 20-33 19-17 4h-17l-15-6-12-13-10-17 35-20 12 13 15 6h17l17-4 12-11 11-12 41-56 5-7 35-20zm313-435 7 1 10 2 8 3 10 17 2 4-35 20-2-4-8-2-10-2-7-1h-54l-26 4-21 7-18 18-16 25-12 28-12 44-1 6-35 20-10-17 1-6 12-44 12-28 16-25 21-21 35-20 26-15 26-8 26-4h54z"/><path fill="#C8102E" d="m1936 2673 10 17-5 41-4 20-7 20-9 29-4 30-2 31-4 30-1 34 1 35 1 31v6l-35 20-10-17v-6l-1-31-1-35 1-34 4-30 2-31 4-30 9-29 7-20 4-20 5-41 35-20z"/><path fill="#505456" d="m2002 2977 10 17-19 11-3 5-13 24-17 20-11 9-35 20-10 2-9-5-8-11-10-17-5-12-2-12-3-25 35-20 10 17 3 25 2 12 2 6 5 3 7-8 13-24 5-9 35-20 9-5 7-1zm113-194 9 3 10 17 5 12 2 22-1 23-5 45-6 32-5 32-3 29-4 29-5 23-2 12v10l-35 20-10-17v-10l2-12 5-23 4-29 3-29 5-32 6-32 5-45 1-23-2-18-4-2-10 3-16 9-10-17 4-3 35-20 11-6 11-3z"/><path fill="#C8102E" d="m2090 2795 10 17-30 23-14 13-11 15-2 3-35 20-10-17 2-3 11-15 14-13 30-23 35-20z"/><path fill="#505456" d="m2278 2772 4 2 10 17 2 7v16l-35 20-10-17v-6l-8 3-7 5-37 32-31 37-7 10-9 15-5 13 3 6-35 20-10-17-3-6 5-13 9-15 7-10 31-37 37-32 25-18 35-20 28-12zm513 11 10 17-1 1-35 20h-3l-15 2-19 3-16 4-20 9-15 14-20 25-16 28-25 60-3 10-2 11-1 8-35 20-10-17 1-8 2-11 3-10 25-60 16-28 20-25 16-14 17-11 35-20 37-17 16-4 19-3 15-2h3z"/><path fill="#C8102E" d="m2602 2977 10 17 2 20 6 21 6 13 4 6 10 9 11 4 25-1 22-8 22-18 26-31 4-8 35-20 10 17-4 8-26 31-31 25-35 20-22 12-25 10-25 1-11-4-10-9-11-17-10-17-9-20-6-21-2-20 35-20z"/><path fill="#505456" d="m2477 2788 13 3 14 9 11 14 10 17 13 32 1 28-2 28-2 18-4 19-5 17-3 12-35 20-10-17 3-12 5-17 4-19 2-18 2-28-1-28-9-22-5-6-14-9-13-3h-13l-12 4-19 17-4 4-35 20-10-17 4-4 20-17 22-15 35-20 24-9h13z"/><path fill="#C8102E" d="m2394 2833 10 17-16 16-12 18-18 41-12 35-8 38 1 37 5 15 1 1 10 12 11 9 13 5 16-2 4-1 6-1 10 17-35 20-6 1-4 1-16 2-13-5-11-9-10-12-10-16-10-17-6-17-1-37 8-38 12-35 18-41 12-18 16-16 35-20z"/><path fill="#505456" d="m2527 2942 10 17-4 13-9 22-20 31-26 28-30 23-35 20-34 14-10-17 35-20 16-7 13-10 26-28 20-31 9-22 4-13 35-20z"/><path stroke="#C8102E" stroke-width="20" d="M2554 2636c-5 24 0 56 0 79v4"/><path stroke="#505456" stroke-width="20" d="M2644 2672c1 9-18 8-24 7-23-10-16-44 5-52 29-10 21 37 15 50-8 14-18 28-25 44l-3 4"/><path stroke="#C8102E" stroke-width="20" d="M2733 2634c10-10-12-9-14-8-17-2-20-4-24 14-3 11-3 23-9 33 0 0 11-2 14-1 13 4 42 6 25 27-9 10-25 17-40 16h-4"/><path stroke="#505456" stroke-width="20" d="M2765 2641c10-10 15-27 32-13 18 12 5 38-15 38 4 0 46 15 21 37a51 51 0 0 1-46 8c-3-1-4-3-7-3"/><path stroke="#C8102E" stroke-width="20" d="M2047 2638v67"/><path stroke="#505456" stroke-width="20" d="M2043 2631c31-11 83 15 61 53-14 24-54 31-79 31h-7"/><path stroke="#C8102E" stroke-width="20" d="M2157 2680s27 6 41 0c27-11-7-26-21-25-41 5-33 75 11 59 2-1 5-3 8-3l3-2"/><path stroke="#505456" stroke-width="20" d="M2239 2666c-2-4-4 18-4 21-3 19-1 35-1 55"/><path stroke="#C8102E" stroke-width="20" d="M2245 2657s0 0 0 0c-4-4 14-8 15-6 25-1 36 26 16 44-8 9-25 12-35 2l-1-2"/><path stroke="#505456" stroke-width="20" d="M2327 2654c-1 7-7 41 3 54 13 18 36 7 46-4 11-10 9-28 8-43l-1-2"/><path stroke="#C8102E" stroke-width="20" d="M2410 2655v48c1 4 1 9-1 14"/><path stroke="#505456" stroke-width="20" d="M2410 2627s0 0 0 0"/><path stroke="#C8102E" stroke-width="20" d="M2467 2657c2 0 7 0 10-2 1-7-17-6-20-7-21 3-23 28-6 38 18 11 23 35-4 37-2-1-6 1-7 2l-2 1"/><path fill="#505456" d="m619 2649 39 4 37 8 13 3 16 4 13 6 4 4 10 17 1 6-35 20-6-11-12-5-16-4-13-3-37-8-39-4-40 1-37 5-21 6-6 3-15 15-6 8-35 20-10-17 6-8 16-16 19-13 35-20 21-10 21-6 37-5 40-1z"/><path fill="#C8102E" d="m459 2706 10 17-26 44-15 50-6 53 1 51 6 46 15 45 4 8-35 20-10-17-4-8-15-45-6-46-1-51 6-53 15-50 26-44 35-20z"/><path fill="#505456" d="m437 3004 18 27 22 25 26 19 30 10h26l27-6 27-9 21-9 7-7 8-14 4-16 35-20 10 17-4 16-8 14-12 11-35 20-27 14-24 10-27 9-27 6h-26l-30-10-26-19-22-25-18-27-10-17 35-20zm739-1223 26 1 46 3 92 2 46 3 7 1h21l17 10-10 17h-21l-7-1-46-3-92-2-46-3-26-1-52 2-26-1-17-10 10-17 26 1 52-2z"/><path fill="#C8102E" d="m1415 1791 67 3 67 6 36 3h37l48-2 49-1 7-1 17 10-10 17-7 1-49 1-48 2h-37l-36-3-67-6-67-3-17-10 10-17z"/><path fill="#505456" d="m1775 1797 24 3 24 7 9 3 2 1 17 10-10 17-2-1-9-3-24-7-24-3-49 1-17-10 10-17 49-1z"/><path fill="#C8102E" d="m1832 1810 17 10-10 17-3 3-28 11-30 3-59 2-58 9-25 4-25 7-4 3-5 2-17-10 10-17 5-2 4-3 25-7 25-4 58-9 59-2 30-3 28-11 3-3z"/><path fill="#505456" d="m1617 1858 6 1 8 5 4 1 10 3 43 8 43 5 36 4 14 3h2l17 10-10 17h-2l-14-3-36-4-43-5-43-8-10-3-13-4-7-3-17-10 10-17h1z"/><path fill="#C8102E" d="m1605 1865 6 1 11 4 44 14 42 19 13 8 17 10 12 9 1 2-10 17-17-10-1-2-8-6-43-19-44-14-11-4-6-1-5 2-17-10 10-17 5-2z"/><path fill="#505456" d="M1571 1931h6l13 1 73 4 74-2 9-3v-1l17 10-10 17v1l-9 3-74 2-73-4-13-1h-6l-17-10 10-17z"/><path fill="#C8102E" d="M1465 1888h4l20 7 60 30 21 7 22 3h4l17 10-10 17h-4l-22-3-21-7-60-30-20-7h-4l-17-10 10-17z"/><path fill="#505456" d="m1441 1825 6 2 138 42 7 2 17 10-10 17-7-2-69-21-66-20-1 2-5-3-17-10-3-2 10-17h1z"/><path fill="#C8102E" d="m1617 1944 17 10 2 4 3 2 8 3 15 2h2l17 10-10 17h-2l-15-2-8-3-11-5-17-10-9-6-2-5 10-17z"/><path fill="#505456" d="m1385 1943 16 7 16 8 15 6 50 15 53 8 53 2 52-5 11-3 15-5h1l6-10 4 2 17 10-1 3-10 17-10 6-15 5-11 3-52 5-53-2-53-8-50-15-15-6-16-8-16-7-17-10 10-17z"/><path fill="#C8102E" d="m1354 1930 8 3 23 11 17 10-10 17-23-11-8-3-17-10 10-17z"/><path fill="#505456" d="m1436 1992 8 3 6 3 7 4 4 1 8 1 42 4 42-4 4-1 17 10-10 17-4 1-42 4-42-4-8-1-10-2-9-3-17-10-6-5 10-18z"/><path fill="#C8102E" d="m1303 1960 17 10 6 5 37 29 43 20 19 8 21 9 21 5 19-3 12-9 2-1 17 10-10 17-2 1-12 9-19 3-21-5-21-9-19-8-52-24-17-10-45-35-6-5 10-17z"/><path fill="#505456" d="m1261 1956 17 10 80 66 9 7 9 5 41 11 11-1 3-1 17 10-10 17-3 1-11 1-41-11-19-9-17-10-17-12-80-66 10-17z"/><path fill="#C8102E" d="m1206 1965 17 10 6 5-1 2 29 27 33 25 21 13 39 15 11 4 3-1 7-12 17 10v1l-3 5-3 6-10 17-4 1-11-4-40-16-17-10-37-23-33-25-30-28-4-4v-1l10-17z"/><path fill="#505456" d="m1167 1974 17 10 3 3 49 41 50 41 8 6 12 3 6-2 5-5 4-5 1-1 17 10-10 17-1 1-4 5-5 5-6 2-14-3-17-10-13-8-10-8-50-41-28-23-1 1-17-10-5-9-1-2 10-17z"/><path fill="#C8102E" d="m1116 1966 17 10 4 5 7 11 6 9 26 28 28 26 18 12 32 12 13 7 7 4 8 2 18 10-10 17-9-2-7-4-13-7-36-14-17-10-32-21-28-26-26-28-6-9-2-4-6-4-2-6v-2l10-17z"/><path fill="#505456" d="m1092 1998 17 10 3 2 9 12 11 16 9 12 13 13 16 12 17 10 8 4 11 3 20 2 4-2 17 10-10 17-4 2-20-2-11-3-9-4-17-10-33-20-16-12-13-13-9-12-11-16-8-10-5-3 10-17 1-1z"/><path fill="#C8102E" d="m1152 2069 17 10-2 5-10 17-10 11-15 8-16 1-11-6-6 9-5 6-6 3-9-2-17-10-5-7-4-17v-2l10-17 17 10v2l4 15 1-1v-1l10-17 14 8 15-1 11-6 7-11 7-6h2z"/><path fill="#505456" d="M1016 1999h2l17 10 9 6 11 11 7 11 4 18 5 17 2 4-10 17-17-10-2-4-5-17-4-18-7-11-8-8-12-7-1-2 10-17z"/><path fill="#C8102E" d="m967 1985 17 10 2 4 19 40 7 19 10 40 8 18 3 4h2l11-5 13-13 17 10v3l-2 5-2 4-10 17-5-3-4 4-11 5-12-3-17-10-11-12-8-18-10-40-7-19-19-40-2-4 10-17z"/><path fill="#505456" d="m949 2069 17 10 4 6 1 1 8 24 1 4-10 17-17-10-1-4-3-9-14-8 2-8 2-6 10-17h1z"/><path fill="#C8102E" d="M978 2125h5l17 10 10 8 7 12 3 11v2l-10 17-17-10v-2l-3-11-6-10-5 3-17-10 10-17 5-3z"/><path fill="#505456" d="m1024 2130 17 10-10 17-9 9-1 2-10 17-17-10 5-10 10-17 7-10 8-8z"/><path fill="#C8102E" d="m1084 1778 37 2h8l9 2 17 10-10 17-9-2h-8l-37-2h-37l-36 4-35 10-11 4-17-10 10-17 11-4 35-10 36-4h37z"/><path fill="#505456" d="m1009 1790 17 10-10 17-19 2-20 7-36 19-46 33-41 39-8 8-17-10 10-17 8-8 41-39 46-33 36-19 20-7 19-2z"/><path fill="#C8102E" d="m910 1848 17 10-4 6-10 17-3-2-12 9-62 42-29 24-27 27-5 6-6 6-17-10 10-17 6-6 5-6 27-27 29-24 62-42 16-12 4-2z"/><path fill="#505456" d="m1086 2277 17 10 3 11v15l-10 17-17-10v-15l-3-11 10-17z"/><path fill="#C8102E" d="m995 2246 4 2 27 13 17 10 27 20 28 20-10 17-17-10-28-20-20-15-17-8-4-2-17-10 10-17z"/><path fill="#505456" d="m967 2201 17 10 2 2 15 16 9 20-10 17-17-10-9-20-15-16-2-2 10-17z"/><path fill="#C8102E" d="m945 2230 18 3 17 10 11 9-10 17-15-9-13-2-19 1-15 2-7 2-3 1-17-10 10-17 3-1 7-2 15-2 19-1z"/><path fill="#505456" d="m832 2204 15 2 17 10 12 9 1 1 17 8 17 10-10 17-19-9-10-5-17-10-7-6-10-1h-3l-17-10 10-17h3z"/><path fill="#C8102E" d="m766 2184 11 1 9 4 17 10 2 6 1 7 3 6 13 4 24 3 17 10-10 17-24-3-17-5-12-7-17-10-4-8-1-7-6-1h-3l-17-10 10-17h3z"/><path fill="#505456" d="m770 2216 17 10v3l3-5 17 10-2 5-3 7-10 17-5 5h-6l-17-10-2-4-2-14v-7l10-17z"/><path fill="#C8102E" d="m758 2203 17 10-7 23-4 11-10 17-7 10-7 5h-6l-17-10-8-10-4-15-2-12v-3l10-17 17 10v3l2 12 3 13 4-3 1-4 7-23 10-17z"/><path fill="#505456" d="m676 2215 17 10v4l-1 13 1 17 2-1 1-2 2-10-3-7 10-17 17 10 3 7-2 10-5 11-10 17-6 8-8 4-5-1-17-10-3-5-2-8-1-18 1-13v-4l10-17z"/><path fill="#C8102E" d="m651 2220 17 10 1 2 1 8-1 8-4 15 1 9 4-7 17 10 1 2-2 8-1 2-10 17-4 4h-4l-17-10-7-7-5-12-1-10 4-15 1-8-1-8-1-2 10-17z"/><path fill="#505456" d="m613 2228 17 10v2l-2 12-2 15 1 12 4-1 2-2 17 10-10 17-2 2-5 1h-8l-17-10-8-9-2-14 2-15 2-12v-2l10-17z"/><path fill="#C8102E" d="m576 2223 17 10-1 3v24l8 18 13 8-10 17-2 1-5-1-17-10-5-4-10-22v-24l1-3 10-17z"/><path fill="#505456" d="m547 2236 17 10 1 5v11l2 11 1 3 12 7-10 17-8-1-17-10-2-3-2-6-2-11v-11l-1-5 10-17zm228-51 23 1 12 7 14 6 4 1 17 10-10 17-4-1-14-6-12-7-23-1-21 8-12 6-12 4-12 2-12 4-30 6-30 2-34 3-34 6-7 1-10 2h-10l-7-2h-1l-17-10 10-17h6l5 3h7l10-2 7-1 34-6 34-3 30-2 30-6 12-4 12-2 12-4 12-6 21-8z"/><path fill="#C8102E" d="m828 2200 10 2 3 1 17 10-10 17-3-1-10-2-17-10 10-17z"/><path fill="#505456" d="m516 2245 17 10 5 3 15 10-10 17h-5l-7-3-17-10-6-6-2-4 10-17z"/><path fill="#C8102E" d="m509 2255 17 10-10 17h-5l-10 4-11 5-8 4-20 5-20 2h-3l-17-10 10-17h3l20-2 20-5 8-4 11-5 10-4h5z"/><path fill="#505456" d="m523 2188 17 10-10 17-8 3-9 6-9 7-7 6-33 17-35 14-22 7-21 9-6 4-17-10 10-17 6-4 21-9 22-7 35-14 33-17 7-6 9-7 9-6 8-3z"/><path fill="#C8102E" d="m424 2292 17 10-10 17-19 3-17 11-14 15-12 15-2 2-17-10 10-17 2-2 12-15 14-15 17-11 19-3z"/><path fill="#505456" d="M575 2185h7l17 10-10 17h-6l-18-10 10-17z"/><path fill="#C8102E" d="m536 2149 1 1 5 1 17 10-10 17-5-1-1-1-17-10 10-17z"/><path fill="#505456" d="m624 2167 9 1 6 1 5 1 17 10-10 17-5-1-6-1-9-1h-8l-3 3-17-10 10-17 3-3h8z"/><path fill="#C8102E" d="M719 2176h1l17 10-10 17-2 3-17-10 1-3 10-17z"/><path fill="#505456" d="m676 2178 17 10-10 17-1 1-17-10v-1l10-17z"/><path fill="#C8102E" d="m734 2059 17 10-1 6 1 6 1 4-10 17-17-10-1-4-1-6 1-6 10-17z"/><path fill="#505456" d="m773 1938 17 10-10 17-2 3-5 4-9 6 1 7 5 8 25 28 27 26 34 22 37 20 55 25 6 3 17 10 2 1-10 17-8-4-55-25-45-24-17-10-43-28-27-26-25-28-5-8-1-8 3-8 10-17 6-8 4-3 6-4 5-4 2-3z"/><path fill="#C8102E" d="m956 2119 7 4 17 10 6 6 1 2-10 17-17-10-1-2-6-5-8-5 10-17z"/><path fill="#505456" d="m868 1938 17 10 2 3 6 19 3 20 2 19 9 5 7 10 5 12 4 13 3 11 2 6 2 9 1 8-2 4-10 17-11-6-1 1-17-10-3-3-5-7-3-7-5-38-3-38-3-20-6-19-2-3 10-17z"/><path fill="#C8102E" d="m847 1936 17 10 7 7 4 9 1 4-10 17-17-10-1-4-2-5-1 1-17-10 10-17 1-1h9z"/><path fill="#505456" d="m836 1946 17 10v3l-2 8-5 15-8 19-10 17-1 1-3 9 5 8-10 18-17-10-6-9 3-10 10-17 1-2 7-17 5-15 2-8v-3l10-17zm12 18 17 10 5 4 4 9 3 11 2 8 3 37 2 18 6 18-10 17-17-10-4-11-12-7-7-7 3-6-7-25-1-32 2-6 5-8-2-2 10-17z"/><path fill="#C8102E" d="m827 2007 17 10 20 35-10 17-4-2-4 6-17-10-7-5-5-6-5-5 4-6v-5l1-7v-4l10-17z"/><path fill="#505456" d="m999 1884 17 10 12 8 28 20 14 9 3 1 5 2 17 10-10 17-5-2-5-3-17-10-29-18-28-20-12-8 10-17z"/><path fill="#C8102E" d="m982 1914 17 10 10 6 41 26 6 5 5 4 1 3-10 17-6 2-17-10 4-6-3-3-6-5-41-26-10-6 10-17z"/><path fill="#505456" d="m941 1844 17 10v1l-1 1-1 6-3 7-3 8-2 5-10 17-17-10 2-5 3-8 3-7 1-7 10-17z"/><path fill="#C8102E" d="m952 1910 17 10-1 6-3 9-3 7-2 4-10 17-17-10 2-4 3-7 3-9 1-4-3-2 10-17 3-1z"/><path fill="#505456" d="m1220 1898 17 10 5 3 4 2 17 10-10 17-7-4-17-10-1-1v1l-17-10v-1l10-17z"/><path fill="#C8102E" d="m1286 1826 17 10 1 1 5 4 13 10 7 5-10 17-17-10-7-5-13-10-5-4-1-1 10-17z"/><path fill="#505456" d="m1362 1894 6 1 17 10-10 17-6-1h-1l-1 2-17-10-1-2 10-17h3z"/><path fill="#C8102E" d="m1442 1874 17 10-10 17-2 2-3 5-4 6-2 4-3 4-17-10 10-17 3-4 2-4 4-6 3-5 2-2z"/><path fill="#505456" d="m1406 1916 17 10 2 5 10 6-10 17-3-1-6-4-17-10-2-6 10-17z"/><path fill="#C8102E" d="m1465 1922 18 7 17 10 5 2 17 10-10 17-5-2-17-10-18-7-17-10 10-17z"/><path fill="#505456" d="m656 1975 17 10-10 17-35 17-35 12-37 7-38 1h-6l-17-10 10-17h6l38-1 37-7 35-12 35-17z"/><path fill="#C8102E" d="m487 2024 13 8 17 10-10 17-13-8-19 2-19 7-15 7-22 14-21 16-21 14-24 10-43 7-21 3-21 6-6 2-7 1-17-10 10-17 7-1 6-2 21-6 21-3 43-7 24-10 21-14 21-16 22-14 15-7 19-7 19-2z"/><path fill="#505456" d="m354 2059 16 10h4l17 10-10 17h-1l-13-1-17-10-5-3-1-6 10-17z"/><path fill="#C8102E" d="m249 2111 17 10-3 5-10 17-3 2-9 15-4 4-6 4-16 8-3 1-17-10 10-17 3-1 16-8 1-1 10-17 6-4 5-3 3-6z"/><path fill="#505456" d="m193 2195 17 10-10 17-20 31-10 15v5l4 4 3 5-2 7-10 17-15 21-9 13-8 17-5 25 3 12 7 11 7 12 3 13 3 8 8 6 9 6 8 7 4 5 2 3-10 17-17-10-2-3-4-5-8-6-9-6-8-6-3-8-3-13-7-12-7-11-3-12 5-25 12-24 10-17 16-23 7-9 1-2-3-5-4-4v-6l10-17 40-62z"/><path fill="#C8102E" d="m302 2370 17 10-10 17-1 1-13 12-21 15-7 8-7 7-7 2h-12l-9 3-17 15-17 12-8 6-6 7-5 7-3-1-17-10-2-5-3-6 10-17 11 7 1-2 6-7 8-6 17-12 17-15 9-3h12l7-2 7-7 7-8 21-15 13-12h1z"/><path fill="#505456" d="m323 2356 17 10v1l-10 17-3 4-5 6-6 4-5-1-17-10 10-17 5 1 6-4 5-5 4-6z"/><path fill="#C8102E" d="m324 2279 17 10-10 17-2 2-11 14-5 6-3 3-17-10 10-17 3-3 5-6 11-14 2-2z"/><path fill="#505456" d="m357 2252 17 10-8 13-10 17-4-2-17-10 1-4 10-17 9-7 2-1z"/><path fill="#C8102E" d="m366 2229 17 10v2l-1 10-10 17-5 8-17-10 5-8 1-10v-2l10-17z"/><path fill="#505456" d="m378 2181 17 10 2 5-6 11-1 3-10 17-13-8-3 2-24 25-24 23-6 1-14-8h-6l-15 11-12 15-22 31-1 2-17-10 10-17 1-2 22-31 12-15 15-11 8-1 13 8 4-1 24-23 24-25 6-4 8-6 7-3z"/><path fill="#C8102E" d="m232 2304 17 10v5l-10 17-17-10v-5l10-17z"/><path fill="#505456" d="m278 2271 17 10-10 17-3 3-9 11-9 10-17-10 10-17 9-10 9-11 3-3z"/><path fill="#C8102E" d="m316 2240 17 10 7 6 9 6-10 17-2 2-6 5-6 2h-3l-17-10 1-4 2-3-6 3-5 4-1 4 3 2-10 17-3-1-17-10 2-7 4-8 10-17 3-5 7-6 10-6 10-2z"/><path fill="#505456" d="m383 2195 17 10-10 17h-1l-15 6-8 7-6 12-10 17-17-10 14-27 10-17 10-10 15-6h1z"/><path fill="#C8102E" d="m209 2356 17 10-10 17-1 1-4 3-17-10 10-17 5-5z"/><path fill="#505456" d="m239 2318 17 10-2 3-1 2-10 17-17-10 1-2 2-3 10-17z"/><path fill="#C8102E" d="m275 2296 17 10-1 4-10 26-7 14-3 8v6l-10 17-17-10v-6l3-8 7-14 10-26 1-4 10-17z"/><path fill="#505456" d="m204 2183 5 1 9 1h18l16 1h3l17 10-10 17h-3l-16-1h-18l-9-1-5-1-17-10 10-17z"/><path fill="#C8102E" d="m198 2154 17 10-4 7v8l2 4-10 17-17-10-2-4v-4l1-6 2-5 10-17h2z"/><path fill="#505456" d="m329 2298 17 10v3l-1 7-1 6-1 9v11l-10 17-17-10v-11l1-9 1-6 1-7v-3l10-17z"/><path fill="#C8102E" d="m376 2258 17 10-10 17h-3l-13 4-12 8-1 1-2 7-10 17-17-10 4-13 10-17 9-12 12-8 13-4h3z"/><path fill="#505456" d="m354 2265 17 10-10 17-3 2-8 6-7 11-17-10 6-10 10-17 10-7 3-2z"/><path fill="#C8102E" d="m488 2222 17 10-10 17-2 1-9 7-9 10-6 8-1 1-17-10 10-17 1-1 6-8 9-10 9-7 2-1z"/><path fill="#505456" d="m529 2186 17 10-1 3-10 17-10 16-8 8-9 4-4 1-17-10 10-17 4-1 9-4 8-8 8-12 4-7z"/><path fill="#C8102E" d="m447 2193 17 10-10 17-8 4-4 3-6 5-5 9-17-10v-4l10-17 5-5 6-5 4-3 8-4z"/><path fill="#505456" d="m394 2151 3 1 17 10-10 17-3-1h-1l-17-10 10-17h1z"/><path fill="#C8102E" d="m317 2125 6 3 17 10-10 17-4-2-17-10-1-1 10-17z"/><path fill="#505456" d="m445 2243 17 10-5 14-10 17-13 9-16 6-14 3-8 6-5 8-1 2-17-10 1-2 10-17 5-9 8-6 14-3 16-6 8-6 10-17z"/><path fill="#C8102E" d="m396 2268 7 2 17 10-10 17-7-2-9 3-9 5-6 4-12 10-9 15-17-10v-2l10-17 8-13 12-10 6-4 9-5 9-3z"/><path fill="#505456" d="m365 2289 17 10-10 17h-6v2l-3 7v1l-10 17-17-10v-1l3-7 5-10 10-17 6-8h6z"/><path fill="#C8102E" d="m375 2291 17 10v1l-10 17-3 4-6 9-10 13-2 3-17-10 10-17 2-3 10-13 4-6 5-8z"/><path fill="#505456" d="m355 2316 17 10-10 20-2 10-1 13 1 11 5 10 1 1-10 17-17-10-1-1-5-10-1-11 1-13 2-10 10-20 10-17z"/><path fill="#C8102E" d="m359 2348 17 10 2 26v26l-3 6-10 17-4 6-1 2-17-10 7-12 1-2v-26l-2-26 10-17z"/><path fill="#505456" d="m365 2406 17 10-4 6-1 8 1 10 2 7 5 14 3 13-1 13-7 14-10 17-25 37-24 37-3 6-17-10 10-17 3-6 24-38 18-26 4-8 1-13-3-13-5-14-2-7-1-10 1-9 10-17 4-5z"/><path fill="#C8102E" d="m322 2372 17 10-3 8-10 17-6 9-8 9v5l3 4 1 5-4 7-10 17-6 7-4 5-18 22-1 1-1 5h1l17 10 1 4-1 6-1 4 16 10 2 3-1 6 2 10 5 11v1l-10 17-17-10v-1l-5-11-2-8-17-10-2-5 1-4 1-2-16-10-2-4 3-16 8-15 10-17 22-25 4-4-1-3-3-4v-5l5-11 10-17 11-13 1-2 10-17z"/><path fill="#505456" d="m310 2490 17 10-1 1-10 17-1 2v1l-10 17-17-10v-1l3-6 8-14 10-17z"/><path fill="#C8102E" d="m325 2459 17 10-6 12-1 4-2 6-3 6-10 17-2 3-17-10 4-6 1-2 2-6 1-4 5-11 10-17 1-1z"/><path fill="#505456" d="m341 2413 17 10v3l-4 13-1 6 4 5-10 17-17-10-4-5 1-6 4-13v-3l10-17z"/><path fill="#C8102E" d="m353 2477 17 10-10 17-1 1-3 1-9 4-9 7-7 6-2 2-17-10 10-17 2-2 7-6 9-7 9-4 3-1 1-1z"/><path fill="#505456" d="M1007 2163h1l17 10 1 1-10 17-17-10-1-1h-1l10-17z"/><path fill="#C8102E" d="m1010 2163 17 10 1 2 8 20 12 18 26 25 24 27 3 5 4 8 3 8v5l-10 17-17-10v-5l-3-8-4-8-3-5-24-27-26-25-12-18-8-20-1-2 10-17z"/><path fill="#505456" d="m959 2154 17 10 5 6 6 7 3 4 2 4-10 17-17-10-2-4-3-4-6-7-5-6 10-17z"/><path fill="#C8102E" d="m763 1718 17 10-10 17-6 6-5 11-6 11-17 40-11 43-2 18v20l2 20 3 18 12 24 16 13 7 4-10 17h-2l-17-10-21-17-12-24-3-18-2-20v-20l2-18 11-43 17-40 6-11 6-14 7-13 10-17 8-8z"/><path fill="#505456" d="m607 1807 17 10-10 17-4 3-8 8-34 35-32 37-77 86 14 8-10 17-10-1-8-2h-5l-17-10 10-17h1l2-3 2-4 5-6 85-96 32-37 34-35 8-8 4-3z"/><path fill="#C8102E" d="m746 1720 5 2 17 10v1l-10 17-2-1-3-1h-5l-19 3-19 8-32 22-64 55-17-10 10-17 64-55 32-22 19-8 19-3h5z"/><path fill="#505456" d="m502 1813 17 10-10 17-2 3-7 8-10 12-2 4-20 34-12 14-26 28-6 10-13 26-10 17-18 24-15 18-5 10-2 12 1 12 1 1 3 2-10 17h-2l-17-10-2-3-1-12 2-12 11-22 10-17 19-23 13-17 8-17 10-17 16-26 26-28 12-14 1-2 8-15 10-17 13-15 7-8 2-3z"/><path fill="#C8102E" d="m704 1623 17 10-10 17-2 3-3 3-3 2-23 13-26 4-8 2-7 4-6 4-7 2-10 2-12 5v1l5 13-3 13-6 11-10 17-8 7-20 10-17 12-6 6-6 16-5 12-10 17-8 11-17-10 10-17 1-2 1-3 9-24 10-17 6-7 8-8 17-12 20-10 4-4 2-10-5-13 1-10 10-17 9-8 12-5 10-2 7-2 6-4 7-4 8-2 26-4 23-13 3-2 3-3 2-3z"/><path fill="#505456" d="m971 1483 17 10-10 17h-3l-14 3-13 6-37 31-52 33-28 13-29 7-29 2-14 3-12 8-36 33-17-10 10-17 36-33 12-8 14-3 29-2 29-7 28-13 52-33 37-31 13-6 14-3h3z"/><path fill="#C8102E" d="m1272 1401 17 10-10 17-11 4-36 13-36 10-40 13-40 14-40 13-41 9-29 2-29 3-17-10 10-17 29-3 29-2 41-9 40-13 40-14 40-13 36-10 36-13 11-4z"/><path fill="#505456" d="m1489 1298 17 10-10 17-2 1-16 9-17 8-18 10-18 11-92 42-55 21-17-10 10-17 55-21 92-42 18-11 18-10 17-8 16-9 2-1zm8 0 17 10-10 17-15 3-16 8-16 9-14 9-35 22 42-6h7l8 1 17 10-10 17-11 11-22 9-28 7-17-10 6-11h-10l-17-10-5-4 1-7 10-17 5-6 12-8 42-26 14-9 16-9 16-8 15-3z"/><path fill="#C8102E" d="m1404 1400 17 10-10 17h-3l7 4 2 5-10 17-8 7-13 5-16 2h-16l-14-1-31-4-31-5h-4l-17-10 10-17h4l31 5 31 4 14 1h16l6-1-12-2-30-7-17-10 10-17h10l11-1 32-1 32-2z"/><path fill="#505456" d="m1266 1431 3 2 13 6 18 9 17 10 14 10 8 8 1 4-10 17-4 3-18 4-18 1-15 1 5 5v7l-3 6-10 17-14 8-17 4-13 1h-3l-9 15-17-10v-2l-2-7-5-6 10-17 19 1 13-1 17-4 6-3-6-6-10-7-6-6 1-2 10-17 4-1 37-1 18-1 4-1-1-1-4-3-11-5-14-6-3-2-17-10 10-17h1z"/><path fill="#C8102E" d="m1203 1541 17 10-10 17-6 7-11 7-12 6-9 4-6 1-6 10-4 4-16 8-18 5-36 7-20 5-18 7-1 1-9 14-4 2-7 1-8 1-5 2-10 6-11 3-23 4-7 1h-7l-2-1-17-10 10-17 2 1h7l7-1 23-4 11-3 10-6 5-2 8-1 7-1 7-11 6-6 18-7 20-5 36-7 18-5 4-2 10-18 9-2 10-1 9-4 12-6 11-7 6-7z"/><path fill="#505456" d="m940 1643 2 1 4 1 17 10-10 17-4-1-2-1-2 1-11 11-11 8-12 6h-10l-5-3-7-4-4 3-12 7-13 2-6-3-12-7-4 7-2 3-5 2-17 3-9-1-3 1-3 5-20 23-18-10 10-17 20-24 3-5 3-1 9 1 17-3h1l1-3 10-17 2 1 17 10 3 6 9-1 12-7 8-6 17 10h1l12-6 11-8 11-11 2-1z"/><path fill="#C8102E" d="m777 1606 17 10 1 6 2 13 1 15-1 12-7 20-10 18-10 17-4 5-5 2-4-1-17-10-2-7-3-16-5-17-3-17 2-16 1-2 10-17 17 10-1 2-2 16 3 17 5 17 1 5 7-20 1-12-1-15-2-13-1-6 10-17z"/><path fill="#505456" d="m727 1680 17 10-3 5-4 6-6 12v2l-10 17-17-10v-2l6-13 4-7 2-4 10-17z"/><path fill="#C8102E" d="m681 1706 17 10-10 17h-8l2 7 5 3-10 17-2-1-3-1-17-10-2-8 3-10 10-17 7-7h9z"/><path fill="#505456" d="m640 1730 17 10-10 17-6 1-2 3-3 6-3 7 1 7 1 2-10 17-17-10-1-2-1-7 6-14 5-10 10-17 6-8 6-1z"/><path fill="#C8102E" d="m728 1616 17 10-8 15-8 16-10 17-13 14-13 11-15 7-19 2-16 3-17 8-9 8-1 2v2l-10 17-17-10v-2l7-15 10-17 13-12 17-8 16-3 19-2 15-7 13-11 10-11 1-2 8-15 10-17z"/><path fill="#505456" d="M589 1740h4l17 10-10 17h-4l-6 4-6 5-1 1-6 15-1 15 9 12 2 2 1 2-10 18-17-10-1-3-2-2-9-12 1-15 6-16 8-13 10-17 3-4 6-5 6-4z"/><path fill="#C8102E" d="m547 1771 17 10-6 11 15 9-10 17-8 2-7 5h-3l-17-10v-5l1-6 1-3 6-11 10-17 2-2z"/><path fill="#505456" d="m662 1695 17 10-10 17-2 1-19 5-16 10-10 10-3 4-4 7-17-10 2-5 10-17 5-6 10-10 16-10 19-5 2-1z"/><path fill="#C8102E" d="m556 1825 2 1 17 10v4l-10 17-5-3-3 3-7 10-6 8-5 9-9 16-17-10 2-3 10-17 13-21 6-8 7-10 6-5z"/><path fill="#505456" d="M478 1896h1l7 1 4 1 1-1 7 2 17 10-10 17h-9l-7 11-17-10-3-3-2-1-5-3-2-5 10-17 4 2 2-3z"/><path fill="#C8102E" d="m458 1915 17 10v1l17 10 1 4-10 17-4 3-7 1-4-1-1 2-5 2-17-10-2-3 2-5-2-2-3-6 1-5 10-17 6-2z"/><path fill="#505456" d="m454 1932 17 10v1l-10 17-17-10v-1l10-17z"/><path fill="#C8102E" d="m421 2013 17 10-10 17-6 4-12 5-13 3 3 2 1 1-10 17-17-10-1-1-7-6-5-4-3-5 1-4 10-17h21l15-3 12-5 6-4z"/><path fill="#505456" d="M369 2042h2l17 10-1 1 17 10-1 2 5 3-10 17-1 1h-4l-11-3-17-10-7-6v-5l1-3 10-17zm491-456 8 3 11 5 14 4 14 1 6-3 4-7 17 10 1 2v3l-10 17-11 5-13-1-8 13-9 3-10-1-4-2-10 17-7 3h-9l-6-1-17-10-8-6-10-9-8-9-3-7 10-17 11 7 8-13 7-1 8 4 15 9v-1l10-17z"/><path fill="#C8102E" d="m908 1583 2 1 17 10 7 5-10 17-10-6-17-10 10-17z"/><path fill="#505456" d="M914 1545h2l8 2 2 1 37 17 18 4 9-15 6 2 8 2 5 1 17 10v1l3 3-10 17-2 2-6 2-21 2-19-4-4-2v1l-10 17-5 6-12 3-14-1-14-3-12-2-3-1-5-2-4-2-17-10-1-2 10-17 5-1 14 4 4 2 11 7 5 1 14 1 6-1-3-5-3-1-17-10-12-9 10-17z"/><path fill="#C8102E" d="m944 1511 4 1 46 20 15 5 8 4 17 10 3 4-4 7 6 4v2l-10 17h-4l-7-1-17-10 3-6-2-1 4-7-4-1-15-7h-3l-21-5-17-10-9-6-2-2 10-17z"/><path fill="#505456" d="m997 1488 8 5 5 2 14 3 10 2 14 6 17 10 13 9 1 1 9 4 19 7 17 10 7 6 5 9 3 4 17 10-10 17h-1l-11-4-17-10-7-9-5-8-9-3-14-6-17-10-13-9h-1l-9-4-10-2-14-3-11-4-17-10-2-2 10-17 1-1z"/><path fill="#C8102E" d="m1129 1520 9 4 17 10 2 2-10 17-4-2-7-3h-22l-7 1-4 1-17-10 10-17 4-1 7-1h22z"/><path fill="#505456" d="m1088 1474 9 2 17 5 14 4 10 6 17 10 8 8 7 9 3 1 21 2h2l17 10-10 17h-2l-21-2-10-3-17-10-8-6-9-11-5-4-11-3-17-5-9-2h-7l-17-10 10-17h7z"/><path fill="#C8102E" d="M1129 1465h3l14 4 4 1 15 3 17 2 16 5 17 5 18 2h3l17 10-5 9h1l-10 17-24-3-23-8-6-3-9-4-11-7-9-2-4-1-14-4h-3l-17-10 10-17z"/><path fill="#505456" d="m1244 1440 31 7 13 5 13 2 18 10-10 17h-4l-8 1-8 2-5 1-31 1-30 1-8-1h-1l-17-10 6-10-5-3 1-2 10-17 6-2 32-2z"/><path fill="#C8102E" d="M980 1581h6l17 10-2 4 6 4 7 5 11 10 17 10-10 17h-1l-14-8-17-10-12-11-14-10-3-3 10-17z"/><path fill="#505456" d="m1033 1565 3 2 17 10 6 5 3 2 8 5 5 4 1 1-10 17-17-10-2-2-3-2-1 1-17-10-4-6 10-17z"/><path fill="#C8102E" d="m939 1607 17 10 2 2-1 2 1 1 4 7 3 5 2 2-10 17-17-10-2-2-3-5-4-7-2-5 10-17z"/><path fill="#505456" d="m725 1746 17 10v1l-4 12-10 17-10 9-12 6-7 11h-14l-2-1v1l-17-10v-1l10-17h2v-1l8-4 12-5 12-7 3-3 1-2v-1l10-17z"/><path fill="#C8102E" d="m722 1755 17 10-10 17-17 22-6 10-10 30-1 15 3 14v1l-10 17-17-10v-1l-3-14 1-15 11-30 10-17 17-27 17-22z"/><path fill="#505456" d="m684 1836 17 10-8 14-1 5-4 21v21l1 10-2 12-3 12-3 10-5 9-10 17-8 7-1 1-17-10 10-17 5-5 1-5 3-12 2-12-1-10v-21l4-21 1-5 3-7 3-6 10-17 2-1zm-26-35 17 10-10 17-3 1-12 9-11 10-7 5-9 7-3 3-2 6-10 17-20 10-9 9-15 20-5 6-2 2-1 4 5 6 14 14-1 2-10 17-23-2-22 5-19 12-14 18-17-10 10-17 14-18 19-12 19-4-3-4 1-7 10-17 5-8 6-8 5-6 15-20 9-9 10-5 5-2 2-3 10-17 8-7 9-7 7-5 11-10 12-9 3-1z"/><path fill="#C8102E" d="m662 1800 17 10-10 17-2 1h-2l-17-10 10-17h2l2-1z"/><path fill="#505456" d="m477 1986 17 10v1l-10 17-1 1-7 8-6 6-4 3-2 1-17-10 2-5 10-17 6-6 7-6 6-2z"/></g></svg>
