<svg xmlns="http://www.w3.org/2000/svg" width="460" height="360" preserveAspectRatio="xMinYMin" version="2" viewBox="0 0 4600 3600"><g fill="none" stroke-linecap="round" stroke-linejoin="round"><path fill="#464f4f" d="m3050 431 10 17-35 20-29 5h-31l-31-2-30-2-20 1-19 5h-3l-3 1-1 1-10-17 35-20 4-1h3l19-5 20-1 30 2 31 2h31l29-5zm-85-143 8 1 8 5 20 34 6 40 3 7 10 11 15 17 5 8 10 17 3 9v2l-35 20-10-17v-2l-1-2-13-14-15-17-10-17-8-19-6-40-8-5h-2l-2 10-1 28-2 21-8 20-16 21-17 19-6 5-5 6-35 20-10-17 1-1h1l4-4 6-5 17-19 16-21 8-20 2-21 1-28 3-16 11-11 35-20 16-5zm-13 16 7 4 10 17 4 10 1 11-1 9-8 13-2 2-35 20-10-17 2-2 8-13 1-9-1-7-1-1-10-17zm-47 137 1 1 10 17-16 9-1 2-2 9 3 18 6 19 2 18-6 23-11 20-16 16-34 20-35 20-10-17 1-1 34-20 15-15 11-20 6-23-2-18-6-19-3-18 2-9 6-8 35-20 3-2 5-2 4-1zm144-15 2 3 10 17 1 8v13l-4 15-7 14-6 14-3 16 5 24 8 11 23 18 24 17 10 9 6 10 10 17 2 25-1 10v1l-35 20-10-17v-1l1-10-2-22-7-6-24-17-23-18-17-22-10-17-7-30 3-16 6-14 7-14 4-15v-13l-1-7-2-4 35-20zm40 187 10 17 2 3-3 8-5 8-4 5-7 7-9 6-35 20-2 1-10-17 11-7 7-7 4-5 5-8 3-8-2-3zm-31-11 1 1 10 17-5 3-8 10-11 14-10 10-35 20-9 4-2-1-10-17 1-5 1-3 29-17 1-1 9-11 3-2 35-20zm-17 3 10 17-1 3-3 5-14 14-4 3-35 20-10-17 4-3 14-14 3-5 1-3zm-56 26 10 17v4l-35 20-10-17v-4zm-11-33 5 9 15-9 10 17-1 2-2 5-6 10-7 9-9 10-7 7-35 20-10-17-25 14-10-17 2-2 11-9 13-10 12-10 8-10 35-20zm-52-10 10 17-43 48-2 2-35 20-10-17 2-2 43-48zm-5-6 10 17-14 13-17 12-35 20-20 9-21 2-3-3-10-17 1-5 1-3 35-20 6 10 15-2 2-1 1-1 14-13 35-20zm-54 0 10 17 1 5-3 8-4 8-3 5-13 15-15 13-2 2-35 20-10-17 2-2 15-13 13-15 3-5 4-8 3-8-1-5zm-14-17 10 17-1 3-4 6-4 7-3 4-17 24-21 22-13 11-15 9-35 20-3 1-10-17 20-12 11-9 21-22 17-24 3-4 4-7 4-6 1-3zm-88 80 10 17-13 13-12 11-35 20-9 5-1 2-35 20-10-17v-1l4-4 35-20 12-6 19-19 35-20zm-41 45 4 5 10 5 11 3 9 1h6l6-1 11-7 3 4 14 6 5 1 35 5 35 3 41 6 3 1 10 17-35 20-3-1-41-6-35-3-35-5-5-1-14-6-2-2-4 2-7 2-8 1h-6l-9-1-11-3-10-5-4-5-10-17 35-20zm405-40 8 7 12 9 14 8 14 5 15 1 15-2 14 1 12 9 18 17 21 9 24 3h25l24 1 24 4 22 8 20 14 6 9 10 17 1 10v3l-35 20-10-17v-3l-1-4-16-11-22-8-24-4-24-1h-25l-24-3-21-9-18-17-12-9-14-1-15 2-15-1-14-5-14-8-12-9-8-7-10-17 35-20zm284 123 10 17 5 10 3 10v1l-35 20-10-17v-1l-3-10-5-10zm-56 4 22 2 21 7 21 9 10 17-35 20-21-9-21-7-22-2-23 4-4 1-10-17 35-20 4-1zm49 5 9 3 10 6 16 14 16 16 13 17 23 38 21 30 26 26 10 17v2l-4 2-35 20-5 2h-3l-55-9-28-2-27 1-21-1h-21l-3 1-10-17 35-20 3-1h21l21 1 27-1 28 2 7 1-12-18-23-38-13-17-16-16-16-14-10-6-9-3-10-17 35-20zm110 169 3 2 4 6 4 7 3 5 17 26 10 17 7 13 4 15 10 32 13 19 1 1 10 17v1l-35 20-1-2-21-31-10-17-11-37-4-15-1-1-14-20-3-5-8-12-3-2-10-17 35-20zm21 137 16 1 16 3 12 7 10 17-35 20-12-7-16-3-16-1-14 1-16 1-15 3-2 1-10-17 35-20 2-1 15-3 16-1zm-103-2 3 1 7 2 7 1 10 17-35 20-7-1-7-2-3-1-10-17zm-589-224 2 1 5 2 10 17-35 20-5-2-2-1-10-17zm0-8 1 1 10 17-35 20-1-1h-4l-9 1h-4l-10-17 35-20h4l9-1zm-46-5h3l10 17-35 20h-3l-10-17zm-31-2 10 17-4 5-5 3-35 20h-1l-10-17 7-4 3-4zm-111-18 9 1 4 3 6 10 14 4 15-1 10-5 9-5 13-1 11 4 10 17 5 9-35 20-5-9-10-4-13 1-9 5-10 5-15 1-14-4-6-10-4-3-9-1h-3l-17 10-10-17 1-2 3-4 35-20 6-2 9-1zm-53 176h2l10 17-22 13-4 5-6 7-35 20-10-17 6-7 8-8 9-7 35-20 8-2zm47 5 7 3 12 6h3l10 17-35 20h-3l-12-6-5-2-27 16-5 2-4-2-10-17-4-8 35-20 5 8 27-16 7-2zm47-2 4 2 10 17 3 7 2 2h7l11-4 9-5 9-2 12 4 8 3h2l10 17-35 20h-2l-8-3-12-4-9 2-9 5-11 4h-7l-5-3-10-17-3-6-1-1-5 2-10-17 35-20 5-2zm105 23 6 5 2 1 10 17-35 20-2-1-6-5-10-17zm37 0 10 3 19 7 24 8 2 1 10 17-35 20-2-1-24-8-19-7-10-3h-8l-10-17 35-20zm-560 206 10 17-12 18-8 21-11 43-2 9-1 4-35 20-10-17 1-4 2-9 11-43 8-21 12-18zm-36 130 10 17v16l3 16 1 2-35 20-10-17-1-2-3-16v-16zm63-73 10 17v1l-35 20-10-17v-1zm-6 12 10 17-17 56-5 28v33l-35 20-10-17v-32l5-28 17-56 35-20zm43 11 10 17 3 7-2 11-4 11-3 8-4 16-2 16v2l-35 20-10-17v-2l2-16 4-16 2-4-14 8-10-17 5-7 7-10 8-7 35-20zm50 59 10 17-35 20-7 3-10-17 35-20zm36-9h5l8 5 5 2 2-1 10 17-35 20-2 1-5-2-6-4-17 10-10-17 6-7 4-4zm41-7 10 17 2 15 1 1-35 20-10-17-1-1-2-15zm134 25 10 17v3l-4 5-6 4-35 20h-5l-10-17-1-1 15-9v-3l35-20zm-24-5 10 17v1l-1 2-35 20-10-17 1-2v-1zm-335-72 10 17-2 8-5 15-6 17-5 15-16 53-20 51-49 98-17 36-15 38-2 7-1 3-35 20-10-17 1-3 2-7 15-38 17-36 49-98 20-51 16-53 5-15 6-17 5-15 2-8zm-132 323 10 17-1 7v6l2-1 1 1 10 17v14l-35 20-10-17v-1l-1-1-10-17-2-9 1-9 1-7 35-20zm60-73 10 17-1 1-7 23-5 24-35 20-10-17 5-24 7-23 1-1zm20-16 10 17-1 7-1 8-35 20-10-17 1-8 1-7zm20-45 10 17-3 9-26 89 1 2-3 9-35 20h-1l-10-17 1-6 28-94 3-9zm20-88 10 17-1 9-4 32-5 34-5 32-2 24-35 20-10-17 2-24 5-32 5-34 4-32 1-9zm32-13 10 17-1 1-1 2-4 20-3 20-4 20-9 18-35 20-10-17 9-18 4-20 3-20 4-20 1-2 35-20h1zm20 8 10 17-2 6-1 4-4 10-2 2-35 20-10-17 2-2 4-10 1-4 2-6zm-150 273 10 17v9l-35 20-10-17v-8l-1-1 35-20zm-7-9 10 17 1 1 3 7-2 1 9 33 7 39v4l-35 20-10-17v-4l-7-39-10-38-1-4zm17 73 10 17-35 20h-1l-5 2-10-17 35-20 5-2zm42 8 29 2 30 4 29 8 24 15 4 4 3 5 10 17-35 20-3-5-4-4-24-15-29-8-30-4-29-2h-17l-16 4-10-17 35-20 16-4zm108 32 5 7 10 17 4 12 2 9 3 25v27l-6 25-14 21-4 4-35 20-10-17 4-4 14-21 6-25v-27l-3-25-1-6-4 2-10-17 2-6 35-20zm-2 123 10 17-3 6-4 7-24 32-31 26-4 3-2 2-35 20-10-17 2-2 4-3 31-26 24-32 4-7 3-6 34-20zm-62 78 2 3 10 17v2l1 1h2l10 17-35 20h-2l-7-3-10-17-3-9-1-8-2-4 35-20zm405-520 4 2 7 4 3 2 10 6 2 2 10 17-35 20-2-2-10-6-3-2-7-4-4-2-10-17zm-12 3 10 17-35 20-6 1-4-1-10-17 35-20 4 1zm-100-25h14l15 3 28 10 10 17-35 20-28-10-15-3h-13l-5 3-10-17v-1l35-20 3-2zm51 39 10 4 9 6 4 3 10 17-35 20-4-3-9-6-10-4-10-17zm0 54 7 2 3 1 10 17-35 20-3-1-7-2-10-17zm-122-77 7 3 53 29 51 32 8 5 10 7 9 6 7 2 10 17-35 20-7-2-9-6-10-7-8-5-51-32-53-29-7-3-10-17zm-23 0 63 38 61 41 6 5 3 3 10 17 1 2h-1l-35 20-3-5-7-5-61-41-63-38-10-17 35-20zm-13 24 8 5 51 25 53 22 10 17-35 20-53-22-51-25-8-5-10-17zm-47-44 5 2 4 8 19 10 23 15 2 2 10 17 1 2-35 20-1-2-2-2-23-15-24-13-5-3-2-2-10-17 35-20 3-1zm-7 20 22 7 10 17-35 20-21-7-10-17 35-20zm-9 20 7 3 9 15 13 7 28 11 28 12 26 16 3 3 2 3 10 17-35 20-2-3-3-3-26-16-28-12-28-11-26-15-6-6-10-17-1-4 35-20 4-1zm-35 18h2l10 17-35 20h-2l-10-17zm-1 0 6 2 8 4 9 5 7 4 16 7 18 8 17 10 12 12 10 17 1 2-35 20-2-3-11-11-17-10-18-8-16-7-7-4-9-5-8-4-6-2-10-17zm-15 21 6 2 5 9 4 3 54 32 9 5 10 17-35 20-9-5-54-32-7-5-8-6-3-3-10-17 35-20h2zm-32 24h2l12 4 2 3 27 12 36 19 7 4 10 17-35 20-7-4-36-19-37-16-6-3-10-17zm-7 36 12 3v1l48 18 50 22 2 1 1 1 10 17-35 20-1-1-2-1-50-22-51-19-8-2h-1l-10-17 35-20zm-5 29h1l21 3 10 17-35 20-21-3h-1l-10-17zm53 25 12 2h3l10 17-35 20h-3l-12-2-10-17zm-87-16h8l14 2 8 14 23 8 46 13 3 1 2 1 10 17-35 20-2-1-3-1-46-13-45-15-4-2-5-2-4-2-1-2-10-17 35-20 6-2zm22 23 8 1 8 2 5 1 10 17-35 20-5-1-7-2-11 7-10-17-2-6 35-20zm-37 29 18 2 19 5 19 7 10-6 15 8 7 5 5 5 10 17-6 3 5 9v2l-35 20-1 1-3-6-13-7-17-6-35-9-14-7-7-4-10-17-1-2 35-20zm-20 23 2 1 5 3 9 5 30 9 28 12 10 17v2l-35 20-6-1-3 1-3-1-19-4-19-3-14-4-13-3-10-17 10-6-8-13 35-20zm181 42 6 4 7 5 7 7 5 4 2 1 5-3 10 17v2l-2 2-24 14 4 16 1 6v5l-34 19 1 9-35 20-10-17-4-18-8-20-5-10-5-9 12-7-1-11 2-3 35-20 3 2 27-16zm25-24 16 9 18 9 10 17-35 20-18-9-16-9-10-17zm34-43 5 4 11 11 4 3 7-4 10 17v3l-2 4-22 13 1 4 2 7v3l-35 20-11-12-10-13-10-17 13-7-1-3-1-11 35-20h3zm27-30 7 5 2 1 10 17-35 20-2-1-7-5-10-17zm32-37 4 6 7 12 15-8 10 17-5 5-12 10-4 2 1 8-3 2-35 20-6-4-1-1h-7l-3-3-10-17-1-4v-2l10-6-4-7 8-5-1-3v-3l35-20zm63-14 4 8 8 6 11 4 11 3 28-16 10 17 3 7-3 8-35 20-11 4-14-1-14-4-11-4-4-3-9-9-10-17 1-2 35-20zm248 232 5 1 4 4 8 11 18-10 3 4 10 17-4 6-5 6-35 20-4 1-8-7-8-11-4-4-4-1-23 13-3 1h-3l-10-17 35-20h5l24-14zm-47 11 10 17-42 24h-1l-10-17 35-20h1l4-2zm-19 0 8 3 10 17-35 20-8-3-6 2-6 3-8 3h-4l-10-17 35-20h4l8-3 6-3zm-32-5 1 1 10 17-4 2-4 5-3 2-35 20-10-17 3-2 4-6 2-2 35-20zm-40 3 5 6 10 17-35 20-4-4-16 9-8 3-6-4-6-5h-8l-10 2-11-1-19-6-7 4-8 5-18-3-3-1-10-17 35-20 3 1 17 3 15-9 20 7 11 1 10-2h8l6 5 3 2 21-12h4zm-127-3 10 17-35 20-5 3-2 1-10-17 3-2 2-1 35-20zm-48 3 2 1 13 2 10 17-35 20-13-2-2-1-10-17zm-10-12 10 17-6 3-3 4-5 6-35 20-7 3-15 1-4-1-10-17 35-20 4 1h6l25-15zm-60 1 10 17v4l-2 9-3 9-4 6-18 10-2 5-6 8-5 6-6 9-1 3-35 20-10-17 1-3 6-9 5-6 6-8 4-8-2-7 25-15v-1l2-9v-4l35-20zm-5 63 9 12 10 17 2 16-3 16-5 13-35 20-5-9-3 2-19 10-21 6-18 2h-4l-4-1-10-17 35-20 4 1h4l18-2 13-4 5-5 2-1 1-8-1-11-10-17zm-71 37 4 4 10 17 1 6-3 12-3 5-35 20-10-17 3-5 3-12v-1l-5-9zm-28 48 10 17-27 20-3 2-35 20-10-17 3-2 27-20zm-33 7 10 17 7 19 30-18 14-5 13 4 10 17 2 7-5 8-8 7-6 5-8 10-35 20-10-17 4-5 1-1-32 19-10-17-3-26-9-24zm173-24 9 1 18 3h5l10 17-35 20h-5l-18-3-9-1-8 1-10-17 35-20zm67-7 10 17v1l-6 8-3 5-35 20-3-5-1 1-10-17 8-6 5-4zm-92 28 12 3 11 5 13 4 10 17-35 20-13-4-11-5-12-3-14 4-11 6-10-17 4-3 42-24 14-4zm1149-857 3 2 8 10 9 13 6 10 10 17 15 42 12 43 6 20 5 12 6 8 18 10 4 1 10 17-35 20-4-1-18-10-13-17-10-17-8-21-6-20-12-43-15-40-6-9-8-10-3-2-2 1-10-17 35-20 2-1zm75 175 2 1 5 4 14 8 68 24 44 14 44 13 96 28 96 26 60 15 5 1 10 17-35 20-5-1-60-15-96-26-96-28-44-13-44-14-68-24-14-8-5-4-2-1-10-17zm433 143 10 17-2 1-8 6-2 2-18 20-15 22-5 14-4 15v2l-35 20-10-17v-2l4-15 5-14 15-22 18-20 2-2 8-6 2-1zm-58 77 10 17 1 2 2 11 1 14v11l-6 11-11 10-13 9-35 20-12 6-33 18-8 4-10-17 35-20 8-4 17-10 6-4 11-10 6-11v-11l-1-14-2-10-1-1v-1zm-67 92 10 17-1 3-35 20-2-3-4 1-14 8-60 32-43 21-11 12-7 15-4 17 2 36 11 34 7 22 1 3-35 20-10-17-1-3-7-22-11-34-2-36 4-17 7-15 11-13 16-11 35-20 61-29 59-31 7-4 8-4 6-2zm-171 211 3 1 7 4 7 5 5 3 10 2 10 1 9 2 9 7 4 7 10 17 1 6-7 10-13 7-35 20-13 4-14 4-24 14-10-17 3-2 16-10 35-20 14-4 2-2-4-3-9-2-10-1-10-2-5-3-7-5-7-4-3-1-10-17 35-20zm-14 76 22 10 8 11 10 17 2 17-1 19-1 15 1 30 5 29 1 3-35 20-10-17-1-3-5-29-1-30 1-15 1-19-1-11-8-4-8 5-10-17-2-5-3-5 35-20zm204-315 10 17-4 4-24 16-35 20-30 11-31 7-29 2-6 2-7 4-14 2-16-1-5-1-35 20-10-17 5-8 3-9-9-15v-1l35-20 8 5v1l4 2 13 4 15 3 16 1 13-2 6-4 7-2 29-2 31-7 18-7 5-5 35-20zm-585-166 10 17-1 3-1 7v12l-2 25v5l-35 20-10-17v-5l2-25v-12l1-7 1-3zm40 37 10 17-2 1-4 4-4 5-2 3-2 4-35 20-10-17 2-4 2-3 4-5 4-4 2-1zm24 4 10 17-1 1-3 4-4 10v5l-35 20-10-17v-5l4-10 3-4 1-1zm33-3 10 17-6 8-4 11v4l10 17-35 20-3-1-6-8-10-17-1-11 4-11 6-8 35-20zm32 2 1 1 10 17-1 5-2 6-6 3-2 8v4l-35 20-10-17v-4l2-9 5-9 4-5 35-20zm29 4 10 17-2 1-2 3-2 6-1 4v10l1 4-35 20-10-17-1-4v-10l1-4 2-6 3-4 35-20h2zm41-2 10 17 1 3-6 3-3 7v7l2 3-35 20-2-2-10-17v-8l3-9 4-5 35-20zm59-20 10 17-5 3-15 15-6 7-9 14-1 3-35 20-10-17 1-3 9-14 6-7 9-9 8-7 35-20 3-1zm25 18 10 17v1l-2 4-7 13-2 8h1l10 17-35 20-4-1-6-4-10-17-2-6 3-15 7-13 2-4v-1l35-20zm62 10 10 17-1 4-17 10-4 6-2 7 5 8-35 20-3-1-10-17-2-6 3-8 5-7 4-5 4-3 6-3 35-20 4-1zm25-11 10 17 2 4-2 7-4 7-3 4-6 3 8 13-35 20-3 1-5-2-10-17-1-6 1-7 4-10 3-7 4-6 3-2 35-20zm25-1 10 17v1l-2 9-4 11 9 15-35 20-4 2-5 2-4-2-10-17 3-14 4-9-1-1 3-8 2-5 35-20zm66-12 10 17-2 7-5 8-6 8-4 7-2 4-1 4-35 20-10-17 1-4 2-4 4-7 6-8 5-8 2-7zm33-7 10 17-6 9-9 15-6 11v5l1 2-35 20-1-2-10-17v-6l6-11 9-15 3-4 3-5 35-20zm32 11 10 17-2 4-3 7-2 9 1 8 2 4-35 20-2-3-10-17-1-9 2-9 3-7 2-4zm44-3 5 9 14-8 10 17-5 15 2-2 35-20 1 1 10 17-2 7-5 11-1 3-35 20-2-4-24 14h-10l-6-9-3-5-5 3-9 5-3-4-10-17 1-6-2-3 4-5 1-4 1-3 4-10 1-2 35-20zm-347-146 10 17-2 3-1 4-1 2-35 20-10-17 1-2 1-4 2-3zm-18-20 10 17-35 20-8 3h-2l-7 4-10-17 3-3 2-1 35-20h1l3-1 8-3zm-883-582 10 17-1 1-8 6-7 7-15 20-12 22-21 43-38 66-12 20-9 21-20 42-17 33-14 36-23 73-15 41-12 41-5 15-4 14-3 12-7 7-35 20-20 8-29 6-30 1-49 3-40 5-16 9-4 1-10-17 2-3 5-4 35-20 6-2 48-6 49-3 30-1 23-5 2-9 4-14 5-15 12-41 15-41 23-73 14-36 17-33 20-42 9-21 12-20 38-66 21-43 12-22 15-20 7-7 8-6 1-1 35-20zm-66 76 10 17-1 1-8 10-7 13-11 26-16 30-20 27-14 18-12 19-35 67-8 28-6 29-14 42-18 41-17 33-15 33-8 28v2l-35 20-10-17v-2l8-28 15-33 17-33 18-41 14-42 6-29 8-28 35-67 12-19 14-18 20-27 16-30 11-26 7-13 8-10 35-20zm1116 925 10 17-4 5-4 8-4 9-3 6-13 18-3 3-35 20-10-17 3-3 13-18 3-6 4-9 4-8 4-5zm-44 5 7 3 10 17-23 13-1 1-35 20-10-17 1-2 4-6 5-6 42-24zm-9-13 10 17-8 7-10 8-35 20-12 7-12 2-4-1-10-17 35-20 4 1h3l4-4zm-58 7 4 2 10 17 2 6 4 6-35 20-4-6-5-8-1-1-8 1-9 2-6 1-15 3h-18l-10-17 35-20h18l15-3 6-1 9-2 8-1zm-200-9 6 3 7 4 6 1h15l5 8 27 3 10 17-35 20-9-1-23-2-22-6-6-4-4-4-10-17v-2l35-20zm126 7 9 3 2 3 10 17 2 4-35 20-4-7-9-3-12 1-2 1-11 6-10-17 2-3 35-20 10-3 12-1zm158 179 14 1 12 3 4 6 10 17-35 20-4-6-9-3-1 1-35 20-7-1-7-2-2-1-17 10h-9l-8-3-3-2-10-17 35-20 3 2 8 3h3l3-2v-1l3-5 35-20 9-2h10zm-89 15 10 17v8l-5 6-35 20-4 2-10-17 4-2 5-6v-8zm-76-3 10 17-4 5-35 20-6 3-3 1-10-17 12-7 2-2 35-20zm-24 3 3 1 3 3 10 17-1 3-35 20-2 1-10-17 1-1-4-7zm-82-3 1 1 10 17-35 20-4 2-12 7-10-17 2-2 35-20 4-2 9-5zm-21-5h9l6 2 10 17 1 4-6 6-35 20-7-12h-3l-9 3-8 4-3 1-3 2-10-17 35-20 3-2 2-1 9-4zm131 133 4 3 3 5 10 17 3 8 1 8-3 4-35 20-8-4-3-4-18 10-10-17 1-2 8-18-1-2-1-3 10-6 35-20h4zm-68 5 2 2 17 8 10 17-35 20-17-8-2-2-10-17zm-35-8 15 5 6 5 11-6 1 1 10 17 2 5 2 7-2 3-35 20-5-2-15-12-15-5-15 3h-5l-10-17 35-20h5l15-3zm176-9 10 17-9 9-35 20-10-17 9-9zm-310 8 6 4 4 6 4 5h1l19-11 3-1 10 17-7 4-1 1-6 5-4 3-35 20-5-1-4-5-4-6-6-4h-18l-17 5-7 1-8 2-11 6-2 1-10-17 1-1 35-20 12-6 8-2 7-1 17-5zm-109 5 10 17v6l3 5v3l-1 1-35 20-10-17-2-5v-2l-3-6 35-20zm-136-15 10 17-3 8-35 20-4-7-8 4-9 5-8 4-10-17 35-20 8-4 9-5 10-5 6-1zm-56 1 10 17-35 20-5 3-6 2-4 1-10-17 35-20 4-1 6-2zm-65-1h2l2 4 7 6 2 1 14-8 10 17-4 10-35 20-12-3-7-6-2-3-8 5-13 5-13-5-2-2-10-17 35-20 2 2 13 5 6-2 14-8zm-51-1 13 1 10 17-35 20-13-1-12 6-5 2h-1l-10-17 35-20h1l5-2zm-36-1 6 1 7 5 10 17-35 20-7-5-5-1-20 12h-6l-1-1-10-17 35-20 1 1h5zm-142-13 15 8 16 5 11-2 10-3 9 3 16 12 11 1 4-2 10-6 5-1 6 5 10 17-35 20-6-5-4 1-7 4-8 4-11-1-16-12-9-3-10 3-11 2-14-4-15 8h-8l-10-17 13-7-4-7-2-4 35-20zm-49 4 10 17-3 2-2 5-1 6-1 4v4l-1 7-1 6v4l-35 20-10-17v-3l1-6 1-7v-4l1-4 1-6 2-5 35-20 2-1zm-4 8 10 17v6l2 12 2 13v11l-2 15v1l-35 20-10-17v-1l2-15v-11l-2-13-2-12v-6zm-232 143 4 2 10 17-2 6-4 5v9l-1 9-2 10-5 6-35 20-9-2-3-2-10-17 18-11v-2l1-9v-8l-2-3 2-1 1-7 2-3 35-20zm-27 9 10 17v4l-1 9 17-10 13-8 14-3 16 3 4 2 10 17-35 20-4-2-16-3-5 1-8 6-35 20-5-1-10-17-2-6-1-10v-13l-1-1 1-5v-2l35-20zm88-4 6 1 7 4 7 5 7 3 3 1h3l10 17-35 20h-3l-3-1-7-3-7-5-7-4-6-1-10-17zm56 5 2 1 10 17 1 3 2 4-35 20-2-2-10-17v-1l-3-5zm101-7 10 17v1h-1l-1 6-3 5-35 20-5 1-4-5-16 9-8-1-10-3-8-4-10-17-2-3 35-20 2 4 8 4 10 3h5l16-9 1-1 1 1 14-8zm10-10 10 17v1l-3 6-35 20-1-1h-1l-10-17 4-6 35-20zm345-27 10 17-35 20-3 1-4 1-3 1-10-17 35-20 3-1 4-1zm-40 5 8 1 10 17-35 20-8-1h-3l-10-17 35-20zm-38-3 3 1 2 2 10 17-35 20-2-2-3-1-10-17zm401 25h22l10 17-35 20h-22l-10-17zm-60-2h2l27 1h12l10 17-35 20h-12l-27-1h-2l-10-17zm339 288 12 2 13 3 10 3 4 1 2 1 10 17-35 20-2-1-4-1-10-3-13-3-12-2-10 1-10-17 35-20zm95 9 18 3h2l10 17-35 20h-2l-18-3-17 3-10-17 35-20zm76-417 10 18 1 6 2 29v29l-3 48-3 24-6 24-5 21 1 21v2l-35 20-10-17v-2l-1-21 5-21 6-24 3-24 3-48v-29l-1-23-2-3v-9l35-20zm-10 190 10 17-2 10 1 13 2 13 2 10 8 70v23l-2 25-6 24-11 21-9 19 2 22 1 3-35 20-10-17-1-3-2-22 9-19 11-21 6-24 2-25v-23l-8-70-2-10-2-13-1-9-1-2 1-5 2-6 35-20zm-9 245 10 18 3 6 1 6-2 1 3 18 3 15 1 16 1 17 2 18v17l-4 16-3 16-1 17-4 33v17l5 13 2 3-35 20-1-1-10-17-5-15v-17l4-33 1-17 3-16 4-16v-17l-2-18-1-17-1-16-3-15-5-31v-1l35-20zm2 226 10 17-2 2 1 10 2 11 2 8 6 40 3 40-2 35-7 35-8 35-5 32 4 8-35 20h-1l-4-5-10-17 5-35 8-35 7-35 2-35-3-40-6-40-2-8-2-11-1-10 2-2 35-20zm-10 247 10 17 3 9 2 7 1 4 8 29 2 15-1 15-3 20-3 23-2 21-2 16-2 6-3 4-5 6-2 14 1 14 2 14v14l-35 20-10-17v-14l-2-14-1-14 2-14 5-6 3-4 2-6 2-16 2-21 3-23 3-20 1-15-2-15-8-29-1-4-2-7-3-9zm11 220 10 17-1 4-1 12 1 3 8 6 42 18 45 10 112 10 92 11 92 13 44 7 45 5 44 5 43 10 10 17-35 20-43-10-44-5-45-5-44-7-92-13-92-11-112-10-45-10-42-18-10-8-6-9-10-17-2-10 1-12 1-4 35-20zM2255 2006l10 17 1 13 1 14-4 46-7 45-1 15 1 16 3 31 3 19 5 19 1 3-35 20-10-17-1-3-5-19-3-19-3-31-1-16 1-15 7-45 4-46-1-14-1-13zm3 223 10 17v2l1 9v12l-2 11-8 27v2l-35 20-10-17v-2l8-27 2-11v-12l-1-9v-2zm-7 61 10 17-1 2-7 28-2 14 6 41 15 38 1 5v2l-35 20-10-17v-2l-1-5-15-38-6-41 2-14 7-28 1-2zm15 138 10 17 1 14-1 18-3 19-2 17-2 47 1 23 4 24 1 9 7 11-35 20h-1l-4-3-10-17-2-6-6-36-1-23 2-47 2-17 3-19 1-18-1-14 35-20zm33 190 10 17-8 8-8 12-4 14 1 16 5 18 1 2-35 20-1-2-10-17-5-18-1-16 4-14 8-12 8-8zm69-600 10 17v9l-1 14v11l2 72 1 72v14l-35 20-10-17v-14l-1-72-2-72v-11l1-14v-3l-1-2 1-4zm-33 88 10 17v9l-1 49-2 49v12l1 5 2 4-35 20-2-3-10-17-1-7v-12l2-49 1-49v-9l35-20zm-19-64 10 17v3l-1 10 3-2 10 17 1 20-2 22-5 21-8 18-3 4-35 20h-2l-10-17-2-7v-10l1-7 10-88v-3l35-20zm-23 31 10 17-4 21-6 20-1 5-35 20-10-17 1-5 6-20 4-21zm-13 77 10 17 1 12 2 15 3 10 8 13 2 5v22l4 48v4l-35 20-10-17v-4l-4-48v-22l-9-15-4-14-2-15-1-12 35-20zm18 134 10 17-4 17-4 18 2 33 5 32v5l-35 20-10-17v-5l-5-32-2-33 4-18 4-17zm3 83 10 17v7l-1 6v3l-2 19 1 19 1 4-35 20-10-17-1-4-1-19 2-19v-3l1-6v-7zm44-113 10 17 7 49 2 50v37l-2 37v9l-35 20-10-17v-9l2-37v-37l-2-50-7-49zm-46 183 8 14 16-9 10 17 1 19 11-6 10 17-3 18-1 19-2 18-2 9v3l4 24 7 22 1 7-2 8-4 5-35 20-6-3-10-17-7-13-3-15v-39l8-5v-3l-17 10h-2l-10-17-2-4-2-6-1-4-5-29v-30l1-8 35-20zm100-61 5 4 5 9 2 3 9-5 10 17-1 4-3 4-31 18-2 2-35 20-5-2-10-17-4-8-2-10 21-12v-1l4-4 35-20zm33-18 4 2 3 4 10 17 2 4-35 20-2-4-3-3-4-2-10-17 35-20zm32-57 2 3 10 17v16l-1 5-3 28-5 28-2 6-35 20-10-17 2-6 5-28 3-28 1-5v-14l-2-4 35-20zm208 34 4 1 10 17 4 7v6l-7 8-35 20-1-2-25 14-4 1-1-1-10-17 11-7 4-6 3-5 3-4 5-6 5-5 35-20zm-52 26 10 17-5 10-4 4-35 20-5 1-2-1-10-17 13-8 4-7 35-20zm-38 6 10 17-4 8-3 5-35 20h-4l-5-7-2-1-14 8-8-3-9-7-6-1-17 10-7 3h-2l-10-17 35-20h1l17-10 7-3 7 1 9 7 6 2 14-8 4 1 2 3 13-8zm-132 35 7 3 10 17 1 3-3 4-1 1-35 20-10-17 1-1-5-10zm8 53 1 1 10 17 2 11v11l-1 14-1 12-1 3-35 20h-1l-10-17 1-1 1-2 1-12 1-14v-11l-2-10-1-1 35-20zm203 145 10 17 1 6v10l2 4v8l-1 1-35 20-10-17-1-4v-5l-5-9 1-1 2-5v-5l35-20zm-87 25h3l15 4 15 3 10 17-35 20-15-3-15-4h-3l-10-17zm-35-7 12 2 11 4 10 1 10 17-35 20-10-1-11-4-12-2-13 3-6 2h-3l-10-17 35-20h3l6-2zm-62 5 10 5 10 17-35 20-10-5-8 2-11 6-9 4h-2l-1-1-10-17 35-20 1 1h2l5-2 13-7 9-3zm-37 6 6 2 10 17-10 6v2h2l10 17-35 20h-2l-7-4-10-17-3-8 1-9 4-6 35-20zm-9-25 10 17-1 1-2 3 2 9 5 7 10 17 5 11-35 20-10-17-2-4-7-11-10-17-3-11 2-3 35-20 1-1zm0 3 10 17-17 17-19 15-35 20-2 1h-2l-10-17 5-3 17-14 17-17 35-20zm-82 0h8l8 1 4 6 10 17 1 10 10-1 10 17-35 20-12 1-4-3-10-17-3-7-1-6h-11l-10-17 35-20zm488-532 2 1 10 17 1 4-35 20-3-5-7 2-3 1-10-17 35-20 3-1zm-65 20h17l10 17-35 20h-6l-22 13-10-17v-2l2-6 4-5 35-20 5-1zm-14 17 10 17-11 32-5 34 1 36v36l-2 63-6 62-1 5-35 20-10-17 1-5 6-62 2-63v-36l-1-36 5-34 11-32zm-36 249 10 17 1 3 9 15-6 4 3 17 7 40v21l-10 18-8 7-1 4 12 24 4 18-2 39v8l-35 20-10-17v-8l2-39-4-18-12-24 1-4 8-7 10-18v-21l-7-40-7-38 35-20zm12 238 10 17 4 10 2 14v14l-2 11-8 18-5 19 1 18-1 18-1 2-35 20-10-17 1-2 1-18-1-18 5-19 8-18 2-11v-14l-2-14-4-10zm-267-554 10 17v16l-1 2-35 20-4-1-10-17 6-3v-14l35-20zm150-91h2l10 17-35 20h-2l-10-17zm740 294 10 17-1 3v16l4 79v111l-1 16-4 14-35 20-10-17 4-14 1-16v-111l-4-79v-16l1-3zm-431-20 10 17 1 1 2 7-5 3v16l2 53 6 106-1 53-6 94-1 95 1 32v8l-35 20-10-17v-8l-1-32 1-95 6-94 1-53-6-106-2-53v-14l1-8 2-5 35-20zm27 3 15 1 15 2 14 1 40-1 40 1 81 3h49l49 2 44 1 44-1 9 1h9l10 17-35 20h-8l-9-1-44 1-44-1-49-2h-49l-81-3-40-1-40 1-14-1-15-2-15-1-13 3-10-17 35-20 13-3zm45 27 10 17-6 69 1 70 3 70 1 69-1 65-3 65-3 81 1 81-2 54-5 54-4 54v54l1 8-35 20-10-17-1-8v-54l4-54 5-54 2-54-1-81 3-81 3-65 1-65-1-69-3-70-1-70 6-69zm-7 770 10 17-1 1-1 4-2 15-2 18-1 14-1 23 1 3-35 20-10-17-1-3 1-23 1-14 2-18 2-15 1-4 1-1zm55-770 10 17v4l-2 14-6 44-2 45-2 55 3 55 8 108 5 79v79l-1 51-3 51-6 75-12 74-4 32v32l3 64 4 34 1 17-2 16-35 20-10-17 2-16-1-17-4-34-3-64v-32l4-32 12-74 6-75 3-51 1-51v-79l-5-79-8-108-3-55 2-55 2-45 6-44 2-14v-4zm21-27 6 8 10 17 2 12v25l16 156 3 78-4 78-3 28-1 12-35 20-10-17 1-12 3-28 4-78-3-78-16-156v-25l-2-9-6-10 35-20zm27 351 10 17 1 37-2 37-10 73-3 20-2 9-35 20-10-17 2-9 3-20 10-73 2-37-1-37zm-16 197 10 17-1 6-1 35 6 72-1 36v6l-35 20-10-17v-6l1-36-6-72 1-27-3-5 3-9 35-20zm3 155 10 17-1 39 3 38v2l-35 20-10-17v-2l-3-38 1-39zm9 124 10 17 1 6v2l-35 20-10-17v-2l-1-6zm43-680 10 17v11l-2 72 2 72v52l-5 51-6 51-5 51-6 65-7 66-3 66 5 65 5 43-3 44-2 8-3 11-3 10-3 4-35 20-10-17 3-4 3-10 3-11 2-8 3-44-5-43-5-65 3-66 7-66 6-65 5-51 6-51 5-51v-52l-2-72 2-72v-11zm-8-128 10 17 1 5 4 14v4l-4 2 1 17 1 52 1 55 2 53v5l-35 20-10-17v-5l-2-53-1-55-1-52-1-22-1-19 35-20zm183 16 10 17 2 68 4 69 10 138 1 8-35 20-10-17-1-8-10-138-4-69-2-68zm2 60 10 17 2 20 3 22 6 78v40l-3 39-1 9-35 20-10-17 1-9 3-39v-40l-6-78-2-10-1-2-3-30 35-20zm16-74 4 4 10 17 1 10 2 67 2 65-35 20-10-17-4-55-3-40-5-8 1-4 1-5 1-2 4-2v-12l-11 1-16 3-2-1-10-18 35-20 2 1 16-3 15-1zm-33 2 10 17-1 29 1 30 4 102-2 51-7 50-3 14-35 20-10-17 3-14 7-50 2-51-4-102-1-30 1-29zm-1 172 6 3 10 17 1 9-1 11-1 9-1 42 3 43 11 85 1 8-35 20-10-17-1-8-11-85-3-43 1-42 1-9 1-10-7-13zm24 140 7 3 6 7 10 17 3 9v8l-1 2-35 20-10-17 1-2v-6l-6-2-10-17 35-20zm14-23 4 1 3 4 10 17 1 6-5 61-3 61-4 69-2 34 1 34v24l-3 24v3l-35 20-10-17v-3l3-24v-24l-1-34 2-34 4-69 3-61 4-49-10-17 3-5 35-20zm-8 307 10 17 2 15v2l-35 20-10-17v-2l-2-15zm1 22 10 17v4l-35 20-10-17v-4zm4 59 10 17 2 7v1l-35 20-10-18-2-7zm-16-45 10 17 1 3 4 16 5 17 8 24-35 20-10-17-8-24-5-17-4-16-1-3zm3-7 10 17-1 1-1 3-35 20-10-17 1-3 1-1zm-22-50 2 1 1 1 10 17-35 20-1-1-2-1-10-17zm-3-138 10 17 1 3 5 28v28l-35 20-10-17v-28l-5-28-1-3zm-1-18 1 1 10 17v11l-3 2-5 46-3 54-2 54-2 28v14l-1 8-1 9-1 3-35 20-10-17v-2l1-6 2-26v-17l1-1 1-10 2-54 3-54 6-54 1-6zm-20 106 10 17v22l-35 20-10-17v-22zm-1-100 10 17v6l1 14-2 14-35 20-10-17 2-14-1-14v-6zm-8-88 10 17v4l3 18v18l-35 20-10-17v-18l-3-18v-4zm-3-142 10 17v4l2 19v37l3 19 2 18-1 18-35 20-10-17 1-18-2-18-3-19v-37l-2-19v-4zm2-147 10 17v3l-1 5-35 20-10-17 1-5v-3zm-76-37 10 17-1 7-2 1-1 5 1 38 4 38 5 38 3 38-1 78-5 78-16 155-4 45-4 90-4 45-3 56v62l-35 20-10-17v-62l3-56 4-45 4-90 4-45 16-155 5-78 1-78-3-38-5-38-4-38-1-38 1-8 2-5 35-20zm-42 591 10 17-1 7-3 59 5 59 3 33 3 17 3-1 10 17v14l-1 8-3 6-35 20-10-17 1-5-2-8-3-8-2-6-6-33-3-33-5-59 3-59 1-7 35-20zm9-66 10 17-2 14-35 20-10-17 2-14zm51 84 10 17-1 15-4 41-6 41-2 10-35 20-10-17v-16l3-2 5-33 4-41 1-15zm21-233 10 17v8l-1 8-6 85-4 85-1 15-2 19-2 15-1 3-35 20-1-1-10-17 1-1 1-2 2-15 2-19 1-15 4-85 6-85 1-8v-8l35-20zm3-374 10 17v5l3 61 5 62 1 11-16 9v52l6 81 1 8 1 10v10l-2 8-35 20-10-17 2-8v-10l-1-10-1-8-6-81v-132l-7-50 1-4 3-5 8-9 35-20zm27 34 10 17-1 7v40l4 45 1 6-35 20-10-17-1-6-4-45v-40l1-7zm13 97 10 17v8l-3 2v3l-1 9 1 32 1 3-35 20-10-17-1-3-1-32 1-9 1-10 1-4 35-20zm-11-130 10 17h-1l-1 2-35 20-10-17 2-2zm-5 646 10 17 4 47 3 47 1 6v4l-35 20-10-17v-4l-1-6-3-47-4-47zm8 95 10 17-1 6-2 13-3 15-2 12-4 16-35 20-10-17 4-16 2-12 3-15 2-13 1-6zm-8 97 10 17v18l-2 15-1 3-35 20-10-17 1-3 2-15v-18zm-23-102 10 17-6 32 2 36v18l-4 16-1 2-35 20-10-17 1-2 4-16v-18l-2-36 6-32zm-15-9 10 17 1 4-1 8-5 3-5 28-8 34-1 4-35 20-10-17 1-4 8-34 7-35 2-7 35-20 2-1zm-29 69 10 17-2 17-10 32-2 17v1l-35 20-10-17v-1l2-17 10-32 2-17zm-14 61 10 17v3l-35 20v-1l-8 5-5 3h-2l-10-17 12-7 1-1 4-2 35-20zm-67 9 4 4 10 17 1 2-35 20-2-3-1-2-2-2-10-17 35-20zm-57-812 10 17 3 12 10 50 7 50 7 101 3 24 3 22-35 20-10-17-3-22-3-24-7-101-7-50-10-50-3-12zm57-57 10 17-4 8-1 23 2 23 1 13-35 20-10-17-1-13-2-23 1-23 2-5 2-4 35-20h1zm3 64 10 17v4l-2 14-2 15-2 11-35 20-10-17 2-11 2-15 2-14v-4zm-48 665 10 17v1l1 5-1 15-1 3-35 20-10-17 1-3 1-15-1-5v-1zm211-352 10 17-9 28-11 28-4 10-35 20-10-17 4-10 11-28 9-28zm309-449 10 17-5 7-2 12-1 13-1 10-19 80-3 26 3 26 14 51 1 15-2 17-7 31-7 36-4 36-1 34 1 34v82l2 16 7 15 2 10-3 11-4 11-3 9-7 39-1 19 4 20 4 19v20l-2 40-3 24-2 24 9 69 1 8v3l-35 20-10-17v-3l-1-8-9-69 2-24 3-24 2-40v-20l-4-19-4-20 1-19 7-39 3-9 4-11 3-11-2-10-7-15-2-16v-82l-1-34 1-34 4-36 7-36 7-31 2-17-1-15-14-51-3-26 3-26 19-80 1-10 1-13 2-12 5-7zm50 682 7 1 2 3 10 17-6 8-35 20-7-12-5 1-1 1-10-17 35-20 1-1 8-2zm-41 20 10 17-35 20-14 5-13 7h-1l-10-17 35-20h1l13-7zm54-263 7 2 3 3 10 17-35 20-6 1-4-6h-8l-19 6-19 2-10-3h-2l-10-17 35-20h2l10 3 19-2 19-6zm-20-232h3l10 17-35 20h-50l-10-17 35-20zm-48-292 10 17-35 20-10-17zm-111 3 8 3 7 3 6 2 10 17-35 20-6-2-7-3-8-3-10-17zm-491-494 15 1 21 2 22-1 28 4h29l29 3 46 4 46 2 35 2 70 8 35 2 4 1 6 2 5 2 1 2 10 17-35 20-1-2-5-2-6-2-4-1-35-2-70-8-35-2-46-2-46-4-29-3h-29l-28-4-22 1-21-2-15-1h-2l-10-17 35-20zm-15 5 10 17-2 5-3 9-3 7-18 33-10 37v39l-2 38v20l2 20v7l1 7v1l-35 20-10-17v-1l-1-7v-7l-2-20v-20l2-38v-39l10-37 18-33 3-7 3-9v-1l1-4 35-20zm-29 225 4 3 3 3 21 15 18 16 11 6 11 7 10 18-35 20-12-7-11-6-18-16-21-15-3-3-4-3-10-17 35-20zm61 42 12 7 16 4 17 3 15 3 39 8 40 5 38 3 38 2 52 4 52 2 14 2h13l10 17-35 20h-13l-14-2-52-2-52-4-38-2-38-3-40-5-39-8-15-3-17-3-16-4-12-7-10-17zm377-241 4 5 6 10 19 26 2 2 10 17-35 20-2-2-22-30-5-8-3-3-10-17 35-20zm34 47 10 17v2l-1 4-1 3v1l-12 47-10 47-4 23-4 46-5 23-3 17-2 17-2 2-1 3v1l-35 20-10-18 1-3 2-2 2-17 3-17 5-23 4-46 4-23 10-47 12-47v-1l1-3 1-4v-2zm-390-34 11 2 62 9 62 10 66 9 66 4 19 4 16 9 12 14 10 17 7 19 2 31 2 32 2 34-8 33-1 2-1 5v2l3 5-35 20-3-2-10-17v-5l1-5 1-2 8-33-2-34-2-32-2-31-3-10-5-6-16-9-19-4-66-4-66-9-62-10-62-9-11-2-10-17 35-20zm-34-3h4l19 5 9 1 9-2 10 17-35 20-9 2-9-1-19-5h-4l-10-17zm-140-60 10 17-3 39-12 80-3 40v16l-35 20-10-17v-16l3-40 12-80 3-39zm26 16 6 3 10 17 3 11 1 13v9l-9 82v3l-35 20-10-17v-3l9-82v-9l-1-12-9-16 35-20zm41 15 10 17-3 33-9 33-24 66-2 6-35 20-10-17 2-6 24-66 9-33 3-33zm-8-146 5 4 18 17 16 16 9 8 6 3 10 17-35 20-6-3-9-8-16-16-18-17-5-4-10-17zm53 2 8 7 35 34 32 37 5 6 4 5 10 17-35 20-4-5-5-6-32-37-35-34-8-7-10-17zm37-8 7 8 93 96 3 3 10 17-35 20h-1l-7-5-6-10-82-84-7-8-10-17zm73 22 2 3 32 38 33 38 10 17-35 20-33-38-32-38-2-3-10-17zm47 8h2l6 4 5 4 10 17h-1l9 11 28 36 10 17-35 20-28-36-15-19-15-16-2-3-10-17 35-20zm54 1 2 3 28 32 13 18 10 17 8 19-35 20-10-17-5-12-5-8-28-32-2-3-10-17 35-20zm49 11 3 5 4 6 9 10 18 19 10 13 5 7 10 17 2 7-35 20-10-17v-1l-7-8-18-19-9-10-7-10-10-17v-1l35-20zm52 5 2 2 30 35 10 17 23 41-35 20-10-17-13-24-29-35-2-2-10-17 35-20zm63 1 4 4 44 58 10 17-35 20-44-58-4-4-10-17zm60 18 39 39 10 17-35 20-39-39-10-17zm57 14 16 16 14 16 6 10 10 17 3 9-3 5-35 20-11-3-10-17 12-7-11-13-16-16-10-17zm43-22 3 5 19 29 6 10 10 17 8 14 3 12-2 3-35 20h-5l-10-17 7-4-3-11-3-6v-1l-21-32-10-17v-1l35-20zm67 3 2 2 40 53 4 7 10 17 5 10 3 9-4 4-35 20-10-17 4-4-3-9-1-2-39-51-2-2-10-17 35-20zm56 12 11 13 8 11 9 15 10 17 5 12-1 3-35 20-4-1-10-17 5-3-3-7-1-2-8-11-11-13-10-17zm68-1 10 17v1l3 6 4 6 10 17 7 14 3 7 1 3-17 10 1 4-1 2-35 20-19-13-18-15-10-17 16-9-1-2-3-4-10-17 35-20 3 3 20-12zm23-7 5 8 12 20 10 17 1 3 4 10v2l-35 20-8-5-8-6-10-17 10-6-1-2-5-8-10-17 35-20zm-903 72 10 17-1 3v3l-1 1-35 20-10-17 1-1v-5l35-20zm-26-10 10 17-1 5-4 4-35 20-2 1-10-17 2-1 4-4 1-5zm-27-6 4 1 4 4 10 17-35 20-4-4-4-1-10 1h-3l-10-17 35-20h3zm-31-9 10 17-3 10-1 3-35 20-10-17 1-3 3-10zm73 155 10 17v3l-6 3-1 2-3 2-35 20-10-17 3-2 6-7 2-1 35-20zm-54 7 3 3 16 10 18-2 10 17-35 20-18 2-16-10-3-3-10-17zm87-190 10 17h-1l-1 1v2l-35 20-10-17v-2l1-1 35-20zm73 4 10 17v1l-4 3-35 20-5 1-10-17 35-20h2l7-4zm88-1 10 17 2 4 2 3-35 20-10-17-4-7zm-300-46 3 1 10 5 7 6 5 6 10 17v4l-35 20h-8l-10-17-5-3-3-1-10-17 35-20zm-31-2 3 1 8 3h13l5-3 10 17-2 2-35 20-6 1h-10l-8-3-3-1-10-17zm-16-4 8 2 10 17-35 20-8-2-8 1-2 1-10-17 35-20 2-1zm1225 47 10 17-2 4-4 3-35 20-16 6-7 2-9 2-10-17 35-20 9-2 7-2h1l22-13zm-37 0h2l10 17-6 6-11 8-8 6-6 3-35 20-6 3-10-17 12-7 8-5 11-8-1-3 35-20 6-3zm101-20 10 17-3 9-7 9-9 8-7 6-5 4-35 20-10-17 5-4 7-6 9-8 7-9 3-9zm25 8 10 17 1 2-3 3-5 3-9 6-35 20-10-17 9-6 5-3 3-3-1-2zM1122 3003l-9 1-6 1-32 4-15 3-16 6-2 1-22 18-24 30-19 31-13 34-6 39v37l6 35 1 1 14 6 16-2 17-8 16-7 8-3 25-34 21-36 5-13 6-13 2-4 9-5v-1l7-36 8-36 7-31 2-15v-3l-4-1m25-37 9 1 5 4 10 17 1 15-2 15-7 31-8 36-7 36-14 84-1 18 1 22 6 2 6-2 6-4 16-15 12-16 35-20 10 17-12 16-16 15-18 13-35 20-18 10-11 3-8-3-5-7-10-17-3-9-1-22 1-9-7 10-13 11-35 20-15 7-15 5-16 7-17 8-16 2-14-6-11-17-10-17-7-36v-37l6-39 13-34 19-31 24-30 28-22 35-20 32-17 16-6 15-3 32-4 6-1 9-1zm269-3 7 1 9 3 4 4 10 17-1 2-35 20-4 2-5-10-2-1-7-1-21 3-17 5-6 6-7 15 1 13 7 8 14 18 13 20 10 17 23 41 14 28 8 30-2 29-6 14-10 13-14 10-35 20-15 7-32 7-33 3-33 5-8 2-10-17 35-20 8-2 33-5 33-3 26-6 9-11 6-14 2-29-8-30-14-28-15-26-11-17-14-18-10-13-10-17-6-13-1-13 7-15 15-15 35-20 21-10 22-6 21-3zm169-76 10 17 3 41 1 20-2 21-17 82-16 83-4 30-1 33 6 31 7 8 8 4h2l1-1 10-13 30-46 6-11 35-20 10 17-6 11-30 46-10 13-14 14-35 20-16 8h-8l-8-4-10-12-10-17-7-14-6-31 1-33 4-30 16-83 17-82 2-21-1-20-3-41zm-83 83 15 1 91 4 92 5h8l4-2 6 1 2 1 10 17-35 20-4 1h-15l-92-5-91-4-15-1-10-17 35-20zm326 37-5 2-16 17-14 17-17 27-14 32-7 32 17-10 11 3 11 1 16-2 17-6 2-1 21-17 22-28 5-12 1-15-1-15-2-11-13-8-17-4-17-1m25-37 17 1 17 4 14 9 10 17 8 15 2 13 1 15-1 15-5 12-22 28-27 23-35 20-31 16-17 6-16 2-4 2-8-2v2l6 32 9 21 9 14 10 9 12 6 14 2 16-3 7-3 3-2 34-39 26-36 5-7 35-20 10 17-5 7-26 36-34 39-20 14-35 20-24 11-16 3-14-2-12-6-10-9-17-25-10-17-12-28-6-32-3-32 7-33 14-32 17-27 14-17 16-18 19-14 35-20 21-7zm404-264 7 1 10 2 8 3 10 17 2 4-35 20-2-4-8-2-10-2-7-1h-54l-26 4-21 7-18 18-16 25-12 28-11 46-4 47-3 18-6 18-7 18-5 18-4 43-4 44-1 34 1 35v36l6 36 3 9 6 3 6-8 16-31 11-8 35-20 7-1 10 17-19 11-15 29-10 14-14 12-35 20-14 4-10-5-7-12-10-17-5-14-6-36v-36l-1-35 1-34 4-44 4-43 5-18 7-18 6-18 3-18 4-47 11-46 12-28 16-25 21-21 35-20 26-15 26-8 26-4h54zm-19 262h8l6 5 10 17 4 10 2 22-1 23-5 45-6 32-5 32-3 29-4 29-5 23-2 12v10l-35 20-10-17v-10l2-12 5-23 4-29 3-29 5-32 6-32 5-45 1-23-2-19h-7l-27 24-16 19-2 3-35 20-10-17 2-3 16-19 18-16 14-12 19-12 35-20 9-3zm166-11 4 2 10 17 2 7v16l-35 20-10-17v-6l-8 3-7 5-37 32-31 37-7 10-9 15-5 13-6-21-26 47-10-17-3-6 5-13 9-15 7-10 31-37 37-32 25-18 35-20 28-12zm513 11 10 17-1 1-35 20h-3l-15 2-19 3-16 4-20 9-15 14-20 25-16 28-25 60-5 25 2 23 7 23 6 13 4 5 10 9 13 5 16 1 13-3 13-6 9-5 15-13 27-32 4-8 35-20 10 17-4 8-27 32-15 14-18 11-35 20-24 13-13 6-13 3-16-1-13-5-10-9-9-13-10-17-11-23-7-23-2-23 5-25 25-60 16-28 20-25 16-14 17-11 35-20 37-17 16-4 19-3 15-2h3zm-341 42-15 1-10 4-11 8-22 20-15 19-12 23-9 24-8 23-9 30-4 32 3 31 7 14 7 8 11 9 13 5 16-2 30-11 12-11 31-36 13-21 1-2-4-6 3-12 5-17 4-19 2-18 2-28-1-28-9-22-5-6-14-9-14-3m25-37 14 3 14 9 11 14 10 17 13 32 1 28-2 28-2 18-3 11 6 11-4 13-9 22-13 21-31 36-18 15-18 11-35 20-41 16-16 2-13-5-11-9-10-12-10-17-14-28-3-31 4-32 9-30 8-23 9-24 12-23 15-19 22-20 27-20 35-20 29-13 15-1z"/><path stroke="#464f4f" stroke-width="20" d="M2679 2824c-5 24-1 56-1 79v4m92-48c1 9-18 8-23 7-24-10-17-44 5-52 28-9 21 37 14 50-8 14-18 29-25 44-2 1-1 3-2 4m120-91c11-10-12-9-13-8-18-1-21-4-25 14-3 11-3 23-9 33 0 0 11-2 14-1 14 4 42 6 25 27-9 10-25 17-40 16h-4m85-72c10-10 15-27 32-13 18 12 6 38-15 38 4 0 46 15 21 36a51 51 0 0 1-46 9l-7-4m-704-71v67m-2-75c31-11 82 15 61 53-14 24-54 31-79 31h-7m138-32s27 6 42 0c26-11-8-26-22-25-41 5-33 74 11 58 2-1 5-3 8-2l3-2m39-45c-2-4-3 18-4 21-3 20-1 35 0 55m11-85s0 0 0 0c-5-4 13-8 14-6 26-1 36 26 17 44-9 9-26 12-36 2l-1-2m87-41c-1 7-7 41 3 54 13 18 36 7 47-4 10-10 9-28 7-43l-1-2m26-6 1 48-1 15m0-91s0 0 0 0m56 28c3 1 7 1 11-1 0-8-18-7-21-7-21 3-23 27-5 38 17 10 22 35-4 37-3-1-7 1-8 2l-2 1"/><path fill="#464f4f" d="m744 2837 39 4 37 8 13 3 16 4 13 6 4 4 10 17 1 6-35 20-6-11-12-5-16-4-13-3-37-8-39-4-40 1-37 5-22 8-13 10-24 31-19 36-11 34-6 37-2 37 1 36 7 46 14 44 6 11 20 24 25 20 28 15 27 4 29-5 29-9 25-10 3-1 10-10 8-17 2-11 35-20 10 17-2 11-8 17-14 13-35 20-34 18-25 10-29 9-29 5-27-4-28-15-25-20-21-25-10-17-16-28-14-44-7-46-1-36 2-37 6-37 11-34 19-36 24-31 31-24 35-20 39-14 37-5 40-1zm557-868 26 1 46 3 92 2 46 3 48 1 24 1 24 3 23 3 24 1 47 3 45 1 45-2 64-2h64l20 4 19 8 2 1 17 10-10 17-2-1-19-8-20-4h-64l-64 2-45 2-45-1-47-3-24-1-23-3-24-3-24-1-48-1-46-3-92-2-46-3-26-1-52 2-26-1-17-10 10-17 26 1zm656 30 17 10-10 17-3 3-28 11-30 3-59 2-58 9-25 4-25 7-4 3-5 2-17-10 10-17 5-2 4-3 25-7 25-4 58-9 59-2 30-3 28-11zm-215 48 6 1 8 5 4 1 10 3 43 8 43 5 36 4 14 3h2l17 10-10 17h-2l-14-3-36-4-43-5-43-8-10-3-13-4-7-3-17-10 10-17h1zm-11 7 6 1 11 4 44 14 42 19 13 8 17 10 12 9 1 2-10 17-17-10-1-2-8-6-43-19-44-14-11-4-6-1-5 2-17-10 10-17 5-2zm-34 66h6l13 1 73 4 74-2 9-3v-1l17 10-10 17v1l-9 3-74 2-73-4-13-1h-6l-17-10zm-106-43h4l20 7 60 30 21 7 22 3h4l17 10-10 17h-4l-22-3-21-7-60-30-20-7h-4l-17-10zm-24-63 6 2 138 42 7 2 17 10-10 17-7-2-69-21-66-20-1 2-5-3-17-10-3-2 10-17h1zm176 119 17 10 2 4 3 2 8 3 15 2h2l17 10-10 17h-2l-15-2-8-3-11-5-17-10-9-6-2-5zm-263-14 8 3 35 17 35 16 50 15 53 8 53 2 52-5 11-3 15-5h1l6-10 4 2 17 10-1 3-10 17-10 6-15 5-11 3-52 5-53-2-53-8-50-15-35-16-35-17-8-3-17-10 10-17zm82 63 8 3 6 3 7 4 4 1 8 1 42 4 42-4 4-1 17 10-10 17-4 1-42 4-42-4-8-1-10-2-9-3-17-10-6-5zm-132-32 17 10 6 5 37 29 43 20 19 8 21 9 21 5 19-3 12-9 2-1 17 10-10 17-2 1-12 9-19 3-21-5-21-9-19-8-52-24-17-10-45-35-6-5zm-42-3 17 10 80 66 9 7 9 5 41 11 11-1 3-1 17 10-10 17-3 1-11 1-41-11-19-9-17-10-17-12-80-66 10-17zm-55 8 17 10 6 5-1 2 29 27 33 25 21 13 39 15 11 4 3-1 7-12 17 10v1l-3 5-3 6-10 17-4 1-11-4-40-16-17-10-37-23-33-25-30-28-4-4v-1zm-40 9 17 10 3 3 49 41 50 41 8 6 12 3 6-2 5-5 4-5 1-1 17 10-10 17-1 1-4 5-5 5-6 2-14-3-17-10-13-8-10-8-50-41-28-23-1 1-17-10-5-9-1-2 10-17zm-50-8 17 10 4 5 7 11 6 9 26 28 28 26 18 12 32 12 13 7 7 4 8 2 18 10-10 17-9-2-7-4-13-7-36-14-17-10-32-21-28-26-26-28-6-9-2-4-6-4-2-6v-2l10-17zm-25 32 17 10 3 2 9 12 11 16 9 12 13 13 16 12 17 10 8 4 11 3 20 2 4-2 17 10-10 17-4 2-20-2-11-3-9-4-17-10-33-20-16-12-13-13-9-12-11-16-8-10-5-3 10-17zm60 71 17 10-2 5-10 17-10 11-15 8-16 1-11-6-6 9-5 6-6 3-9-2-17-10-5-7-4-17v-2l10-17 17 10v2l4 15 1-1v-1l10-17 14 8 15-1 11-6 7-11 7-6h2zm-136-70h2l17 10 9 6 11 11 7 11 4 18 5 17 2 4-10 17-17-10-2-4-5-17-4-18-7-11-8-8-12-7-1-2 10-17zm-48-14 17 10 2 4 19 40 7 19 10 40 8 18 3 4h2l11-5 13-13 17 10v3l-2 5-2 4-10 17-5-3-4 4-11 5-12-3-17-10-11-12-8-18-10-40-7-19-19-40-2-4 10-17zm-19 84 17 10 4 6 1 1 8 24 1 4-10 17-17-10-1-4-3-9-14-8 2-8 2-6 10-17h1zm29 56h5l17 10 10 8 7 12 3 11v2l-10 17-17-10v-2l-3-11-6-10-5 3-17-10 10-17 5-3zm46 5 17 10-10 17-9 9-1 2-10 17-17-10 5-10 10-17 7-10zm60-352 37 2h8l9 2 17 10-10 17-9-2h-8l-37-2h-37l-36 4-35 10-11 4-17-10 10-17 11-4 35-10 36-4zm-75 12 17 10-10 17-19 2-20 7-36 19-46 33-41 39-8 8-17-10 10-17 8-8 41-39 46-33 36-19 20-7zm-99 59 17 10-4 6-10 17-3-2-12 9-62 42-29 24-27 27-5 6-6 6-17-10 10-17 6-6 5-6 27-27 29-24 62-42 16-12 4-2zm176 429 17 10 3 11v15l-10 17-17-10v-15l-3-11zm-91-31 4 2 27 13 17 10 27 20 28 20-10 17-17-10-28-20-20-15-17-8-4-2-17-10zm-28-45 17 10 2 2 15 16 9 20-10 17-17-10-9-20-15-16-2-2zm-22 29 18 3 17 10 11 9-10 17-15-9-13-2-19 1-15 2-7 2-3 1-17-10 10-17 3-1 7-2 15-2 19-1zm-114-26 15 2 17 10 12 9 1 1 17 8 17 10-10 17-19-9-10-5-17-10-7-6-10-1h-3l-17-10 10-17h3zm-66-20 11 1 9 4 17 10 2 6 1 7 3 6 13 4 24 3 17 10-10 17-24-3-17-5-12-7-17-10-4-8-1-7-6-1h-3l-17-10 10-17h3zm3 32 17 10v3l3-5 17 10-2 5-3 7-10 17-5 5h-6l-17-10-2-4-2-14v-7zm-12-13 17 10-7 23-4 11-10 17-7 10-7 5h-6l-17-10-8-10-4-15-2-12v-3l10-17 17 10v3l2 12 3 13 4-3 1-4 7-23 10-17zm-83 12 17 10v4l-1 13 1 17 2-1 1-2 2-10-3-7 10-17 17 10 3 7-2 10-5 11-10 17-6 8-8 4-5-1-17-10-3-5-2-8-1-18 1-13v-4l10-17zm-25 5 17 10 1 2 1 8-1 8-4 15 1 9 4-7 17 10 1 2-2 8-1 2-10 17-4 4h-4l-17-10-7-7-5-12-1-10 4-15 1-8-1-8-1-2 10-17zm-37 9 17 10v2l-2 12-2 15 1 12 4-1 2-2 17 10-10 17-2 2-5 1h-8l-17-10-8-9-2-14 2-15 2-12v-2l10-17zm-37-5 17 10-1 3v24l8 18 13 8-10 17-2 1-5-1-17-10-5-4-10-22v-24l1-3 10-17zm-30 13 17 10 1 5v11l2 11 1 3 12 7-10 17-8-1-17-10-2-3-2-6-2-11v-11l-1-5 10-17zm228-51 23 1 17 8 19 7 5 1 3 1 17 10-10 17-3-1-5-1-19-7-17-8-23-1-21 8-12 6-12 4-12 2-12 4-30 6-30 2-34 3-34 6-7 1-10 2h-10l-7-2h-1l-17-10 10-17h6l5 3h7l10-2 7-1 34-6 34-3 30-2 30-6 12-4 12-2 12-4 12-6 21-8zm-258 59 17 10 5 3 15 10-10 17h-5l-7-3-17-10-6-6-2-4zm-7 11 17 10-10 17h-5l-10 4-11 5-8 4-20 5-20 2h-3l-17-10 10-17h3l20-2 20-5 8-4 11-5 10-4zm13-68 17 10-10 17-8 3-9 6-9 7-7 6-33 17-35 14-22 7-21 9-6 4-17-10 10-17 6-4 21-9 22-7 35-14 33-17 7-6 9-7 9-6zm-99 104 17 10-10 17-19 3-17 11-14 15-12 15-2 2-17-10 10-17 2-2 12-15 14-15 17-11zm151-107h7l17 10-10 17h-6l-18-10zm-39-36 1 1 5 1 17 10-10 17-5-1-1-1-17-10zm89 18 9 1 6 1 5 1 17 10-10 17-5-1-6-1-9-1h-8l-3 3-17-10 10-17 3-3zm95 9h1l17 10-10 17-2 3-17-10 1-3zm-43 2 17 10-10 17-1 1-17-10v-1l10-17zm58-119 17 10-1 6 1 6 1 4-10 17-17-10-1-4-1-6 1-6zm40-120 17 10-10 17-2 3-5 4-9 6 1 7 5 8 25 28 27 26 34 22 37 20 55 25 12 6 17 10 10 8 1 2-10 17-17-10-1-2-5-4-55-25-45-24-17-10-43-28-27-26-25-28-5-8-1-8 3-8 10-17 6-8 4-3 6-4 5-4 2-3zm95 0 17 10 2 3 6 19 3 20 2 19 9 5 7 10 5 12 4 13 3 11 2 6 2 9 1 8-2 4-10 17-11-6-1 1-17-10-3-3-5-7-3-7-5-38-3-38-3-20-6-19-2-3 10-17zm-22-2 17 10 7 7 4 9 1 4-10 17-17-10-1-4-2-5-1 1-17-10 10-17 1-1h9zm-11 10 17 10v3l-2 8-5 15-8 19-10 17-1 1-3 9 5 8-10 18-17-10-6-9 3-10 10-17 1-2 7-17 5-15 2-8v-3l10-17zm12 18 17 10 5 4 4 9 3 11 2 8 3 37 2 18 6 18-10 17-17-10-4-12-8-5-3 4-17-10-7-5-5-6-5-5 4-6v-5l1-7v-4l10-17 6 4v-14l2-6 5-8-2-2 10-17zm151-80 17 10 12 8 28 20 14 9 3 1 5 2 17 10-10 17-5-2-5-3-17-10-29-18-28-20-12-8 10-17zm-17 30 17 10 10 6 41 26 6 5 5 4 1 3-10 17-6 2-17-10 4-6-3-3-6-5-41-26-10-6 10-17zm-41-70 17 10v1l-1 1-1 6-3 7-3 8-2 5-10 17-17-10 2-5 3-8 3-7 1-7 10-17zm11 66 17 10-1 6-3 9-3 7-2 4-10 17-17-10 2-4 3-7 3-9 1-4-3-2 10-17 3-1zm268-12 17 10 5 3 4 2 17 10-10 17-7-4-17-10-1-1v1l-17-10v-1l10-17zm66-72 17 10 1 1 5 4 13 10 7 5-10 17-17-10-7-5-13-10-5-4-1-1zm76 67 6 1 17 10-10 17-6-1h-1l-1 2-17-10-1-2 10-17zm81-20 17 10-10 17-2 2-3 5-4 6-2 4-3 4-17-10 10-17 3-4 2-4 4-6 3-5zm-36 43 17 10 2 5 10 6-10 17-3-1-6-4-17-10-2-6 10-17zm58 6 18 7 17 10 5 2 17 10-10 17-5-2-17-10-18-7-17-10zm-809 52 17 10-10 17-35 17-35 12-37 7-38 1h-6l-17-10 10-17h6l38-1 37-7 35-12zm-169 49 13 8 17 10-10 17-13-8-19 2-19 7-15 7-22 14-21 16-21 14-24 10-43 7-21 3-21 6-6 2-7 1-17-10 10-17 7-1 6-2 21-6 21-3 43-7 24-10 21-14 21-16 22-14 15-7 19-7zm-133 35 16 10h4l17 10-10 17h-1l-13-1-17-10-5-3-1-6zm-105 53 17 10-3 5-10 17-3 2-9 15-4 4-6 4-16 8-3 1-17-10 10-17 3-1 16-8 1-1 10-17 6-4 5-3 3-6zm-55 83 17 10-10 17-20 31-10 15v5l4 4 3 5-2 7-10 17-15 21-9 13-8 17-5 25 3 12 7 11 7 12 3 13 3 8 8 6 9 6 8 7 2 3 5-6 4-4 20-17 20-16 9-3h9l8-2 15-15 10-6 19-14 7-7 18 10-10 17-7 7-19 14-10 6-15 15-8 2h-9l-9 3-20 16-20 17-4 4-5 6-5 5-3 1-17-10-5-10-6-10-8-6-9-6-8-6-3-8-3-13-7-12-7-11-3-12 5-25 12-24 10-17 16-23 7-9 1-2-3-5-4-4v-6l10-17 40-62zm130 161 17 10v1l-10 17-3 4-5 6-6 4-5-1-17-10 10-17 5 1 6-4 5-5 4-6zm1-77 17 10-10 17-2 2-11 14-5 6-3 3-17-10 10-17 3-3 5-6 11-14zm33-27 17 10-8 13-10 17-4-2-17-10 1-4 10-17 9-7 2-1zm9-23 17 10v2l-1 10-10 17-5 8-17-10 5-8 1-10v-2zm13-48 17 10 2 5-6 11-1 3-10 17-13-8-3 2-24 25-24 23-6 1-14-8h-6l-15 11-12 15-22 31-1 2-17-10 10-17 1-2 22-31 12-15 15-11 8-1 13 8 4-1 24-23 24-25 6-4 8-6 7-3zm-146 123 17 10v5l-10 17-17-10v-5zm46-33 17 10-10 17-3 3-9 11-9 10-17-10 10-17 9-10 9-11zm38-31 17 10 7 6 9 6-10 17-2 2-6 5-6 2h-3l-17-10 1-4 2-3-6 3-5 4-1 4 3 2-10 17-3-1-17-10 2-7 4-8 10-17 3-5 7-6 10-6 10-2zm67-44 17 10-10 17h-1l-15 6-8 7-6 12-10 17-17-10 14-27 10-17 10-10 15-6h1zm-174 161 17 10-10 17-1 1-4 3-17-10 10-17 5-5zm30-38 17 10-2 3-1 2-10 17-17-10 1-2 2-3zm36-23 17 10-1 4-10 26-7 14-3 8v6l-10 17-17-10v-6l3-8 7-14 10-26 1-4zm-72-112 5 1 9 1h18l16 1h3l17 10-10 17h-3l-16-1h-18l-9-1-5-1-17-10zm-6-30 17 10-4 7v8l2 4-10 17-17-10-2-4v-4l1-6 2-5 10-17h2zm132 145 17 10v3l-1 7-1 6-1 9v11l-10 17-17-10v-11l1-9 1-6 1-7v-3zm46-40 17 10-10 17h-3l-13 4-12 8-1 1-2 7-10 17-17-10 4-13 10-17 9-12 12-8 13-4zm-21 7 17 10-10 17-3 2-8 6-7 11-17-10 6-10 10-17 10-7 3-2zm133-42 17 10-10 17-2 1-9 7-9 10-6 8-1 1-17-10 10-17 1-1 6-8 9-10 9-7zm42-37 17 10-1 3-10 17-10 16-8 8-9 4-4 1-17-10 10-17 4-1 9-4 8-8 8-12 4-7zm-82 7 17 10-10 17-8 4-4 3-6 5-5 9-17-10v-4l10-17 5-5 6-5 4-3zm-53-41 3 1 17 10-10 17-3-1h-1l-17-10 10-17zm-77-26 6 3 17 10-10 17-4-2-17-10-1-1 10-17zm127 118 17 10-5 14-10 17-13 9-16 6-14 3-8 6-5 8-1 2-17-10 1-2 10-17 5-9 8-6 14-3 16-6 8-6 10-17zm-48 25 7 2 17 10-10 17-7-2-9 3-9 5-6 4-12 10-9 15-17-10v-2l10-17 8-13 12-10 6-4 9-5 9-3zm-32 21 17 10-10 17h-6v2l-3 7v1l-10 17-17-10v-1l3-7 5-10 10-17 6-8h6zm10 2 17 10v1l-10 17-3 4-6 9-10 13-2 3-17-10 10-17 2-3 10-13 4-6zm-20 24 17 10-10 20-2 10-1 13 1 11 5 10 1 1-10 17-17-10-1-1-5-10-1-11 1-13 2-10 10-20zm3 33 17 10 2 26v26l-3 6-10 17-4 6-1 2-17-10 7-12 1-2v-26l-2-26zm7 58 17 10-4 6-1 8 1 10 2 7 5 14 3 13-1 13-7 14-10 17-25 37-24 37-3 6-17-10 10-17 3-6 24-38 18-26 4-8 1-13-3-13-5-14-2-7-1-10 1-9 10-17 4-5zm-43-34 17 10-3 8-10 17-6 9-8 9v5l3 4 1 5-4 7-10 17-6 7-4 5-18 22-1 1-1 5h1l17 10 1 4-1 6-1 4 16 10 2 3-1 6 2 10 5 11v1l-10 17-17-10v-1l-5-11-2-8-17-10-2-5 1-4 1-2-16-10-2-4 3-16 8-15 10-17 22-25 4-4-1-3-3-4v-5l5-11 10-17 11-13 1-2 10-17zm-13 118 17 10-1 1-10 17-1 2v1l-10 17-17-10v-1l3-6 8-14 10-17zm15-32 17 10-6 12-1 4-2 6-3 6-10 17-2 3-17-10 4-6 1-2 2-6 1-4 5-11 10-17 1-1zm16-46 17 10v3l-4 13-1 6 4 5-10 17-17-10-4-5 1-6 4-13v-3zm12 64 17 10-10 17-1 1-3 1-9 4-9 7-7 6-2 2-17-10 10-17 2-2 7-6 9-7 9-4 3-1zm653-314h1l17 10 1 1-10 17-17-10-1-1h-1zm3 0 17 10 1 2 8 20 12 18 26 25 24 27 3 5 4 8 3 8v5l-10 17-17-10v-5l-3-8-4-8-3-5-24-27-26-25-12-18-8-20-1-2zm-51-10 17 10 5 6 6 7 3 4 2 4-10 17-17-10-2-4-3-4-6-7-5-6zm-196-435 17 10-10 17-6 6-5 11-6 11-17 40-11 43-2 18v20l2 20 3 18 12 24 16 13 7 4-10 17h-2l-17-10-21-17-12-24-3-18-2-20v-20l2-18 11-43 17-40 6-11 6-14 7-13 10-17 8-8zm-17 1 5 2 17 10v1l-10 17-2-1-3-1h-5l-8 1-7 2-20 7-18 11-33 27-59 50-34 35-32 37-77 86 14 8-10 17-10-1-8-2h-5l-17-10 10-17h1l2-3 2-4 5-6 85-96 32-37 34-35 59-50 33-27 18-11 20-7 7-2 8-1h5zm744-421 17 10-10 17-18 9-23 11-22 14-28 14-29 12-57 26-59 23-183 59-26 7-26 4-53 6-13 3-10 5-18 16-51 35-56 26-23 5-24 3-21 7-18 13-38 35-23 13-26 4-8 2-7 4-6 4-7 2-10 2-12 5 1 2 4 13-2 14-10 17-8 12-12 8-14 6-15 9-9 8-10 26-10 17-18 23-10 12-2 4-20 34-12 14-26 28-6 10-13 26-10 17-18 24-15 18-5 10-2 12 1 12 1 1 3 2-10 17h-2l-17-10-2-3-1-12 2-12 11-22 10-17 19-23 13-17 8-17 10-17 16-26 26-28 12-14 1-2 8-15 10-17 13-15 11-14 8-19 7-13 10-17 12-11 15-9 14-6 10-7 2-10-4-13-2-5 1-5 10-17 9-8 13-6 10-2 7-2 6-4 7-4 8-2 26-4 23-13 38-35 18-13 21-7 24-3 23-5 56-26 51-35 18-16 10-5 13-3 53-6 26-4 26-7 183-59 59-23 57-26 29-12 28-14 22-14 23-11 18-9zm8 0 17 10-10 17-15 3-16 8-16 9-14 9-35 22 42-6h7l8 1 17 10-10 17-11 11-26 11-27 6 6 4 2 5-10 17-8 7-13 5-16 2h-16l-14-1-9-1 9 6 3 4-2 3-10 17-11 4-15 2-10 1h-18l5 6 1 7-10 17-7 8-14 6-14 2h-15l-1 2-10 17-7 6-20 11-11 5-6 1-4 7-4 5-16 8-18 5-36 7-20 5-18 7-1 1-9 14-4 2-7 1-8 1-5 2-10 6-11 3-23 4-5 1h-7l-7-1-5-3-11 11-18 13-11 3-11-2-7-4-4 3-7 5-5 3-16-3-13-8-5 8-5 4-15 5-7-1-7-2-8 13-8 10-10 8-18-10 10-17 10-8 2-2 2-4 10-17 1 1 7 2 7 1 14-4 1-2 10-17 17 10 4 3 3 4 6 1 5-3 7-5 6-6 3-4 17 10v2l7-2 18-13 6-6 6-5 6 4 5 1h7l5-1 23-4 11-3 10-6 5-2 8-1 7-1 7-11 6-6 18-7 20-5 36-7 18-5 7-4 9-16 4-1 10-2 11-5 16-9-4-10 10-17h30l14-2 10-5-5-6-8-5-2-1-4-3-3-3v-2l10-17 23-3h23l20-2-5-4-22-11-5-2-2-1-17-10 10-17 33 6 34 3 14 1h16l6-1-12-2-30-7-17-10 10-17h10l11-1 29 1 14-1-10-6-5-4 1-7 10-17 5-6 12-8 42-26 14-9 16-9 16-8 15-3zm-721 307 17 10 1 6 2 13 1 15-1 12-7 20-10 18-10 17-4 5-5 2-4-1-17-10-2-7-3-16-5-17-3-17 2-16 1-2 10-17 17 10-1 2-2 16 3 17 5 17 1 5 7-20 1-12-1-15-2-13-1-6 10-17zm-50 74 17 10-3 5-4 6-6 12v2l-10 17-17-10v-2l6-13 4-7 2-4 10-17zm-46 27 17 10-10 17h-8l2 7 5 3-10 17-2-1-3-1-17-10-2-8 3-10 10-17 7-7h9zm-41 23 17 10-10 17-6 1-2 3-3 6-3 7 1 7 1 2-10 17-17-10-1-2-1-7 6-14 5-10 10-17 6-8 6-1zm88-113 17 10-8 15-8 16-10 17-13 14-13 11-15 7-19 2-16 3-17 8-9 8-1 2v2l-10 17-17-10v-2l7-15 10-17 13-12 17-8 16-3 19-2 15-7 13-11 10-11 1-2 8-15zm-139 123h4l17 10-10 17h-4l-6 4-6 5-1 1-6 15-1 15 9 12 2 2 1 2-10 18-17-10-1-3-2-2-9-12 1-15 6-16 8-13 10-17 3-4 6-5zm-42 31 17 10-6 11 15 9-10 17-8 2-7 5h-3l-17-10v-5l1-6 1-3 6-11 10-17 2-2zm115-75 17 10-10 17-2 1-19 5-16 10-10 10-3 4-4 7-17-10 2-5 10-17 5-6 10-10 16-10 19-5zm-106 129 2 1 17 10v4l-10 17-5-3-3 3-7 10-6 8-5 9-9 16-17-10 2-3 10-17 13-21 6-8 7-10 6-5zm-77 71h1l7 1 4 1 1-1 7 2 17 10-10 17h-9l-7 11-17-10-3-3-2-1-5-3-2-5 10-17 4 2 2-3zm-20 19 17 10v1l17 10 1 4-10 17-4 3-7 1-4-1-1 2-5 2-17-10-2-3 2-5-2-2-3-6 1-5 10-17 6-2zm-3 17 17 10v1l-10 17-17-10v-1zm-33 81 17 10-10 17-6 4-12 5-13 3 3 2 1 1-10 17-17-10-1-1-7-6-5-4-3-5 1-4 10-17h21l15-3 12-5 6-4zm-52 28h2l17 10-1 1 17 10-1 2 5 3-10 17-1 1h-4l-11-3-17-10-7-6v-5l1-3zm539-459 2 1 17 10 6 4 2 3-1 3-10 17-11 5-13-1-8 13-9 3-10-1-4-2-10 17-7 3h-9l-6-1-17-10-8-6-10-9-8-9-3-7 10-17 11 7 8-13 7-1 8 4 15 9v-1l10-17 8 3 11 5 14 4h6l9-15zm35-70h7l7 3 29 12 28 14 17 10 4 4-4 6 6 4 4 2v2l-10 17-7 1-3-1-1 2-2 2-6 2-21 2-19-4-4-2v1l-10 17-5 6-12 3-14-1-14-3-12-2-3-1-5-2-4-2-17-10-1-2 10-17 5-1 14 4 4 2 11 7 5 1 14 1 6-1-3-5-3-1-17-10-12-9 10-17h2l8 2 2 1 37 17 18 4 8-14-4-2-1 1-3-1-23-7-6-3-17-10-3-2-1-1 10-17zm55-24 8 5 5 2 14 3 10 2 14 6 17 10 13 9 1 1 9 4 19 7 17 10 7 6 5 9 3 4 17 10-10 17h-1l-11-4-17-10-7-9-5-8-9-3-14-6-17-10-13-9h-1l-9-4-10-2-14-3-11-4-17-10-2-2 10-17 1-1zm132 32 9 4 17 10 2 2-10 17-4-2-7-3h-22l-7 1-4 1-17-10 10-17 4-1 7-1h22zm-41-47 9 2 17 5 14 4 10 6 17 10 8 8 7 9 3 1 21 2h2l17 10-10 17h-2l-21-2-10-3-17-10-8-6-9-11-5-4-11-3-17-5-9-2h-7l-17-10 10-17h7zm41-9h3l14 4 4 1 15 3 17 2 16 5 17 5 18 2h3l17 10-5 9h1l-10 17-24-3-23-8-6-3-9-4-11-7-9-2-4-1-14-4h-3l-17-10 10-17zm116-25 31 7 13 5 13 2 18 10-10 17h-4l-8 1-8 2-5 1-31 1-30 1-8-1h-1l-17-10 6-10-5-3 1-2 10-17 6-2 32-2zm-264 141h6l17 10-2 4 6 4 7 5 11 10 17 10-10 17h-1l-14-8-17-10-12-11-14-10-3-3 10-17zm53-15 3 2 17 10 6 5 3 2 8 5 5 4 1 1-10 17-17-10-2-2-3-2-1 1-17-10-4-6 10-17zm-94 42 17 10 2 2-1 2 1 1 4 7 3 5 2 2-10 17-17-10-2-2-3-5-4-7-2-5zm-214 139 17 10v1l-4 12-10 17-10 9-12 6-7 11h-14l-2-1v1l-17-10v-1l10-17h2v-1l8-4 12-5 12-7 3-3 1-2v-1l10-17zm-3 9 17 10-10 17-17 22-6 10-10 30-1 15 3 14v1l-10 17-17-10v-1l-3-14 1-15 11-30 10-17 17-27 17-22zm-38 81 17 10-8 14-1 5-4 21v21l1 10-2 12-3 12-3 10-5 9-10 17-8 7-1 1-17-10 10-17 5-5 1-5 3-12 2-12-1-10v-21l4-21 1-5 3-7 3-6 10-17 2-1zm-22-37 17 10-10 17-2 1-14 9-13 12-7 5-9 7-3 3-2 6-10 17-20 10-9 9-15 20-5 6-2 2-1 4 5 6 14 14-1 2-10 17-23-2-22 5-19 12-14 18-17-10 10-17 14-18 19-12 19-4-3-4 1-7 10-17 5-8 6-8 5-6 15-20 9-9 10-5 5-2 2-3 10-17 8-7 9-7 7-5 13-12 14-9 2-1zm-185 187 17 10v1l-10 17-1 1-7 8-6 6-4 3-2 1-17-10 2-5 10-17 6-6 7-6 6-2z"/></g></svg>
