<svg xmlns="http://www.w3.org/2000/svg" width="1065.3" height="276" version="1.0" viewBox="0 0 799 207"><path d="M65 66c-5.7 2.9-11.4 8.3-10.7 10.3.7 2.1 2.4 1.7 3.5-.8 1.4-3 8.6-6.7 17.7-8.9 9-2.2 11.1-2.4 10.7-.6-.2.8-4.2 10.5-8.9 21.5-14.7 34.2-20.8 55.9-16.9 59.8 3.8 3.7 4.9 1.5 12.1-24.3 2.6-9.1 5.2-17 5.8-17.7.7-.6 5.2-1.9 10.1-2.8 4.8-.9 13-3.1 18.2-5 31-11 38.6-28 16.7-36.8-4.1-1.5-7.7-2-18.3-2.3-13.4-.1-28 1.8-40 7.6zm54.7-.5c5.5 1.6 10.3 4.9 10.3 7 0 2.6-5.3 7.6-10.9 10.4-3.1 1.6-12.3 5.3-20.6 8.4-8.2 3-15.9 5.8-16.9 6.3-1.6.6-1.8.4-1.2-1.2.4-1 2.3-7.5 4.2-14.4 4.1-14.9 5.2-17.2 8.4-18.2a90 90 0 0 1 26.7 1.7zM470.5 71.1c-14 4.8-32 18.8-40.5 31.4-10.5 15.5-10.5 29 0 34.2 12.2 6.2 30.5-1.8 34-14.9l1.6-5.6c.2-.7 1.4-1.2 2.6-1 3.8.5 3.5 7.3-.7 19.7-3.8 11.4-4.4 17.1-2 19.1 2.4 2 3.3.5 7.6-12.2 3.1-9 3.6-12.8 3.9-18.5.3-6.4.1-7.8-2.2-10.5-1.9-2.3-3.8-2.8-6.3-2.8-4.8 0-7.3 2.6-8.5 8.9a14.7 14.7 0 0 1-9.5 12.2c-7.3 3.4-19.1 1.9-20.9-2.6-2.4-6.3 1.1-15.2 10.3-26.7 12.2-15.2 31.9-27.8 44.5-28.6 11-.7 14.9 2.9 12.1 10.9-1.9 5.2-1.9 6.5-.1 5a16 16 0 0 0 2.6-5.7c1.7-6-.4-10.8-5.5-13-5-2-15.9-1.7-23 .7zM187.4 77.7c-9.5 21.1-15.4 40.4-15.4 50.1 0 8.7 4.1 14.2 10.7 14.2 4.8 0 7.9-1.5 13.3-6.6l4.9-4.5-.6 7.3c-.4 5.6-.1 7.8 1 9.3 2.5 3.3 3.6.7 4.3-10 .6-8.5.4-10.2-.9-11.3-1.4-1.2-2.5-.6-8.2 3.7-12.7 9.8-18.3 7.8-16.9-5.9a370 370 0 0 1 10.3-44c2.4-7.5 2.5-8 1.1-8-.6 0-2.2 2.6-3.6 5.7zM218.5 77c-.7 1.2 1.2 4 2.6 4 .5 0-.8-1.3-.3-2.6.8-2.2-1.3-3.4-2.3-1.4ZM590.3 105.7c-.5 5-.9 5.5-4.2 7.3a68.2 68.2 0 0 0-19.3 15.7c-3.6 4.7-3.9 4.9-12 6.6-12.9 2.7-29.8 1.9-29.8-1.4 0-.5 1.4-1.6 3.2-2.5a50.8 50.8 0 0 0 14.4-13.6c2.3-4.5 1.4-9-1.6-11.5-3-2-4.2-2.5-11.8.3-6.7 3-15.2 13.8-15.2 22.4 0 5.4.3 5.2-7 5.4-5.1.2-2.3 2.1 3 2.1 4.1 0 7 .5 10 2.4 4.1 1.9 4.4 2.6 15 2.6 8.8-.1 13.3-.6 19.3-2.3 9.3-2.6 8.4-2.6 9-.2.3 1 1.7 2.2 3.1 2.6 4.5 1.1 11.1-2.3 18.4-9.2 3.7-3.5 6.9-6.4 7.2-6.4.3 0 1.7 2.1 3.2 4.5 1.5 2.5 3.4 4.5 4.3 4.5 2 0 1.9-1.6-.4-5.4-3.4-5.5-3.6-9.6-.7-16.4a80 80 0 0 0 5.6-20.9c0-3-1.4-5.3-3.8-5.3-5 .1-9.4 14.5-9.9 18.7zm-52.3 7.8c-.4 4-14.6 18.3-16.6 16.2-1.9-1.8 6.5-13.4 12.1-16.9 3.8-2.5 4.8-2.3 4.5.7zm50.5 6.1c-3.3 6.2-18.1 18.1-20 16.2-1.8-1.8 5.8-11.1 14-17.3 6.9-5.1 9.1-4.7 6 1.1zM238 99.7c0 1.6-1.1 8.4-2.5 15.3-3.3 16.7-3.2 23.3 0 26.5 1.3 1.4 2.8 2.5 4.1 2.5 3.8 0 9-3.8 15.2-11.2 7.5-8.8 6.8-8.8 12.2.2 3.2 5.3 9.3 9 14.9 9 2.3 0 5.6.7 7.2 1.6 3.9 2 7.7.8 14.9-4.6 3-2.2 5.6-4 5.9-4 .4 0 1.8 2 3.3 4.5 3.1 5.1 10.3 10.7 13.3 10.3 2.8-.4-.2-3.5-3.5-7.7-5.9-8.1-7.8-14.5-12.5-13.9 6.5-7.5-5-7.5-11.6-4.2-5.4 2.8-11.8 9.4-12.6 13-.5 2.7-.9 3-4.3 3-5.2 0-8.5-3-11.1-10.1-3.8-10.5-7.4-13-12.9-9.2-1.4.9-5.8 4.4-9.8 7.6-4 3.3-7.6 5.7-8 5.3-.4-.5-.6-8.8-.4-18.7.2-11.8.7-17.9-.8-17.9-1 0-1 1.2-1 2.7zm71.8 27.2c-1.5 2.1-13.1 11.2-14.6 9.7-1.3-1.4 10.5-11.4 13.6-11.5 2-.2 1.5 1.2 1 1.8zM661.3 113.7c.9 18 .5 22.8 5 25.2 5.7 3 15.5-2.8 20.2-12 4.1-8.7 10.8-17 14.5-18.5 12.3-5.8 27.5-9.7 10.6 2.9-10 8.6-15.1 19.2-10.1 24.2 4 4.1 12.2 2.8 17.4-2.9 1.4-1.4 2.7-2.6 3.1-2.6.3 0 1.2 1.6 1.9 3.5 2.5 7.1 11.3 11.1 22.3 10.2 7.8-.7 12.1-2.4 12.6-5.1.6-3-1.2-3.8-9.9-4.2-11.5-.7-16.3-2.9-18.9-8.9-1.1-2.5-2.6-4.8-3.5-5.1-.9-.4-3.3 1-6.1 3.5-4.4 3.9-10.7 6.6-12.6 5.5-.4-.3-.8-1.3-.8-2.3 0-2.7 8.8-16.1 14.6-21.5 7-4.5 5.8-5.4-2.6-4.6-17.5 1.5-24 5.4-36.1 19.9-8.9 10.7-10.4 12.1-13 12.1-2.5 0-3.7-4.1-4.9-15.7-1.5-15.9-1.9-19.3-3.3-19.3-1.6 0-1 6-.4 15.7zM135.3 106.1a56.7 56.7 0 0 0-18.2 19.2c-4.6 9.5-1.2 16.7 7.8 16.7 5.8 0 14.4-4.8 17.8-9.9 6.4-9.5-1.7-23.3-10.3-17.6-1.4.9-2.2 2-1.9 2.5.4.6 1.6.3 3-.6 2.2-1.4 2.5-1.4 4.4.5 8.5 9.4-9.6 21.9-15.9 19.1-5.8-3.1 2.3-18.8 14.2-27.6 3.2-2.4 5.9-4.6 5.9-4.9.1-1.6-1.1-1.2-6.8 2.6zM632.5 108.4c-3.8 1.4-9.5 7.5-9.7 10.2-.3 1.4-3.3 5.1-5.3 7.8-8.4 11.6-.2 18.8 14 12 13.7-6.4 19.8-21.8 11.4-28.8-3.4-2.9-5.9-3.2-10.4-1.2zm9.8 4.8c4.1 5.5-.7 14.1-11 19.5-7.5 3.9-10.5 4.6-12.8 2.9-1.8-1.3-1.8-1.6.8-6.9 1.6-3.2 3.6-6.4 4.7-6 2.2.8 2-1.4 2-2.4 0-2.8 2.7-6.1 6.8-8.3 4.7-2.5 7-2.2 9.5 1.2z"/></svg>
